<svg xmlns="http://www.w3.org/2000/svg" width="149" height="48" viewBox="0 0 149 48" fill="none">
  <g clip-path="url(#clip0_1799_6312)">
    <path d="M9.87737 47.6775C9.498 47.6775 9.12779 47.6726 8.75138 47.6642C7.97164 47.654 7.19372 47.5861 6.424 47.4611C5.70627 47.3375 5.01099 47.1075 4.36109 46.7789C3.71714 46.4529 3.12981 46.0255 2.62159 45.513C2.10602 45.0066 1.67678 44.4192 1.35089 43.7742C1.02141 43.1249 0.793386 42.429 0.674768 41.7107C0.546671 40.9388 0.477365 40.1583 0.467448 39.376C0.459554 39.1134 0.449219 38.239 0.449219 38.239V9.47505C0.449219 9.47505 0.460226 8.61414 0.46751 8.36121C0.477006 7.58009 0.545908 6.80083 0.673622 6.03017C0.792459 5.30987 1.02066 4.61195 1.35032 3.96059C1.67501 3.31598 2.10187 2.72816 2.61433 2.21991C3.12622 1.70683 3.71543 1.27723 4.36048 0.946767C5.00889 0.619144 5.70286 0.39083 6.41913 0.269473C7.19138 0.143171 7.972 0.0748862 8.75445 0.0651913L9.87798 0.0499878H137.842L138.979 0.0658014C139.754 0.0750146 140.527 0.14269 141.293 0.268253C142.016 0.391132 142.717 0.621039 143.373 0.950415C144.665 1.61639 145.717 2.67002 146.38 3.96362C146.705 4.6105 146.929 5.30272 147.047 6.0168C147.176 6.79378 147.248 7.57917 147.263 8.36668C147.267 8.71932 147.267 9.09809 147.267 9.47505C147.277 9.94199 147.277 10.3864 147.277 10.8345V36.8941C147.277 37.3465 147.277 37.7879 147.267 38.2329C147.267 38.6379 147.267 39.0088 147.262 39.3906C147.247 40.164 147.176 40.9354 147.049 41.6985C146.933 42.422 146.706 43.1233 146.377 43.7779C146.048 44.4159 145.622 44.9982 145.112 45.5033C144.603 46.0185 144.015 46.4485 143.37 46.7765C142.716 47.1077 142.015 47.3385 141.293 47.4611C140.523 47.5868 139.745 47.6547 138.965 47.6642C138.6 47.6726 138.219 47.6775 137.848 47.6775L136.498 47.68L9.87737 47.6775Z" fill="black"/>
    <path d="M29.124 23.3609C29.1369 22.3593 29.4029 21.3773 29.8973 20.5061C30.3918 19.635 31.0985 18.903 31.9518 18.3784C31.4097 17.6042 30.6946 16.9671 29.8632 16.5177C29.0318 16.0682 28.1071 15.8188 27.1624 15.7892C25.1474 15.5777 23.1938 16.995 22.167 16.995C21.1202 16.995 19.5392 15.8102 17.8368 15.8452C16.7356 15.8808 15.6623 16.201 14.7217 16.7747C13.781 17.3484 13.005 18.1559 12.4693 19.1187C10.1485 23.1368 11.8796 29.0421 14.1027 32.29C15.215 33.8804 16.5149 35.6569 18.2159 35.5939C19.8803 35.5249 20.502 34.5326 22.5111 34.5326C24.5016 34.5326 25.0849 35.5939 26.8203 35.5539C28.6064 35.5249 29.7317 33.9564 30.8049 32.3509C31.6041 31.2177 32.2191 29.9652 32.6271 28.6399C31.5894 28.201 30.7039 27.4664 30.0809 26.5277C29.458 25.5889 29.1252 24.4876 29.124 23.3609Z" fill="white"/>
    <path d="M25.8461 13.6531C26.8199 12.484 27.2997 10.9814 27.1835 9.46436C25.6957 9.62062 24.3214 10.3317 23.3344 11.4559C22.8518 12.0051 22.4822 12.644 22.2467 13.3361C22.0112 14.0283 21.9145 14.76 21.9619 15.4896C22.7061 15.4972 23.4423 15.3359 24.1151 15.0178C24.7879 14.6997 25.3797 14.2331 25.8461 13.6531Z" fill="white"/>
    <path d="M50.1639 31.5676H44.4838L43.1197 35.5953H40.7139L46.0939 20.6937H48.5935L53.9736 35.5953H51.5267L50.1639 31.5676ZM45.0721 29.709H49.5745L47.3549 23.1723H47.2928L45.0721 29.709Z" fill="white"/>
    <path d="M65.5924 30.1637C65.5924 33.5399 63.7854 35.709 61.0584 35.709C60.3676 35.7452 59.6807 35.5861 59.0761 35.2499C58.4715 34.9137 57.9739 34.4141 57.6401 33.8082H57.5885V39.1895H55.3584V24.7309H57.517V26.5379H57.558C57.9072 25.935 58.4133 25.438 59.0224 25.0997C59.6316 24.7615 60.321 24.5948 61.0174 24.6172C63.7748 24.6172 65.5924 26.7969 65.5924 30.1637ZM63.3002 30.1637C63.3002 27.9641 62.1635 26.518 60.4291 26.518C58.7252 26.518 57.5791 27.9946 57.5791 30.1637C57.5791 32.3528 58.7252 33.8188 60.4291 33.8188C62.1635 33.8188 63.3002 32.3833 63.3002 30.1637Z" fill="white"/>
    <path d="M77.5504 30.1637C77.5504 33.5399 75.7434 35.709 73.0164 35.709C72.3257 35.7452 71.6387 35.586 71.0341 35.2499C70.4296 34.9137 69.9319 34.4141 69.5981 33.8082H69.5465V39.1895H67.3164V24.7309H69.475V26.5379H69.516C69.8652 25.935 70.3712 25.438 70.9804 25.0997C71.5895 24.7615 72.279 24.5948 72.9754 24.6172C75.7328 24.6172 77.5504 26.7969 77.5504 30.1637ZM75.2582 30.1637C75.2582 27.9641 74.1215 26.518 72.3871 26.518C70.6832 26.518 69.5371 27.9946 69.5371 30.1637C69.5371 32.3528 70.6832 33.8188 72.3871 33.8188C74.1215 33.8188 75.2582 32.3833 75.2582 30.1637Z" fill="white"/>
    <path d="M85.4537 31.4434C85.619 32.9212 87.0545 33.8914 89.0162 33.8914C90.8959 33.8914 92.2483 32.9211 92.2483 31.5887C92.2483 30.432 91.4326 29.7395 89.5014 29.2649L87.5702 28.7996C84.8338 28.1387 83.5635 26.859 83.5635 24.7824C83.5635 22.2113 85.8041 20.4453 88.9858 20.4453C92.1346 20.4453 94.2932 22.2113 94.3659 24.7824H92.1147C91.9799 23.2953 90.7506 22.3977 88.9541 22.3977C87.1576 22.3977 85.9283 23.3059 85.9283 24.6277C85.9283 25.6813 86.7135 26.3012 88.6342 26.7757L90.276 27.1789C93.3334 27.9019 94.6037 29.1301 94.6037 31.3097C94.6037 34.0976 92.383 35.8437 88.851 35.8437C85.5463 35.8437 83.315 34.1386 83.1709 31.4433L85.4537 31.4434Z" fill="white"/>
    <path d="M99.417 22.1598V24.7309H101.483V26.4969H99.417V32.4864C99.417 33.4168 99.8307 33.8504 100.739 33.8504C100.984 33.8461 101.229 33.8289 101.472 33.7988V35.5543C101.064 35.6306 100.649 35.6651 100.234 35.6574C98.0342 35.6574 97.1764 34.8312 97.1764 32.7242V26.4969H95.5967V24.7309H97.1763V22.1598H99.417Z" fill="white"/>
    <path d="M102.679 30.1637C102.679 26.7453 104.692 24.5973 107.831 24.5973C110.981 24.5973 112.985 26.7453 112.985 30.1637C112.985 33.5914 110.992 35.7301 107.831 35.7301C104.672 35.7301 102.679 33.5914 102.679 30.1637ZM110.713 30.1637C110.713 27.8188 109.638 26.4348 107.831 26.4348C106.024 26.4348 104.951 27.8293 104.951 30.1637C104.951 32.518 106.024 33.8914 107.831 33.8914C109.638 33.8914 110.713 32.518 110.713 30.1637Z" fill="white"/>
    <path d="M114.824 24.7309H116.951V26.5801H117.003C117.147 26.0026 117.485 25.4922 117.961 25.1347C118.437 24.7773 119.021 24.5945 119.616 24.6172C119.873 24.6163 120.129 24.6443 120.38 24.7005V26.7864C120.056 26.6872 119.717 26.6417 119.378 26.6516C119.054 26.6385 118.731 26.6956 118.431 26.8191C118.132 26.9425 117.862 27.1294 117.641 27.3669C117.42 27.6044 117.254 27.8868 117.152 28.1948C117.051 28.5028 117.018 28.8291 117.054 29.1512V35.5954H114.824L114.824 24.7309Z" fill="white"/>
    <path d="M130.663 32.4043C130.363 34.3766 128.442 35.7301 125.985 35.7301C122.824 35.7301 120.862 33.6125 120.862 30.2153C120.862 26.8074 122.835 24.5973 125.891 24.5973C128.897 24.5973 130.787 26.6621 130.787 29.9563V30.7203H123.113V30.8551C123.078 31.2549 123.128 31.6577 123.26 32.0367C123.393 32.4158 123.604 32.7623 123.88 33.0534C124.157 33.3444 124.492 33.5733 124.864 33.7249C125.235 33.8765 125.635 33.9472 126.036 33.9324C126.563 33.9818 127.092 33.8598 127.544 33.5844C127.996 33.3091 128.347 32.8952 128.545 32.4043L130.663 32.4043ZM123.124 29.1617H128.556C128.576 28.8022 128.521 28.4425 128.396 28.105C128.27 27.7676 128.076 27.4597 127.826 27.2008C127.575 26.9419 127.274 26.7375 126.941 26.6004C126.609 26.4633 126.251 26.3966 125.891 26.4043C125.528 26.4022 125.168 26.4719 124.832 26.6096C124.496 26.7473 124.19 26.9502 123.933 27.2065C123.676 27.4629 123.472 27.7677 123.333 28.1033C123.194 28.4388 123.123 28.7986 123.124 29.1617Z" fill="white"/>
    <path d="M44.7934 9.47724C45.2609 9.44369 45.73 9.51432 46.167 9.68404C46.6039 9.85376 46.9977 10.1183 47.32 10.4587C47.6423 10.799 47.8851 11.2067 48.0308 11.6522C48.1765 12.0977 48.2214 12.57 48.1625 13.035C48.1625 15.3225 46.9262 16.6374 44.7934 16.6374H42.207V9.47724H44.7934ZM43.3191 15.6248H44.6691C45.0032 15.6448 45.3376 15.59 45.6478 15.4645C45.958 15.339 46.2364 15.1458 46.4626 14.8991C46.6888 14.6525 46.8571 14.3585 46.9554 14.0385C47.0536 13.7186 47.0792 13.3807 47.0305 13.0496C47.0757 12.7198 47.0474 12.3841 46.9477 12.0665C46.848 11.7489 46.6792 11.4573 46.4535 11.2126C46.2279 10.9679 45.9508 10.7761 45.6423 10.651C45.3338 10.5259 45.0015 10.4706 44.6691 10.4891H43.3191V15.6248Z" fill="white"/>
    <path d="M49.4183 13.9332C49.3843 13.5781 49.425 13.2198 49.5376 12.8813C49.6502 12.5428 49.8323 12.2316 50.0722 11.9676C50.3121 11.7037 50.6046 11.4927 50.9308 11.3484C51.257 11.2041 51.6098 11.1295 51.9665 11.1295C52.3233 11.1295 52.6761 11.2041 53.0023 11.3484C53.3285 11.4927 53.621 11.7037 53.8609 11.9676C54.1008 12.2316 54.2829 12.5428 54.3955 12.8813C54.5081 13.2198 54.5488 13.5781 54.5148 13.9332C54.5494 14.2886 54.5093 14.6474 54.397 14.9864C54.2846 15.3255 54.1026 15.6373 53.8627 15.9018C53.6227 16.1663 53.33 16.3776 53.0034 16.5223C52.6769 16.6669 52.3237 16.7416 51.9665 16.7416C51.6094 16.7416 51.2562 16.6669 50.9297 16.5223C50.6031 16.3776 50.3104 16.1663 50.0704 15.9018C49.8304 15.6373 49.6484 15.3255 49.5361 14.9864C49.4238 14.6474 49.3837 14.2886 49.4183 13.9332ZM53.4179 13.9332C53.4179 12.7619 52.8917 12.0769 51.9683 12.0769C51.0414 12.0769 50.5199 12.7619 50.5199 13.9332C50.5199 15.1139 51.0414 15.7935 51.9683 15.7935C52.8918 15.7935 53.4179 15.1091 53.4179 13.9332Z" fill="white"/>
    <path d="M61.2898 16.6373H60.1836L59.0668 12.6576H58.9824L57.8703 16.6373H56.7746L55.2852 11.2338H56.3668L57.3348 15.357H57.4145L58.5254 11.2338H59.5484L60.6594 15.357H60.7438L61.707 11.2338H62.7734L61.2898 16.6373Z" fill="white"/>
    <path d="M64.0264 11.2338H65.0529V12.0922H65.1326C65.2678 11.7839 65.4958 11.5254 65.7849 11.3528C66.0739 11.1803 66.4096 11.1022 66.7451 11.1295C67.008 11.1097 67.272 11.1493 67.5176 11.2455C67.7631 11.3416 67.9838 11.4917 68.1634 11.6847C68.3431 11.8777 68.477 12.1087 68.5552 12.3605C68.6334 12.6122 68.654 12.8784 68.6154 13.1392V16.6372H67.549V13.407C67.549 12.5387 67.1717 12.1068 66.383 12.1068C66.2045 12.0985 66.0263 12.1289 65.8606 12.1959C65.695 12.2629 65.5457 12.3649 65.4232 12.495C65.3006 12.625 65.2077 12.78 65.1506 12.9494C65.0936 13.1188 65.0739 13.2984 65.0928 13.4761V16.6373H64.0264L64.0264 11.2338Z" fill="white"/>
    <path d="M70.3145 9.12439H71.3809V16.6373H70.3145V9.12439Z" fill="white"/>
    <path d="M72.8636 13.9331C72.8296 13.578 72.8703 13.2197 72.9829 12.8812C73.0956 12.5427 73.2777 12.2315 73.5177 11.9675C73.7576 11.7035 74.0501 11.4926 74.3763 11.3483C74.7026 11.204 75.0554 11.1294 75.4121 11.1294C75.7689 11.1294 76.1217 11.204 76.4479 11.3483C76.7742 11.4926 77.0666 11.7035 77.3066 11.9675C77.5466 12.2315 77.7287 12.5427 77.8413 12.8812C77.954 13.2197 77.9946 13.578 77.9607 13.9331C77.9952 14.2886 77.9551 14.6474 77.8427 14.9864C77.7304 15.3255 77.5483 15.6372 77.3083 15.9017C77.0683 16.1662 76.7756 16.3776 76.449 16.5222C76.1225 16.6668 75.7693 16.7416 75.4121 16.7416C75.055 16.7416 74.7018 16.6668 74.3752 16.5222C74.0486 16.3776 73.7559 16.1662 73.5159 15.9017C73.2759 15.6372 73.0939 15.3255 72.9815 14.9864C72.8692 14.6474 72.829 14.2886 72.8636 13.9331ZM76.8632 13.9331C76.8632 12.7619 76.337 12.0769 75.4136 12.0769C74.4866 12.0769 73.9652 12.7619 73.9652 13.9332C73.9652 15.1138 74.4867 15.7935 75.4136 15.7935C76.337 15.7935 76.8632 15.1091 76.8632 13.9331Z" fill="white"/>
    <path d="M79.083 15.1092C79.083 14.1365 79.8072 13.5758 81.0928 13.4961L82.5564 13.4117V12.9453C82.5564 12.3746 82.1791 12.0524 81.4502 12.0524C80.8549 12.0524 80.4424 12.2709 80.324 12.653H79.2916C79.4006 11.7248 80.2736 11.1295 81.4994 11.1295C82.8541 11.1295 83.6182 11.8039 83.6182 12.9453V16.6373H82.5916V15.878H82.5072C82.336 16.1503 82.0955 16.3724 81.8103 16.5215C81.5252 16.6705 81.2056 16.7412 80.8842 16.7264C80.6573 16.7499 80.4281 16.7257 80.2112 16.6553C79.9942 16.5849 79.7945 16.4698 79.6248 16.3174C79.4551 16.165 79.3192 15.9788 79.2259 15.7707C79.1326 15.5626 79.0839 15.3373 79.083 15.1092ZM82.5564 14.6475V14.1957L81.2369 14.2801C80.4928 14.3299 80.1553 14.583 80.1553 15.0594C80.1553 15.5457 80.5771 15.8287 81.1573 15.8287C81.3272 15.8459 81.4989 15.8288 81.6621 15.7783C81.8253 15.7277 81.9767 15.6449 82.1073 15.5347C82.2378 15.4245 82.3449 15.2892 82.422 15.1367C82.4992 14.9843 82.5449 14.8179 82.5564 14.6475Z" fill="white"/>
    <path d="M85.0195 13.9332C85.0195 12.2258 85.8973 11.1441 87.2625 11.1441C87.6002 11.1286 87.9354 11.2095 88.2288 11.3773C88.5222 11.5452 88.7618 11.7931 88.9195 12.0921H88.9992V9.12439H90.0656V16.6373H89.0438V15.7836H88.9594C88.7895 16.0806 88.5415 16.3254 88.2424 16.4916C87.9433 16.6577 87.6044 16.7389 87.2625 16.7263C85.8879 16.7264 85.0195 15.6447 85.0195 13.9332ZM86.1211 13.9332C86.1211 15.0793 86.6614 15.7689 87.5649 15.7689C88.4637 15.7689 89.0192 15.0693 89.0192 13.9379C89.0192 12.8117 88.4579 12.1021 87.5649 12.1021C86.6672 12.1021 86.1211 12.7965 86.1211 13.9332Z" fill="white"/>
    <path d="M94.4779 13.9332C94.4439 13.5781 94.4845 13.2198 94.5971 12.8813C94.7097 12.5428 94.8919 12.2316 95.1318 11.9676C95.3717 11.7037 95.6642 11.4927 95.9904 11.3484C96.3166 11.2041 96.6694 11.1295 97.0261 11.1295C97.3828 11.1295 97.7356 11.2041 98.0618 11.3484C98.3881 11.4927 98.6805 11.7037 98.9204 11.9676C99.1604 12.2316 99.3425 12.5428 99.4551 12.8813C99.5677 13.2198 99.6083 13.5781 99.5744 13.9332C99.609 14.2886 99.5688 14.6474 99.4565 14.9864C99.3442 15.3255 99.1622 15.6373 98.9222 15.9018C98.6822 16.1663 98.3896 16.3776 98.063 16.5223C97.7365 16.6669 97.3833 16.7416 97.0261 16.7416C96.669 16.7416 96.3158 16.6669 95.9892 16.5223C95.6627 16.3776 95.37 16.1663 95.13 15.9018C94.89 15.6373 94.708 15.3255 94.5957 14.9864C94.4834 14.6474 94.4433 14.2886 94.4779 13.9332ZM98.4775 13.9332C98.4775 12.7619 97.9513 12.0769 97.0279 12.0769C96.1009 12.0769 95.5795 12.7619 95.5795 13.9332C95.5795 15.1139 96.101 15.7935 97.0279 15.7935C97.9513 15.7935 98.4775 15.1091 98.4775 13.9332Z" fill="white"/>
    <path d="M101.005 11.2338H102.031V12.0922H102.111C102.246 11.7839 102.474 11.5254 102.763 11.3528C103.052 11.1803 103.388 11.1022 103.724 11.1295C103.987 11.1097 104.251 11.1493 104.496 11.2455C104.742 11.3416 104.962 11.4917 105.142 11.6847C105.322 11.8777 105.455 12.1087 105.534 12.3605C105.612 12.6122 105.633 12.8784 105.594 13.1392V16.6372H104.528V13.407C104.528 12.5387 104.15 12.1068 103.362 12.1068C103.183 12.0985 103.005 12.1289 102.839 12.1959C102.673 12.2629 102.524 12.3649 102.402 12.495C102.279 12.625 102.186 12.78 102.129 12.9494C102.072 13.1188 102.052 13.2984 102.071 13.4761V16.6373H101.005V11.2338Z" fill="white"/>
    <path d="M111.62 9.88843V11.2583H112.79V12.1566H111.62V14.9351C111.62 15.5011 111.853 15.749 112.384 15.749C112.52 15.7485 112.655 15.7403 112.79 15.7244V16.6126C112.599 16.6469 112.405 16.6651 112.21 16.6671C111.024 16.6671 110.552 16.2499 110.552 15.2081V12.1565H109.694V11.2583H110.552V9.88843H111.62Z" fill="white"/>
    <path d="M114.247 9.12439H115.304V12.1021H115.388C115.53 11.7909 115.764 11.531 116.059 11.3578C116.354 11.1846 116.695 11.1065 117.036 11.1342C117.298 11.1199 117.559 11.1636 117.802 11.262C118.045 11.3605 118.263 11.5113 118.44 11.7037C118.618 11.8961 118.751 12.1254 118.83 12.3751C118.909 12.6249 118.932 12.889 118.897 13.1486V16.6373H117.83V13.4117C117.83 12.5486 117.428 12.1115 116.674 12.1115C116.491 12.0965 116.306 12.1217 116.134 12.1853C115.961 12.249 115.805 12.3496 115.675 12.4801C115.546 12.6105 115.446 12.7678 115.384 12.9407C115.321 13.1137 115.297 13.2982 115.314 13.4814V16.6373H114.247L114.247 9.12439Z" fill="white"/>
    <path d="M125.115 15.1783C124.971 15.6722 124.657 16.0993 124.229 16.3851C123.801 16.6709 123.286 16.7971 122.774 16.7416C122.418 16.751 122.064 16.6828 121.737 16.5418C121.41 16.4007 121.118 16.1902 120.88 15.9249C120.643 15.6595 120.466 15.3456 120.362 15.005C120.258 14.6645 120.229 14.3053 120.278 13.9525C120.231 13.5987 120.26 13.2388 120.363 12.8971C120.467 12.5555 120.643 12.2402 120.879 11.9725C121.116 11.7048 121.407 11.491 121.733 11.3456C122.059 11.2001 122.412 11.1264 122.769 11.1295C124.273 11.1295 125.18 12.1567 125.18 13.8535V14.2256H121.364V14.2854C121.348 14.4836 121.372 14.6832 121.437 14.8713C121.502 15.0594 121.606 15.2319 121.741 15.3776C121.877 15.5234 122.041 15.6392 122.224 15.7177C122.407 15.7962 122.604 15.8356 122.803 15.8334C123.058 15.864 123.317 15.818 123.546 15.7014C123.775 15.5847 123.964 15.4027 124.089 15.1783L125.115 15.1783ZM121.364 13.4369H124.094C124.107 13.2556 124.082 13.0734 124.021 12.9021C123.96 12.7309 123.864 12.5743 123.738 12.4425C123.613 12.3106 123.462 12.2065 123.294 12.1367C123.126 12.0668 122.945 12.0329 122.763 12.0371C122.579 12.0348 122.396 12.0694 122.225 12.139C122.054 12.2085 121.899 12.3115 121.769 12.442C121.638 12.5724 121.535 12.7277 121.466 12.8985C121.396 13.0694 121.362 13.2525 121.364 13.4369Z" fill="white"/>
  </g>
  <defs>
    <clipPath id="clip0_1799_6312">
      <rect width="148" height="48" fill="white" transform="translate(0.0996094)"/>
    </clipPath>
  </defs>
</svg>