<svg width="80" height="14" viewBox="0 0 80 14" fill="none"
    xmlns="http://www.w3.org/2000/svg">
    <g clip-path="url(#clip0_1520_1325)">
        <path d="M8.69033 6.68484C9.18213 6.83807 9.6232 7.04201 10.0036 7.36059C10.7182 7.95917 11.0368 8.75397 11.124 9.6546C11.2078 10.5155 11.081 11.3412 10.6024 12.0809C9.98819 13.0311 9.07958 13.5393 7.97909 13.6297C6.92493 13.7168 5.86304 13.7036 4.80446 13.7157C3.5485 13.73 2.29364 13.7223 1.03768 13.7245C0.978136 13.7245 0.91859 13.719 0.849121 13.7168V0.0849983C0.900947 0.0816912 0.953877 0.0739746 1.0057 0.0739746C3.18571 0.0827935 5.36683 0.0805888 7.54684 0.105943C9.11376 0.124683 10.4326 1.18846 10.781 2.70972C11.0313 3.80216 10.8648 4.82516 10.1371 5.71586C9.80845 6.11823 9.38943 6.39712 8.89653 6.56468C8.8447 6.58232 8.79398 6.60216 8.74326 6.62531C8.72892 6.63193 8.7201 6.65067 8.68922 6.68484H8.69033ZM3.78337 7.99555C3.78337 9.04279 3.78447 10.0327 3.78117 11.0226C3.78117 11.1362 3.84181 11.1571 3.93113 11.156C4.87393 11.1516 5.81783 11.1748 6.75842 11.1351C7.6108 11.0987 8.15883 10.5089 8.19081 9.68547C8.22389 8.84216 7.7343 8.18516 6.88413 8.10909C5.86414 8.0176 4.83423 8.02972 3.78447 7.99555H3.78337ZM3.77565 5.47775C4.70522 5.47775 5.61824 5.5009 6.52796 5.46894C7.10466 5.44909 7.58543 5.20106 7.81369 4.62342C8.19963 3.64563 7.57 2.66673 6.51803 2.63586C5.63699 2.61051 4.75484 2.62594 3.87379 2.62484C3.84512 2.62484 3.81645 2.63586 3.77455 2.64468V5.47775H3.77565Z" fill="black" />
        <path d="M40.3661 0.0969238H49.8448C49.8448 0.251255 49.8448 0.396766 49.8448 0.541176C49.8448 1.11551 49.8448 1.69094 49.8492 2.26527C49.8514 2.55519 49.7941 2.62574 49.5008 2.62685C48.913 2.62905 48.3253 2.62464 47.7365 2.62464C46.303 2.62464 44.8706 2.62354 43.4371 2.62244C43.3952 2.62244 43.3533 2.62795 43.2981 2.63125V5.48968C43.3775 5.48968 43.4492 5.48968 43.522 5.48968C44.9301 5.48637 46.3393 5.48307 47.7475 5.48086C47.7839 5.48086 47.8214 5.48086 47.8577 5.48086C48.1577 5.48748 48.2205 5.55141 48.2205 5.85346C48.2205 6.56779 48.2205 7.28212 48.2205 8.01519H43.2673V13.6824H40.365V0.0969238H40.3661Z" fill="black" />
        <path d="M58.9276 9.60815H51.5473C51.7193 10.5286 52.1769 11.2011 53.0503 11.5604C54.2919 12.0708 55.4574 11.8592 56.5777 11.2022C56.699 11.1316 56.8159 11.0522 56.9306 10.9718C57.0012 10.9222 57.0541 10.9078 57.1114 10.9938C57.4731 11.5307 57.8381 12.0642 58.2252 12.6319C57.8403 12.8634 57.4764 13.1081 57.0894 13.3099C56.4256 13.656 55.7088 13.8357 54.9645 13.9018C54.6304 13.9316 54.2941 13.9856 53.9622 13.9702C52.8363 13.9173 51.7755 13.634 50.846 12.9704C49.7312 12.1744 49.1048 11.0721 48.892 9.73382C48.7387 8.77035 48.8336 7.82011 49.1379 6.89413C49.5316 5.69917 50.2869 4.80295 51.4061 4.22752C52.6676 3.57933 53.9964 3.37318 55.3747 3.76011C57.1103 4.24736 58.1579 5.4313 58.6563 7.13114C58.8912 7.93145 58.9066 8.75712 58.9276 9.60925V9.60815ZM56.3848 7.80137C56.3892 7.17303 56.1499 6.67476 55.6791 6.29775C54.9899 5.74547 54.1893 5.58452 53.3425 5.77082C52.575 5.93948 51.9862 6.37933 51.673 7.12673C51.5826 7.34059 51.5418 7.56657 51.5903 7.80137H56.3848Z" fill="black" />
        <path d="M69.5056 9.60366H62.1859C62.2036 9.96193 62.3083 10.2772 62.4947 10.5572C63.132 11.5118 64.0517 11.8944 65.1753 11.8271C66.0905 11.772 66.9253 11.4931 67.6464 10.8813C68.0423 11.4611 68.4305 12.0278 68.8219 12.5999C68.1669 13.1202 67.4557 13.5049 66.6551 13.7056C65.9053 13.893 65.1422 14.0396 64.3682 13.9712C61.5254 13.7166 59.7655 11.9815 59.4844 9.4802C59.3542 8.315 59.4899 7.17736 60.0952 6.14665C61.0204 4.57138 62.4142 3.71594 64.238 3.58807C65.6043 3.49217 66.8349 3.85815 67.8659 4.78303C68.7194 5.54807 69.1726 6.53468 69.3975 7.64035C69.5287 8.28524 69.5276 8.93563 69.5045 9.60366H69.5056ZM66.9959 7.8013C67.0091 7.34382 66.8878 6.94587 66.6033 6.61626C65.8932 5.7961 64.9757 5.5613 63.9469 5.78067C63.1839 5.94382 62.6039 6.38366 62.294 7.12445C62.2047 7.33831 62.1606 7.56319 62.2069 7.8013H66.997H66.9959Z" fill="black" />
        <path d="M70.1738 8.81886C70.1738 7.30973 70.1738 5.79949 70.1738 4.29036C70.1738 4.2165 70.1727 4.14374 70.1749 4.06989C70.1827 3.84059 70.2179 3.80201 70.4451 3.80091C71.0692 3.7965 71.6944 3.78327 72.3186 3.7965C73.2481 3.81524 74.1799 3.82516 75.1073 3.88689C77.5232 4.04894 79.2809 5.73555 79.5467 8.14532C79.7275 9.78233 79.2842 11.2253 78.0691 12.3762C77.2266 13.1732 76.1989 13.6263 75.0444 13.6693C73.4786 13.7277 71.9106 13.7045 70.3436 13.72C70.186 13.7211 70.1716 13.6406 70.1716 13.5127C70.1749 11.9485 70.1738 10.3831 70.1738 8.81886ZM72.6725 11.5825C73.3 11.5825 73.913 11.6156 74.5217 11.5737C75.255 11.5241 75.9067 11.2463 76.3765 10.6554C76.9653 9.91461 77.1483 9.05807 77.0017 8.1354C76.8263 7.02973 76.0148 6.18091 74.9077 6.01225C74.3431 5.92626 73.7609 5.95933 73.1864 5.9417C73.0177 5.93618 72.8479 5.9417 72.6725 5.9417V11.5836V11.5825Z" fill="black" />
        <path d="M11.7105 3.87476H14.3073C14.3073 3.95743 14.3073 4.0335 14.3073 4.11066C14.3073 5.91413 14.304 7.71759 14.3073 9.51995C14.3073 9.74483 14.3249 9.97302 14.3624 10.1946C14.4705 10.8373 14.8377 11.2749 15.4442 11.5196C16.0727 11.7732 16.699 11.8184 17.3353 11.5505C18.1303 11.2154 18.5163 10.6036 18.5207 9.75916C18.5306 7.87633 18.5262 5.9935 18.5273 4.11066C18.5273 4.03791 18.5273 3.96515 18.5273 3.87476H21.0899C21.0954 3.90562 21.1076 3.93869 21.1076 3.97287C21.1054 6.03318 21.1307 8.0935 21.0899 10.1527C21.0513 12.0918 19.6873 13.559 17.7664 13.8677C17.1081 13.9735 16.4454 14.0308 15.7926 13.9625C14.3746 13.8137 13.0866 13.3694 12.2761 12.073C11.8693 11.4215 11.7028 10.7006 11.7005 9.94216C11.6939 7.96783 11.6972 5.9935 11.6983 4.01917C11.6983 3.97728 11.705 3.93539 11.7105 3.87476Z" fill="black" />
        <path d="M21.9292 13.6748C21.9292 13.2041 21.9479 12.7411 21.9236 12.2792C21.9038 11.9011 22.0317 11.6123 22.2677 11.3179C23.56 9.70408 24.8347 8.07589 26.1139 6.45211C26.1966 6.34738 26.2715 6.23494 26.373 6.09494H21.96V3.86597H29.9159C29.9159 3.86597 29.9358 3.8803 29.9358 3.88912C29.9413 4.37746 29.9578 4.86691 29.9435 5.35526C29.9347 5.65841 29.7748 5.90975 29.5873 6.14455C28.4593 7.56108 27.3334 8.97872 26.2076 10.3964C25.9496 10.7205 25.6948 11.0479 25.4114 11.4083H29.9832V13.6748H21.9281H21.9292Z" fill="black" />
        <path d="M34.18 11.4381C34.2936 11.4381 34.3597 11.4381 34.4248 11.4381C35.7601 11.437 37.0955 11.4348 38.4308 11.4348C38.755 11.4348 38.8069 11.4888 38.8058 11.8041C38.8025 12.3729 38.8002 12.9406 38.7969 13.5094C38.7969 13.5634 38.7914 13.6175 38.7881 13.6825H30.722C30.722 13.376 30.722 13.0773 30.722 12.7797C30.722 12.4986 30.712 12.2164 30.7319 11.9364C30.7407 11.8118 30.7837 11.6707 30.8587 11.5737C32.2271 9.82533 33.6033 8.0825 34.9772 6.33856C35.0324 6.26801 35.0864 6.19635 35.1669 6.09163H30.7308V3.86816H38.6911C38.6955 3.92549 38.7032 3.9784 38.7032 4.03021C38.7032 4.50753 38.6966 4.98375 38.7032 5.46108C38.7054 5.62974 38.6547 5.76423 38.5499 5.89651C37.2157 7.57761 35.8836 9.26202 34.5527 10.9464C34.4358 11.0941 34.3244 11.2474 34.18 11.4381Z" fill="black" />
        <path d="M3.78334 7.99536C4.8331 8.02953 5.86301 8.01631 6.88299 8.1089C7.73316 8.18497 8.22275 8.84087 8.18967 9.68528C8.1577 10.5087 7.60966 11.0985 6.75728 11.1349C5.81669 11.1746 4.87279 11.1514 3.92999 11.1558C3.84178 11.1558 3.78003 11.136 3.78003 11.0224C3.78334 10.0325 3.78224 9.04371 3.78224 7.99536H3.78334Z" fill="white" />
        <path d="M3.77563 5.47766V2.64459C3.81754 2.63577 3.84621 2.62475 3.87488 2.62475C4.75592 2.62585 5.63807 2.61042 6.51912 2.63577C7.57108 2.66553 8.20072 3.64443 7.81478 4.62333C7.58652 5.20097 7.10465 5.449 6.52904 5.46884C5.61822 5.50081 4.7063 5.47766 3.77674 5.47766H3.77563Z" fill="white" />
    </g>
    <defs>
        <clipPath id="clip0_1520_1325">
            <rect width="78.8421" height="14" fill="white" transform="translate(0.772949)" />
        </clipPath>
    </defs>
</svg>