<svg xmlns="http://www.w3.org/2000/svg" width="161" height="49" viewBox="0 0 161 49" fill="none">
  <path d="M155.037 47.6871H5.96296C2.6237 47.6871 0 45.0644 0 41.7262V5.96089C0 2.62279 2.6237 0 5.96296 0H155.037C158.376 0 161 2.62279 161 5.96089V41.7262C161 45.0644 158.376 47.6871 155.037 47.6871Z" fill="black"/>
  <path d="M56.2165 11.9442C56.2165 12.8979 55.9779 13.7325 55.3817 14.3286C54.6661 15.0439 53.8313 15.4015 52.7579 15.4015C51.6846 15.4015 50.8498 15.0439 50.1342 14.3286C49.4187 13.6132 49.0609 12.7787 49.0609 11.7058C49.0609 10.6328 49.4187 9.79828 50.1342 9.08297C50.8498 8.36766 51.6846 8.01001 52.7579 8.01001C53.235 8.01001 53.712 8.12923 54.1891 8.36766C54.6661 8.6061 55.0239 8.84453 55.2624 9.20219L54.6661 9.79828C54.1891 9.20219 53.5928 8.96375 52.7579 8.96375C52.0424 8.96375 51.3268 9.20219 50.8498 9.79828C50.2535 10.2751 50.015 10.9905 50.015 11.825C50.015 12.6595 50.2535 13.3748 50.8498 13.8517C51.4461 14.3286 52.0424 14.6862 52.7579 14.6862C53.5928 14.6862 54.1891 14.4478 54.7854 13.8517C55.1431 13.494 55.3817 13.0172 55.3817 12.4211H52.7579V11.4673H56.2165V11.9442ZM61.7024 8.96375H58.4824V11.2289H61.4639V12.0634H58.4824V14.3286H61.7024V15.2823H57.5283V8.12923H61.7024V8.96375ZM65.6379 15.2823H64.6839V8.96375H62.6565V8.12923H67.6654V8.96375H65.6379V15.2823ZM71.1239 15.2823V8.12923H72.0779V15.2823H71.1239ZM76.1328 15.2823H75.1787V8.96375H73.1513V8.12923H78.0409V8.96375H76.0135V15.2823H76.1328ZM87.4624 14.3286C86.7468 15.0439 85.912 15.4015 84.8387 15.4015C83.7654 15.4015 82.9305 15.0439 82.215 14.3286C81.4994 13.6132 81.1417 12.7787 81.1417 11.7058C81.1417 10.6328 81.4994 9.79828 82.215 9.08297C82.9305 8.36766 83.7654 8.01001 84.8387 8.01001C85.912 8.01001 86.7468 8.36766 87.4624 9.08297C88.1779 9.79828 88.5357 10.6328 88.5357 11.7058C88.5357 12.7787 88.1779 13.6132 87.4624 14.3286ZM82.9305 13.7325C83.4076 14.2093 84.1231 14.567 84.8387 14.567C85.5542 14.567 86.2698 14.3286 86.7468 13.7325C87.2239 13.2556 87.5816 12.5403 87.5816 11.7058C87.5816 10.8712 87.3431 10.1559 86.7468 9.67906C86.2698 9.20219 85.5542 8.84453 84.8387 8.84453C84.1231 8.84453 83.4076 9.08297 82.9305 9.67906C82.4535 10.1559 82.0957 10.8712 82.0957 11.7058C82.0957 12.5403 82.3342 13.2556 82.9305 13.7325ZM89.8476 15.2823V8.12923H90.9209L94.3794 13.7325V8.12923H95.3335V15.2823H94.3794L90.6824 9.44062V15.2823H89.8476Z" fill="white" stroke="white" stroke-width="0.3" stroke-miterlimit="10"/>
  <path d="M81.2609 26.6294C78.3987 26.6294 76.1328 28.7753 76.1328 31.7557C76.1328 34.617 78.3987 36.8821 81.2609 36.8821C84.1231 36.8821 86.3891 34.7362 86.3891 31.7557C86.3891 28.6561 84.1231 26.6294 81.2609 26.6294ZM81.2609 34.7362C79.7105 34.7362 78.3987 33.4248 78.3987 31.6365C78.3987 29.8482 79.7105 28.5368 81.2609 28.5368C82.8113 28.5368 84.1231 29.729 84.1231 31.6365C84.1231 33.4248 82.8113 34.7362 81.2609 34.7362ZM70.1698 26.6294C67.3076 26.6294 65.0417 28.7753 65.0417 31.7557C65.0417 34.617 67.3076 36.8821 70.1698 36.8821C73.032 36.8821 75.2979 34.7362 75.2979 31.7557C75.2979 28.6561 73.032 26.6294 70.1698 26.6294ZM70.1698 34.7362C68.6194 34.7362 67.3076 33.4248 67.3076 31.6365C67.3076 29.8482 68.6194 28.5368 70.1698 28.5368C71.7202 28.5368 73.032 29.729 73.032 31.6365C73.032 33.4248 71.7202 34.7362 70.1698 34.7362ZM56.932 28.1792V30.3251H62.0602C61.9409 31.5173 61.4639 32.471 60.8676 33.0671C60.152 33.7824 58.9594 34.617 56.932 34.617C53.712 34.617 51.3268 32.1134 51.3268 28.8945C51.3268 25.6756 53.8313 23.172 56.932 23.172C58.6017 23.172 59.9135 23.8874 60.8676 24.7219L62.4179 23.172C61.1061 21.9799 59.4365 21.0261 57.0513 21.0261C52.758 21.0261 49.0609 24.6027 49.0609 28.8945C49.0609 33.1863 52.758 36.7629 57.0513 36.7629C59.4365 36.7629 61.1061 36.0476 62.5372 34.4977C63.9683 33.0671 64.4454 31.0404 64.4454 29.4906C64.4454 29.0137 64.4454 28.5368 64.3261 28.1792H56.932ZM111.076 29.8482C110.599 28.6561 109.406 26.6294 106.782 26.6294C104.159 26.6294 102.012 28.6561 102.012 31.7557C102.012 34.617 104.159 36.8821 107.021 36.8821C109.287 36.8821 110.718 35.4515 111.195 34.617L109.525 33.4248C108.929 34.2593 108.214 34.8554 107.021 34.8554C105.828 34.8554 105.113 34.3785 104.516 33.3056L111.314 30.4443L111.076 29.8482ZM104.159 31.5173C104.159 29.6098 105.709 28.5368 106.782 28.5368C107.617 28.5368 108.452 29.0137 108.691 29.6098L104.159 31.5173ZM98.5535 36.4052H100.819V21.503H98.5535V36.4052ZM94.9757 27.7023C94.3794 27.1062 93.4254 26.5101 92.2328 26.5101C89.7283 26.5101 87.3431 28.7753 87.3431 31.6365C87.3431 34.4977 89.6091 36.6437 92.2328 36.6437C93.4254 36.6437 94.3794 36.0476 94.8565 35.4515H94.9757V36.1668C94.9757 38.0743 93.9024 39.1472 92.2328 39.1472C90.9209 39.1472 89.9668 38.1935 89.7283 37.359L87.8202 38.1935C88.4165 39.5049 89.8476 41.1739 92.352 41.1739C94.9757 41.1739 97.1224 39.6241 97.1224 35.9284V26.8678H94.9757V27.7023ZM92.352 34.7362C90.8017 34.7362 89.4898 33.4248 89.4898 31.6365C89.4898 29.8482 90.8017 28.5368 92.352 28.5368C93.9024 28.5368 95.095 29.8482 95.095 31.6365C95.095 33.4248 93.9024 34.7362 92.352 34.7362ZM121.451 21.503H116.085V36.4052H118.351V30.802H121.451C123.956 30.802 126.341 29.0137 126.341 26.1525C126.341 23.2913 123.956 21.503 121.451 21.503ZM121.571 28.6561H118.351V23.5297H121.571C123.24 23.5297 124.194 24.9603 124.194 26.0333C124.075 27.3447 123.121 28.6561 121.571 28.6561ZM135.285 26.5101C133.616 26.5101 131.946 27.2255 131.35 28.7753L133.377 29.6098C133.854 28.7753 134.57 28.5368 135.405 28.5368C136.597 28.5368 137.671 29.2522 137.79 30.4443V30.5636C137.432 30.3251 136.478 29.9675 135.524 29.9675C133.377 29.9675 131.231 31.1596 131.231 33.3056C131.231 35.3323 133.019 36.6437 134.928 36.6437C136.478 36.6437 137.194 35.9284 137.79 35.213H137.909V36.4052H140.056V30.6828C139.817 28.06 137.79 26.5101 135.285 26.5101ZM135.047 34.7362C134.331 34.7362 133.258 34.3785 133.258 33.4248C133.258 32.2326 134.57 31.8749 135.643 31.8749C136.597 31.8749 137.074 32.1134 137.671 32.3518C137.432 33.7824 136.239 34.7362 135.047 34.7362ZM147.569 26.8678L145.065 33.3056H144.945L142.322 26.8678H139.936L143.872 35.9284L141.606 40.9355H143.872L149.954 26.8678H147.569ZM127.534 36.4052H129.799V21.503H127.534V36.4052Z" fill="white"/>
  <path d="M12.4919 9.01123C12.1342 9.36888 12.0149 9.96497 12.0149 10.6803V37.0274C12.0149 37.7427 12.2534 38.3388 12.6112 38.6965L12.7304 38.8157L27.5186 24.0327V23.7942L12.4919 9.01123Z" fill="url(#paint0_linear_1934_5073)"/>
  <path d="M31.9232 29.1572L27.0336 24.2693V23.9116L31.9232 19.0237L32.0425 19.1429L37.8862 22.481C39.5558 23.4347 39.5558 24.9846 37.8862 25.9383L31.9232 29.1572Z" fill="url(#paint1_linear_1934_5073)"/>
  <path d="M31.9312 29.0371L26.9223 24.0299L12.0149 38.9321C12.6112 39.5282 13.446 39.5282 14.5193 39.0514L31.9312 29.0371Z" fill="url(#paint2_linear_1934_5073)"/>
  <path d="M31.9312 19.2982L14.5193 9.40313C13.446 8.80704 12.6112 8.92626 12.0149 9.52235L26.9223 24.3054L31.9312 19.2982Z" fill="url(#paint3_linear_1934_5073)"/>
  <path opacity="0.2" d="M31.8119 29.0361L14.5193 38.812C13.5653 39.4081 12.7304 39.2889 12.1342 38.812L12.0149 38.9312L12.1342 39.0504C12.7304 39.5273 13.5653 39.6465 14.5193 39.0504L31.8119 29.0361Z" fill="black"/>
  <path opacity="0.12" d="M12.4919 38.6937C12.1342 38.3361 12.0149 37.74 12.0149 37.0247V37.1439C12.0149 37.8592 12.2534 38.4553 12.6112 38.8129V38.6937H12.4919ZM38.2519 25.5797L32.289 28.9178L32.4082 29.0371L38.2519 25.699C39.0867 25.2221 39.4445 24.626 39.4445 24.0299C39.4445 24.626 38.9675 25.1029 38.2519 25.5797Z" fill="black"/>
  <path opacity="0.25" d="M14.9964 9.55106L38.2519 22.7842C38.9675 23.2611 39.4445 23.738 39.4445 24.3341C39.4445 23.738 39.0867 23.1419 38.2519 22.665L14.9964 9.43184C13.3267 8.4781 12.0149 9.19341 12.0149 11.1009V11.2201C12.0149 9.43184 13.3267 8.59732 14.9964 9.55106Z" fill="white"/>
  <defs>
    <linearGradient id="paint0_linear_1934_5073" x1="26.0875" y1="10.4538" x2="6.07915" y2="30.4679" gradientUnits="userSpaceOnUse">
      <stop stop-color="#00A0FF"/>
      <stop offset="0.007" stop-color="#00A1FF"/>
      <stop offset="0.26" stop-color="#00BEFF"/>
      <stop offset="0.512" stop-color="#00D2FF"/>
      <stop offset="0.76" stop-color="#00DFFF"/>
      <stop offset="1" stop-color="#00E3FF"/>
    </linearGradient>
    <linearGradient id="paint1_linear_1934_5073" x1="40.0734" y1="24.032" x2="11.2162" y2="24.032" gradientUnits="userSpaceOnUse">
      <stop stop-color="#FFE000"/>
      <stop offset="0.409" stop-color="#FFBD00"/>
      <stop offset="0.775" stop-color="#FFA500"/>
      <stop offset="1" stop-color="#FF9C00"/>
    </linearGradient>
    <linearGradient id="paint2_linear_1934_5073" x1="29.2204" y1="26.7671" x2="2.08883" y2="53.9082" gradientUnits="userSpaceOnUse">
      <stop stop-color="#FF3A44"/>
      <stop offset="1" stop-color="#C31162"/>
    </linearGradient>
    <linearGradient id="paint3_linear_1934_5073" x1="8.31428" y1="0.671614" x2="20.4304" y2="12.7919" gradientUnits="userSpaceOnUse">
      <stop stop-color="#32A071"/>
      <stop offset="0.069" stop-color="#2DA771"/>
      <stop offset="0.476" stop-color="#15CF74"/>
      <stop offset="0.801" stop-color="#06E775"/>
      <stop offset="1" stop-color="#00F076"/>
    </linearGradient>
  </defs>
</svg>