<svg width="88" height="17" viewBox="0 0 88 17" fill="none"
    xmlns="http://www.w3.org/2000/svg">
    <g clip-path="url(#clip0_6134_91001)">
        <path d="M0.375488 16.3332V14.8145H84.4643V16.3332H0.375488Z" fill="black" />
        <path d="M84.5056 11.6105H82.3234C82.3234 10.7547 82.3002 9.9334 82.3305 9.11314C82.3557 8.40963 82.2416 7.75992 81.9587 7.10615C81.4243 5.87069 80.9636 4.60375 80.4554 3.35712C80.3968 3.21398 80.2291 3.02008 80.1058 3.015C79.3037 2.98455 78.4985 2.99876 77.6307 2.99876V11.6074H75.5727V3.01297H72.9409V1.35317C73.0662 1.34403 73.2097 1.32576 73.3531 1.32576C76.094 1.32373 78.8349 1.3288 81.5758 1.31764C81.891 1.31662 82.0385 1.39581 82.1456 1.71761C82.5386 2.89928 82.974 4.06571 83.3953 5.23722C83.4266 5.32452 83.4691 5.40777 83.5509 5.5976C84.0005 4.41797 84.4137 3.34189 84.8218 2.26378C85.0589 1.63775 85.5078 1.32474 86.1686 1.32474H87.3516C86.9919 2.18358 86.6565 2.99876 86.311 3.80887C85.7624 5.09408 85.1987 6.37218 84.6612 7.66246C84.5612 7.90306 84.5167 8.18223 84.5127 8.44415C84.4965 9.48673 84.5056 10.5303 84.5056 11.6105Z" fill="black" />
        <path d="M42.3709 8.29994V1.35717H44.34V11.6064C43.4721 11.6064 42.6174 11.6195 41.7637 11.5901C41.6466 11.586 41.4849 11.3861 41.4314 11.2439C40.6231 9.08466 39.8301 6.92032 39.033 4.75699C38.9632 4.56816 38.8875 4.38239 38.743 4.20067V11.5678H36.7437V1.3257C37.6529 1.3257 38.5389 1.31251 39.4229 1.34195C39.5381 1.34601 39.6927 1.55412 39.7482 1.69929C40.5474 3.77125 41.3324 5.84931 42.1214 7.92534C42.1719 8.05833 42.2285 8.18928 42.283 8.32227L42.3709 8.29994Z" fill="black" />
        <path d="M54.3487 1.34617C55.8378 1.34617 57.3017 1.27612 58.7565 1.36342C60.6579 1.47712 61.6793 3.3288 60.8852 5.08403C60.6094 5.69415 60.1154 6.04235 59.4819 6.21595C59.4991 6.24843 59.5062 6.28701 59.5223 6.29107C61.0509 6.66161 61.3459 7.72856 61.2125 9.38024C61.1155 10.5842 60.2144 11.4573 58.8697 11.5294C57.3815 11.6096 55.8853 11.5476 54.3477 11.5476V1.34515L54.3487 1.34617ZM56.4733 10.0157C57.0178 10.0157 57.5028 10.0462 57.9827 10.0086C58.6434 9.95686 59.0414 9.49699 59.098 8.7955C59.1738 7.86763 58.899 7.30929 58.1938 7.18138C57.6331 7.07986 57.0481 7.11133 56.4733 7.0829V10.0157ZM56.4844 2.90446V5.49213C56.9471 5.49213 57.3785 5.50634 57.8089 5.48908C58.5727 5.45863 58.9859 5.00992 58.996 4.22621C59.0051 3.48006 58.5626 2.95826 57.8372 2.90953C57.4048 2.88009 56.9693 2.90446 56.4844 2.90446Z" fill="black" />
        <path d="M7.07066 11.576H4.9319V7.04429H2.51732V11.5618H0.374512V1.35425H2.47691V5.38245H4.93089V1.35425H7.07167V11.575L7.07066 11.576Z" fill="black" />
        <path d="M45.7735 6.34774C45.8391 5.51429 45.8593 4.6524 45.9826 3.80474C46.2291 2.10331 47.2212 1.22823 48.9377 1.13585C49.3054 1.11554 49.6812 1.10844 50.0439 1.16326C51.8331 1.43228 52.6717 2.28299 52.797 4.26867C52.899 5.87569 52.8525 7.50402 52.7232 9.11003C52.601 10.6257 51.718 11.4784 50.2026 11.6784C49.5166 11.7688 48.7861 11.7474 48.1072 11.6134C46.804 11.3556 46.1685 10.3993 45.9907 9.1486C45.8604 8.23393 45.8432 7.302 45.7725 6.34876L45.7735 6.34774ZM47.9294 6.43403C48.0214 7.38322 48.0668 8.34357 48.2234 9.28565C48.3386 9.97901 48.7498 10.2491 49.3812 10.2399C49.9783 10.2308 50.3824 9.93942 50.5046 9.29174C50.8532 7.4553 50.8269 5.60565 50.5218 3.7692C50.3915 2.98651 49.9914 2.6982 49.3398 2.70632C48.7215 2.71444 48.3194 3.0261 48.2002 3.7621C48.0577 4.63819 48.0163 5.53154 47.9294 6.43403Z" fill="black" />
        <path d="M25.5719 7.04318H23.0835V11.578H20.968V1.35517H23.0734V5.38642H25.5567V1.3501H27.6793V11.5729H25.5729V7.0442L25.5719 7.04318Z" fill="black" />
        <path d="M19.3264 4.44546H17.2685C17.222 4.14091 17.1937 3.84346 17.13 3.55312C17.0139 3.02523 16.6492 2.71865 16.1076 2.66282C15.5873 2.60901 15.1034 2.84352 14.9509 3.36227C14.7761 3.95412 14.6468 4.57845 14.6296 5.19263C14.5993 6.30424 14.666 7.41788 14.6943 8.53051C14.6973 8.63102 14.7145 8.73152 14.7296 8.83202C14.9286 10.1284 15.3742 10.5253 16.9553 10.1528C17.0654 10.1264 17.2099 9.93754 17.2139 9.81978C17.2392 9.16601 17.226 8.51021 17.226 7.81177H16.1097V6.22506H19.3466V11.4298C17.8221 11.7009 16.3077 11.9435 14.7599 11.6105C13.4193 11.3212 12.7131 10.4066 12.6181 9.12845C12.4979 7.50417 12.4514 5.85757 12.5706 4.23532C12.7828 1.35426 15.0145 0.799975 17.1897 1.26289C18.7202 1.58876 19.4537 2.75723 19.3254 4.44546H19.3264Z" fill="black" />
        <path d="M28.8241 8.433H30.9356C30.9669 8.72435 30.9881 9.00657 31.0295 9.28473C31.1396 10.0207 31.7387 10.4024 32.4803 10.2167C33.0834 10.0654 33.4795 9.38726 33.1845 8.7812C32.9773 8.35585 32.5843 7.98429 32.1964 7.69192C31.6084 7.24829 30.9335 6.92344 30.3314 6.49707C29.2676 5.74279 28.7786 4.71239 28.9877 3.39064C29.1585 2.30948 29.7758 1.55622 30.8254 1.36029C31.6822 1.20091 32.6035 1.15827 33.4603 1.29228C34.8302 1.50749 35.5142 2.73382 35.2353 4.21902H33.2501C33.2279 4.04542 33.2057 3.86472 33.1804 3.68504C33.1198 3.2678 33.0026 2.87392 32.5449 2.74397C32.1267 2.6252 31.7054 2.62215 31.3862 2.98965C31.0487 3.37846 31.0134 3.85863 31.2599 4.26166C31.4781 4.61798 31.8196 4.92761 32.1681 5.16922C32.8298 5.62706 33.5653 5.97933 34.217 6.44935C35.5071 7.37925 35.8284 9.26646 34.9797 10.6105C34.611 11.1933 34.0392 11.5191 33.4087 11.6115C32.6197 11.7283 31.7963 11.7861 31.0073 11.6968C29.6262 11.5415 28.8756 10.6248 28.8261 9.22991C28.817 8.98018 28.8251 8.72943 28.8251 8.433H28.8241Z" fill="black" />
        <path d="M72.2793 11.5545H66.6257V1.34595H72.1732V2.95906H68.7726V5.42186H71.8944V6.98219H68.7716V9.99928H72.2793V11.5535V11.5545Z" fill="black" />
        <path d="M8.89624 11.5616V1.35913H10.9926V11.5616H8.89624Z" fill="black" />
        <path d="M64.8185 11.5769H62.7454V1.36328H64.8185V11.5769Z" fill="black" />
    </g>
    <defs>
        <clipPath id="clip0_6134_91001">
            <rect width="87.619" height="16" fill="white" transform="translate(0 0.59668)" />
        </clipPath>
    </defs>
</svg>