<svg width="94" height="12" viewBox="0 0 94 12" fill="none"
    xmlns="http://www.w3.org/2000/svg">
    <g clip-path="url(#clip0_1321_1687)">
        <path d="M32.7723 4.94819C33.1447 5.13112 33.5637 5.22258 34.0292 5.22258C34.4947 5.22258 34.9603 5.13112 35.3327 4.94819C35.7051 4.76526 35.8913 4.5366 35.8913 4.30794C35.8913 4.03355 35.7051 3.85063 35.3327 3.6677C34.9603 3.48477 34.5413 3.39331 34.0292 3.39331C33.5171 3.39331 33.0982 3.48477 32.7723 3.6677C32.3999 3.85063 32.2603 4.03355 32.2603 4.30794C32.2603 4.58233 32.4465 4.81099 32.7723 4.94819ZM58.7016 4.94819C59.074 5.13112 59.493 5.22258 60.0051 5.22258C60.5171 5.22258 60.9361 5.13112 61.262 4.94819C61.6344 4.76526 61.774 4.5366 61.774 4.30794C61.774 4.03355 61.5878 3.8049 61.262 3.6677C60.9361 3.53051 60.4706 3.39331 60.0051 3.39331C59.493 3.39331 59.074 3.48477 58.7016 3.6677C58.3292 3.85063 58.1896 4.07929 58.1896 4.30794C58.1896 4.5366 58.3758 4.76526 58.7016 4.94819Z" fill="black" />
        <path d="M92.1259 9.93296H69.9207C65.2655 9.33844 64.8465 7.37198 64.7069 6.64027V6.09149V6.04576C65.1259 3.89637 66.8017 2.70735 69.8741 2.38722H92.0793C92.5914 2.38722 93.0103 1.97564 93.0103 1.47259C93.0103 0.96954 92.5914 0.557955 92.0793 0.557955H69.6879C64.7069 1.061 63.2172 3.62198 62.7983 5.72564C62.7517 5.8171 62.7052 5.9543 62.7517 6.09149L62.7983 6.91466V7.00613C62.9379 7.8293 63.2638 8.561 63.7293 9.15552L59.5397 6.86893L47.6224 0.283565C47.3431 0.054906 46.8776 0.00917424 46.5517 0.192101L30.4914 9.38418V1.15247C30.4914 0.649418 30.0724 0.237833 29.5603 0.237833C29.4672 0.237833 29.3741 0.237833 29.281 0.283565C29.1414 0.283565 29.0017 0.329296 28.9086 0.375028L14.6638 7.05186C14.5707 7.09759 14.5241 7.14332 14.4776 7.18905L12.9414 7.92076L14.5707 8.74393C14.7103 8.83539 14.85 8.83539 14.9897 8.83539C15.1293 8.83539 15.3155 8.83539 15.4552 8.74393L28.5828 2.52442V10.8476C28.5828 11.122 28.7224 11.3506 28.9086 11.5336C29.1879 11.8994 29.7 11.9452 30.119 11.7622L35.7983 8.51527H35.8448L39.0569 6.64027L47.0638 2.0671L55.4897 6.64027H40.6862L37.4276 8.51527H58.8414L64.9862 11.8994C65.4517 12.1281 66.0103 11.9909 66.2896 11.5336C66.3828 11.3506 66.4293 11.1677 66.3828 10.9848C67.3138 11.3506 68.431 11.625 69.7345 11.7622H92.1724C92.6845 11.7622 93.1034 11.3506 93.1034 10.8476C93.1034 10.3445 92.6845 9.93296 92.1724 9.93296H92.1259ZM1.39655 0.100638C0.931034 -0.128021 0.372414 0.0549059 0.139655 0.512223C0.0931034 0.649418 0.0465517 0.786613 0.0465517 0.923809C0 1.01527 0 1.10674 0 1.1982V10.9391C0 11.4421 0.418965 11.8537 0.931034 11.8537C1.4431 11.8537 1.86207 11.4421 1.86207 10.9391V2.43296L12.0103 7.46344L14.1517 6.41161L1.39655 0.100638Z" fill="black" />
    </g>
    <defs>
        <clipPath id="clip0_1321_1687">
            <rect width="93.1034" height="12" fill="white" />
        </clipPath>
    </defs>
</svg>