<svg width="45" height="32" viewBox="0 0 45 32" fill="none"
    xmlns="http://www.w3.org/2000/svg">
    <path d="M28.8215 0.251465C28.3693 1.56252 27.1235 4.46369 26.4729 4.36195C25.9438 4.31091 25.5256 2.92176 25.4344 2.38122C25.3254 2.88486 25.0537 4.06715 24.2583 4.18249C23.4647 4.29837 22.3834 2.38964 21.9294 0.985084C21.8615 3.49168 21.4396 4.60052 21.1054 4.60751C20.4369 4.62148 19.9186 3.96183 19.3931 3.46839C19.654 3.89055 20.0258 5.16954 19.5379 5.56555C19.0517 5.96155 15.787 3.6346 15.0722 2.92033C15.8771 4.10906 17.3151 6.9135 16.8913 7.61757C16.4675 8.32182 14.9872 8.01644 14.728 7.88981C14.8971 8.02987 15.9213 9.21448 15.0426 9.40559C13.862 9.66153 10.6329 8.9066 10.4602 8.86576C11.2328 9.14463 14.6233 11.1558 14.4109 11.9281C14.2254 12.6017 12.8487 12.3707 12.3055 12.3635C12.7903 12.5915 13.9433 13.0554 13.8036 13.7086C13.6643 14.3625 10.4216 15.0967 9.42017 15.308C10.555 15.5602 13.4253 16.0089 13.4673 16.8843C13.5094 17.762 11.7093 18.9745 11.7093 18.9745C11.7093 18.9745 13.3081 19.048 13.6516 19.2342C14.155 19.5065 13.7678 20.5292 13.3224 21.0611C13.9317 20.7781 14.5266 20.4127 15.1471 19.9524C14.6333 18.6844 14.35 17.2963 14.35 15.8436C14.35 9.80607 19.234 4.91145 25.2593 4.91145C27.4685 4.91145 29.5222 5.56967 31.2417 6.69965C32.0013 6.41577 32.7377 6.21015 33.4509 6.07009C33.4044 5.78101 33.4419 5.47331 33.6171 5.08877C32.9915 5.60585 31.3847 6.06615 30.9217 5.6268C30.457 5.18746 31.2363 3.35215 31.6349 2.59328C30.9771 3.37759 29.8189 4.77766 29.1183 4.50076C28.4158 4.2244 28.8913 0.899113 28.8215 0.251465ZM37.2348 13.3529C36.8737 13.6973 36.4859 14.0665 36.0819 14.4478C36.1391 14.9043 36.1695 15.3705 36.1695 15.8436C36.1695 21.8814 31.2864 26.7764 25.2593 26.7764C22.8749 26.7764 20.6675 26.008 18.8712 24.7059C18.049 24.8671 17.2325 24.9603 16.4085 25.0032C16.2764 25.7501 15.7323 26.5185 15.402 27.2259C17.3919 25.3829 18.4922 25.4492 18.8783 25.6623C19.2644 25.8737 19.1661 27.6307 19.0517 28.1501C19.3627 27.74 20.8105 26.8373 21.2394 27.0343C21.6666 27.2295 21.4736 31.1842 21.4754 31.9955C21.9544 30.9478 23.5362 27.7239 24.2172 27.7239C24.8964 27.7239 25.3469 28.9418 25.4523 29.497C25.5989 28.9436 26.3692 27.4946 27.0574 27.4176C27.7437 27.3406 28.4873 29.4684 28.9431 30.5251C28.977 29.626 28.9091 27.5179 29.4614 27.2994C30.0137 27.0827 30.6518 27.8098 31.0236 28.263C30.9235 27.6397 30.8288 26.411 31.2131 26.1585C31.5956 25.9077 34.3035 28.1107 35.2919 29.094C35.0488 28.4797 32.9057 25.1985 33.2918 24.3047C33.6439 23.4916 35.837 24.1167 36.2571 24.242C35.6833 23.7907 35.056 22.2737 35.2972 21.7829C35.5385 21.2922 39.1723 22.0086 40.6952 22.4384C39.4708 21.9584 36.1266 19.9166 36.3661 19.3077C36.6056 18.6987 38.7505 18.4748 39.4029 18.4748C39.2098 18.3799 37.8407 17.6241 37.3706 17.0742C36.9005 16.5226 39.3725 15.4972 40.7863 15.3048C39.5208 15.2024 37.1383 15.0055 37.1132 14.0837C37.1061 13.7896 37.1526 13.5508 37.2348 13.3529Z" fill="black" />
    <path d="M42.3217 6.00602C42.2198 6.00494 42.1179 6.00942 42.0143 6.01981C41.1831 6.10255 39.5155 6.70435 39.5155 6.70435C36.4716 5.91234 32.8593 5.82315 28.4266 8.52586C27.599 9.03076 26.8429 9.55268 26.1441 10.085C25.4452 10.6173 24.8017 11.1591 24.203 11.7028C23.9438 11.9371 23.6113 12.2375 23.3271 12.526C21.8883 13.0067 21.2502 12.557 19.2733 12.8174C17.7094 13.0236 17.1017 13.5586 16.7572 13.9788C16.7127 14.0996 16.7172 14.2062 16.7985 14.2712C16.9853 14.4215 17.274 14.3463 17.822 14.3054C18.3689 14.2653 19.1983 14.2788 19.7452 14.6214C20.0973 14.841 20.2582 15.3717 20.3154 15.6652C19.9061 16.1006 19.5039 16.5226 19.0982 16.9238C16.601 19.4008 14.9203 20.8767 13.0397 21.6128C8.95941 23.214 6.66065 21.3334 5.74014 20.78H5.73943C4.62249 20.0617 3.14092 19.8253 2.34607 19.6749C1.55122 19.5262 1.11653 19.1411 0.946941 18.9961C0.7773 18.851 0.647161 18.6074 0.454016 18.6629C0.404523 18.6772 0.361143 18.6916 0.330078 18.722C0.361143 18.6934 0.404523 18.6772 0.454016 18.6629C0.483936 19.0086 1.64148 21.894 5.31839 22.417C6.36937 22.5674 6.70344 22.5191 6.89987 22.5047C6.28161 21.9603 5.77185 21.2009 5.7286 21.1561C5.86908 21.2797 6.00957 21.3961 6.15006 21.5071C7.24734 22.6803 8.49458 23.1656 9.54217 23.3412C9.6108 23.3627 10.6446 23.4074 10.6446 23.4074C11.8506 23.3806 13.4694 23.0259 14.9721 22.5889C19.3842 21.3065 23.64 17.4754 23.64 17.4754C23.64 17.4754 23.4023 18.5089 23.3111 18.8743C23.2504 19.1626 23.0341 20.1298 22.6266 21.1435C22.6266 21.1435 22.505 21.4498 22.3281 21.8224C22.0653 22.3758 21.6971 23.0707 21.6971 23.3627C21.6971 23.377 21.6989 23.3895 21.7007 23.4003C21.7007 23.4003 21.7025 23.4325 21.7168 23.4719C22.0474 23.2964 22.4979 22.9901 23.0108 22.5567C23.8152 21.8868 24.8322 20.8659 26.0101 19.4098C28.6572 16.1372 29.0772 13.8974 30.9397 12.1547C31.7261 11.4163 33.7977 10.2754 34.8577 9.9048C34.8702 9.89835 34.8791 9.89459 34.8827 9.89316L34.8845 9.89262C36.6754 8.86742 38.4289 8.07505 38.7148 7.95989C39.7622 7.53702 43.4496 6.31014 43.8375 6.92017H43.8393C43.6963 6.30512 43.0349 6.01425 42.3217 6.00602ZM38.7005 7.16501C38.7058 7.16644 38.7112 7.16949 38.713 7.17522C38.7326 7.21982 38.5485 7.32424 37.9712 7.56102C37.5494 7.73421 37.1633 7.84006 36.5377 7.99553C36.25 8.08275 35.8424 8.21386 35.8424 8.21386C35.8406 8.21117 35.8406 8.20795 35.8389 8.20544C35.1328 8.44598 33.9407 8.92025 33.5599 9.48193C33.576 9.45059 33.8173 8.95357 34.0157 8.67344C34.1802 8.42073 34.5484 7.94144 35.0953 7.70197C35.8585 7.3683 36.3554 7.42042 36.7075 7.42042C37.0579 7.42042 37.8818 7.39498 38.2161 7.31403C38.5092 7.24328 38.6558 7.15552 38.7005 7.16501ZM34.1033 15.6692C33.5617 16.1574 33.0166 16.6354 32.4857 17.0778C32.0693 17.4253 31.5992 17.8014 31.0737 18.1954C30.911 20.2552 30.4946 21.2331 30.4981 21.4229C30.5017 21.5286 30.5321 21.6325 30.6125 21.6809C31.0987 21.328 32.021 20.4092 32.7216 19.0784C33.3097 17.959 33.7905 16.6372 34.1033 15.6692ZM9.65899 20.0743C9.50027 20.0958 9.42967 20.2588 9.05861 20.3698C8.62659 20.4988 7.70395 20.4325 6.86906 20.3805C6.26099 20.3429 5.94015 20.5722 5.80985 20.6994C6.18985 20.9161 7.41493 21.6289 8.46126 21.8313V21.8295C8.42641 21.7829 10.118 20.6349 9.65971 20.0743H9.65899Z" fill="black" />
    <path d="M43.4442 7.15088C43.1421 7.14981 42.5881 7.29113 41.7069 7.58987C41.7015 7.59184 41.6979 7.59274 41.6926 7.59471C41.5728 7.63555 41.4477 7.67871 41.3154 7.72528C37.1687 9.18446 33.1596 13.7515 27.9708 17.6956L28.0083 17.6347C29.5491 15.3113 30.0799 13.6107 31.6349 12.1546C32.4375 11.3875 33.6672 10.587 34.8808 9.893C34.879 9.89444 34.8701 9.8982 34.8576 9.90464C33.7977 10.2752 31.7261 11.4161 30.9379 12.1546C29.0772 13.8973 28.6572 16.137 26.01 19.4096C24.8321 20.8658 23.8133 21.8867 23.0108 22.5565C22.4978 22.99 22.0474 23.2962 21.7149 23.4718C21.7185 23.4789 21.7596 23.6186 21.8776 23.6491C22.0688 23.6974 22.7892 23.3339 23.7079 22.5565C23.7132 22.5547 25.4774 21.7165 26.321 21.2544C27.313 20.7135 28.9485 19.6908 29.306 19.4544C29.306 19.4526 29.3078 19.4526 29.3078 19.4526C29.9459 19.0281 31.0737 18.1989 31.0737 18.1953C31.5974 17.8013 32.0693 17.4251 32.4857 17.0777C33.0166 16.6353 33.5617 16.1572 34.1033 15.669C33.7905 16.6371 33.3097 17.9589 32.7217 19.0783C32.021 20.409 31.0987 21.3279 30.6126 21.6807C30.7681 21.7792 31.0004 21.6323 31.0254 21.618C31.4258 21.3995 32.5537 20.4395 33.3097 18.9028C34.3893 16.7105 34.8415 15.024 34.8505 14.9934C34.938 14.9126 38.4199 11.6192 38.4681 11.5746C39.7711 10.3682 41.4674 9.21831 42.0769 8.84326C42.7114 8.45102 43.0975 8.15442 43.3245 7.95507C43.5532 7.75591 43.6212 7.65525 43.6212 7.65525V7.65453C43.6551 7.59167 43.7481 7.41883 43.7302 7.30313C43.7141 7.20318 43.6247 7.1516 43.4442 7.15088ZM38.6987 7.16486C38.6558 7.15572 38.5092 7.24312 38.2161 7.31387C37.8819 7.39483 37.0579 7.42008 36.7075 7.42026C36.3554 7.42026 35.8585 7.36796 35.0953 7.70182C34.5484 7.9411 34.182 8.42075 34.0157 8.67329C34.0694 8.59968 34.1176 8.54075 34.1587 8.50959C34.1587 8.50959 34.7146 7.86695 35.8514 7.95059C35.8121 8.00845 35.7817 8.08994 35.8174 8.16982C35.8174 8.17107 35.8192 8.17233 35.8192 8.1734C35.8246 8.18415 35.8299 8.19472 35.8371 8.20528L35.8424 8.21334C35.8424 8.21334 36.25 8.08242 36.5377 7.99537C37.1633 7.83973 37.5512 7.73388 37.9712 7.56086C38.5486 7.32426 38.7327 7.21966 38.713 7.17506C38.7112 7.16933 38.7058 7.16611 38.6987 7.16486ZM24.203 11.7027C23.7955 11.8338 23.4809 11.9117 23.1842 11.9644C22.5103 12.0976 22.0224 12.0627 20.6246 12.2466C18.4297 12.5361 17.403 13.2256 17.1151 13.492C17.0282 13.5724 16.9617 13.6421 16.8704 13.7694C16.8077 13.857 16.7635 13.9605 16.7566 13.9793C17.1013 13.5588 17.7094 13.0236 19.2734 12.8173C21.2502 12.557 21.8883 13.0062 23.3272 12.5255C23.6114 12.2373 23.9438 11.9371 24.203 11.7027ZM23.64 17.4753C23.64 17.4753 19.3842 21.3064 14.972 22.5888C13.4694 23.0258 11.8505 23.3804 10.6446 23.4073C10.86 23.4109 13.6624 23.5201 16.7396 22.3649C19.2555 21.4443 21.7292 19.9398 23.3111 18.8741C23.4022 18.5069 23.64 17.4753 23.64 17.4753ZM0.45397 18.6628C0.417114 18.6735 0.383547 18.6843 0.356218 18.7022H0.355521C0.346548 18.7075 0.337593 18.7147 0.330033 18.7219C0.239108 18.8043 0.253229 19.0031 0.539157 19.6299C0.923535 20.4717 1.80659 21.5894 3.34178 22.304C4.74524 22.9577 6.88242 22.99 7.31443 22.99H7.38807H7.38878C7.38878 22.99 11.0104 24.867 15.6129 24.6503C15.6231 24.6485 18.3528 24.7112 21.7006 23.4001C21.6988 23.3894 21.697 23.375 21.697 23.3625C21.697 23.0706 22.0652 22.3756 22.3262 21.8222H22.3279C22.5049 21.4497 22.6264 21.1434 22.6264 21.1434C21.184 21.91 18.8801 22.8915 16.7956 23.3822C12.6905 24.3458 10.0613 23.5094 9.61086 23.3625L9.55188 23.3428L9.54723 23.341H9.54652C9.54455 23.341 9.54348 23.341 9.54205 23.3392C8.49446 23.1655 7.24722 22.6801 6.14994 21.507C6.00946 21.3959 5.86932 21.2795 5.72884 21.1559C5.77209 21.2007 6.2815 21.9601 6.89975 22.5046C6.70332 22.5189 6.36926 22.5673 5.31827 22.4168C1.64144 21.892 0.483998 19.0084 0.45397 18.6628ZM9.69959 20.0705C9.68136 20.0705 9.66688 20.0741 9.66044 20.0741C10.1187 20.6347 8.42715 21.7828 8.462 21.8294V21.8312C8.51866 21.8419 8.65522 21.8652 8.78355 21.8777C8.91135 21.8903 9.0631 21.8831 9.09563 21.8813C9.09813 21.8795 9.29492 21.6556 9.41432 21.4801C9.61129 21.1917 9.73337 20.9105 9.79629 20.6795C9.8306 20.5434 9.8483 20.4108 9.84901 20.2801C9.84329 20.0974 9.75446 20.0705 9.69959 20.0705Z" fill="black" />
</svg>