<svg width="110" height="10" viewBox="0 0 110 10" fill="none"
    xmlns="http://www.w3.org/2000/svg">
    <g clip-path="url(#clip0_6134_90822)">
        <path d="M106.783 5.27618C107.475 5.76155 107.826 6.47785 108.281 7.1098C108.785 7.81089 109.209 8.5756 109.907 9.1951C109.779 9.20063 109.706 9.20755 109.634 9.20755C109.391 9.20755 109.14 9.17436 108.904 9.21446C108.378 9.30435 108.062 9.07203 107.79 8.63782C107.346 7.92844 106.854 7.25085 106.384 6.55806C105.917 5.86941 105.265 5.5721 104.447 5.59976C103.952 5.61635 103.456 5.60944 102.961 5.59976C102.791 5.59699 102.739 5.65093 102.74 5.82378C102.747 6.84845 102.743 7.87451 102.743 8.89918C102.743 8.99044 102.743 9.08171 102.743 9.18957H101.529V0.76126H101.77C103.157 0.76126 104.544 0.75711 105.929 0.762642C106.618 0.765407 107.263 0.923049 107.774 1.42778C108.942 2.58105 108.501 4.65252 106.973 5.20427C106.924 5.22225 106.874 5.24161 106.783 5.2748V5.27618ZM102.771 2.01133C102.76 2.04452 102.747 2.06526 102.747 2.086C102.744 2.80231 102.747 3.51861 102.741 4.23491C102.741 4.38564 102.83 4.38564 102.937 4.38564C103.538 4.38564 104.139 4.38841 104.742 4.38564C105.183 4.38287 105.626 4.39117 106.066 4.36213C106.544 4.33171 106.909 4.11046 107.066 3.62232C107.353 2.73316 106.842 2.00442 105.917 1.9975C104.928 1.99059 103.937 1.99612 102.948 1.9975C102.889 1.9975 102.829 2.0058 102.771 2.01133Z" fill="black" />
        <path d="M73.9774 0.761291C74.2835 0.761291 74.565 0.761291 74.8465 0.761291C76.0039 0.761291 77.1627 0.757142 78.32 0.765439C78.5769 0.766822 78.8379 0.793096 79.0894 0.845643C80.4285 1.12774 80.9628 2.20911 80.848 3.3928C80.7592 4.30685 80.2604 4.90423 79.4105 5.20984C79.3627 5.22643 79.3176 5.24855 79.252 5.27483C80.035 5.89295 80.4545 6.77519 81.0215 7.53989C81.4342 8.09717 81.8482 8.65307 82.2568 9.20205C81.7813 9.20205 81.2579 9.20758 80.736 9.19513C80.6731 9.19375 80.5979 9.10663 80.5528 9.04164C80.1142 8.41245 79.6838 7.77636 79.2465 7.14717C79.062 6.88305 78.8721 6.6217 78.6753 6.36726C78.2996 5.88327 77.8063 5.62468 77.1968 5.61777C76.5368 5.61085 75.8768 5.61639 75.1963 5.61639V9.18407H73.9761V0.761291H73.9774ZM75.2032 1.99753V4.38706C75.307 4.38706 75.3958 4.38706 75.486 4.38706C76.3237 4.38706 77.1599 4.38844 77.9976 4.38567C78.1957 4.38567 78.3938 4.38152 78.5892 4.35663C79.211 4.27781 79.5676 3.85743 79.5772 3.2075C79.5868 2.55066 79.2492 2.12337 78.633 2.01966C78.5209 2.0003 78.4061 1.99892 78.2914 1.99892C77.3403 1.99754 76.3892 1.99892 75.4382 1.99892C75.3644 1.99892 75.2906 1.99892 75.2032 1.99892V1.99753Z" fill="black" />
        <path d="M66.9893 0.5C68.532 0.545633 69.8643 1.0393 70.8167 2.32533C72.3239 4.35946 71.9195 8.29498 68.3872 9.2353C66.8075 9.65568 65.2894 9.46208 63.9639 8.43464C62.6713 7.43348 62.2162 6.04512 62.3693 4.4452C62.5961 2.08886 64.4463 0.664555 66.5848 0.52489C66.7214 0.516593 66.8581 0.508297 66.9893 0.5ZM67.0986 8.23413C67.2038 8.22722 67.2735 8.22445 67.3418 8.21754C68.5306 8.10138 69.4885 7.58835 70.0091 6.46827C70.5489 5.30669 70.4956 4.13406 69.7741 3.05684C68.7903 1.58828 66.4372 1.23843 64.9396 2.30735C63.7767 3.13843 63.3149 4.73144 63.8245 6.14883C64.337 7.57314 65.6829 8.2853 67.0986 8.23137V8.23413Z" fill="black" />
        <path d="M0.0490723 0.761681C0.438513 0.761681 0.803358 0.754766 1.1682 0.767212C1.23379 0.769977 1.31441 0.837736 1.36087 0.897198C2.90907 2.90091 4.45454 4.90739 6 6.91386C6.04646 6.97332 6.09429 7.03002 6.18584 7.14341V0.778275H7.40336V9.20658C7.01802 9.20658 6.63267 9.2135 6.2487 9.19967C6.18721 9.19691 6.11889 9.10287 6.06969 9.03926C4.55019 7.07151 3.03205 5.10236 1.51392 3.13322C1.44969 3.05025 1.38547 2.96728 1.26932 2.89261C1.26932 2.99494 1.26932 3.09727 1.26932 3.1996C1.26932 5.11896 1.26522 7.03832 1.27479 8.95768C1.27479 9.16787 1.2133 9.2218 1.01653 9.21212C0.698141 9.19691 0.379755 9.20797 0.0504387 9.20797V0.761681H0.0490723Z" fill="black" />
        <path d="M93.7008 7.97982H98.467V9.18703H92.4751V0.773926H98.4698V1.99911H93.6844C93.6844 2.16643 93.6844 2.30886 93.6844 2.45267C93.6844 3.00719 93.6912 3.56308 93.6803 4.11759C93.6762 4.30704 93.7295 4.36788 93.9222 4.3665C95.096 4.3582 96.2698 4.36235 97.4422 4.36235C97.5242 4.36235 97.6075 4.36235 97.7045 4.36235V5.60413C97.6007 5.60413 97.5119 5.60413 97.4231 5.60413C96.2575 5.60413 95.0905 5.60828 93.9249 5.59998C93.7363 5.59998 93.6762 5.65253 93.6789 5.84612C93.6899 6.47807 93.6831 7.11002 93.6831 7.74197C93.6831 7.80973 93.6912 7.87749 93.6981 7.97982H93.7008Z" fill="black" />
        <path d="M10.6106 9.18979V0.773926H16.5943V1.99634H11.8295C11.8213 2.08484 11.8117 2.14983 11.8117 2.21621C11.8117 2.85646 11.8185 3.4967 11.8062 4.13695C11.8021 4.32916 11.8705 4.36788 12.0426 4.3665C13.2096 4.36097 14.3752 4.36373 15.5421 4.36373C15.6323 4.36373 15.7212 4.36373 15.8277 4.36373V5.60551C15.7294 5.60551 15.6392 5.60551 15.5503 5.60551C14.3834 5.60551 13.2178 5.60966 12.0508 5.60136C11.8609 5.60136 11.8021 5.65529 11.8062 5.84889C11.8172 6.47392 11.8185 7.09758 11.8062 7.72262C11.8021 7.92451 11.8541 7.98397 12.0604 7.98259C13.4856 7.97291 14.9108 7.97844 16.3374 7.97844C16.4194 7.97844 16.5014 7.97844 16.5971 7.97844V9.19117H10.612L10.6106 9.18979Z" fill="black" />
        <path d="M54.6201 5.6042V9.18572H53.3958V0.760171C53.4777 0.760171 53.5584 0.760171 53.639 0.760171C55.1489 0.760171 56.6575 0.754641 58.1674 0.765704C58.4544 0.768469 58.7482 0.804423 59.0242 0.880478C60.1242 1.18608 60.7446 2.12502 60.6735 3.33914C60.5929 4.73164 59.6528 5.59452 58.2016 5.60282C57.1043 5.60835 56.0057 5.60282 54.9084 5.60282C54.8196 5.60282 54.7308 5.60282 54.6215 5.60282L54.6201 5.6042ZM54.6215 4.38594C54.7185 4.38594 54.7923 4.38594 54.8674 4.38594C55.8964 4.38594 56.9253 4.38594 57.9543 4.38455C58.1141 4.38455 58.2754 4.37487 58.4325 4.35137C58.9668 4.27116 59.3043 3.92822 59.3767 3.40137C59.4929 2.56061 59.0256 2.00471 58.1797 1.99918C57.0524 1.99227 55.9237 1.99642 54.7964 1.99918C54.739 1.99918 54.6816 2.01301 54.6215 2.02131V4.38732V4.38594Z" fill="black" />
        <path d="M43.4014 9.20636C42.9573 9.20636 42.5624 9.21466 42.1675 9.19806C42.1047 9.1953 42.0227 9.09988 41.9899 9.02798C41.6797 8.36699 41.3736 7.70323 41.0784 7.03533C41.0088 6.87769 40.9213 6.8279 40.7519 6.8279C39.4947 6.8362 38.2376 6.83482 36.9804 6.8279C36.8192 6.8279 36.7399 6.8763 36.673 7.02703C36.3778 7.69494 36.0649 8.35454 35.7684 9.02106C35.7055 9.16073 35.6304 9.21604 35.476 9.21051C35.1125 9.19945 34.7476 9.20636 34.3418 9.20636C34.4525 8.95884 34.5454 8.7445 34.6424 8.53293C35.8012 6.01204 36.9627 3.49392 38.116 0.970263C38.1925 0.802941 38.2827 0.746245 38.4603 0.755925C38.7486 0.771136 39.0397 0.76837 39.328 0.755925C39.4797 0.749011 39.5521 0.800175 39.6177 0.943989C40.7969 3.52434 41.983 6.10192 43.1678 8.68089C43.2415 8.83991 43.3099 9.0017 43.4014 9.20498V9.20636ZM38.8743 2.24246C38.3483 3.38606 37.8509 4.47019 37.3453 5.57092H40.402C39.8937 4.46328 39.3991 3.38467 38.8743 2.24246Z" fill="black" />
        <path d="M21.7116 2.00627H18.6384V0.77832H25.9722V2.00488H22.9195V9.18865H21.713V2.00627H21.7116Z" fill="black" />
        <path d="M85.927 2.00871H82.8716V0.772461H90.1821V2.00318H87.1445V9.19386H85.927V2.00871Z" fill="black" />
        <path d="M27.5083 5.59181V4.37769C27.5958 4.37216 27.6764 4.36248 27.757 4.36248C29.2888 4.36248 30.8206 4.36663 32.351 4.35695C32.5697 4.35557 32.6257 4.42748 32.6134 4.63352C32.597 4.87966 32.5984 5.12718 32.6134 5.37333C32.6243 5.55724 32.5615 5.60979 32.3825 5.60841C31.4683 5.60011 30.5541 5.60426 29.64 5.60426C29.0155 5.60426 28.3897 5.60426 27.7652 5.60426C27.6832 5.60426 27.6026 5.59735 27.5097 5.59181H27.5083Z" fill="black" />
        <path d="M45.1506 5.58335V4.37891H50.2325V5.58335H45.1506Z" fill="black" />
    </g>
    <defs>
        <clipPath id="clip0_6134_90822">
            <rect width="110" height="9.12664" fill="white" transform="translate(0 0.436523)" />
        </clipPath>
    </defs>
</svg>