<svg width="31" height="33" viewBox="0 0 31 33" fill="none" xmlns="http://www.w3.org/2000/svg">
<g clip-path="url(#clip0_6134_91030)">
<mask id="mask0_6134_91030" style="mask-type:luminance" maskUnits="userSpaceOnUse" x="0" y="0" width="32" height="33">
<path d="M0.884766 0.59668H31.9644V32.5967H0.884766V0.59668Z" fill="white"/>
</mask>
<g mask="url(#mask0_6134_91030)">
<path d="M0.913439 31.224H1.27602V32.5588H0.913439V31.224ZM4.11473 31.224H4.46622V32.5588H4.07126L3.34424 31.6282H3.34054V32.5588H2.98906V31.224H3.40991L4.11103 32.1555H4.11473V31.224ZM6.54554 31.4784H6.04976V31.224H7.4039V31.4784H6.90812V32.5588H6.54554V31.4784ZM8.98744 31.224H10.2343V31.4784H9.35002V31.755H10.1899V31.9982H9.35002V32.3044H10.2417V32.5588H8.98744V31.224ZM11.9011 31.224H12.8714C13.2413 31.224 13.3033 31.4497 13.3033 31.5866C13.3033 31.7494 13.2376 31.8539 13.0859 31.9085V31.9122C13.245 31.9363 13.2691 32.1379 13.2691 32.2692C13.2691 32.3349 13.2746 32.4912 13.3385 32.5588H12.9426C12.9084 32.4977 12.9065 32.4431 12.9065 32.3025C12.9065 32.1157 12.826 32.0695 12.7141 32.0695H12.2637V32.5588H11.9011V31.224ZM12.2637 31.8151H12.7437C12.8242 31.8151 12.9176 31.7698 12.9176 31.6449C12.9176 31.5117 12.8131 31.4784 12.7252 31.4784H12.2637V31.8151ZM15.9117 32.284H15.2985L15.1893 32.5588H14.799L15.3863 31.224H15.8238L16.4112 32.5588H16.0199L15.9117 32.284ZM15.6046 31.5117L15.3956 32.0408H15.8146L15.6046 31.5117ZM19.0982 31.7291C19.064 31.5367 18.9049 31.4405 18.7162 31.4405C18.3721 31.4405 18.299 31.7106 18.299 31.8919C18.299 32.0732 18.3721 32.3423 18.7162 32.3423C18.8919 32.3423 19.0621 32.2581 19.0982 32.0463H19.4922C19.4478 32.4357 19.1278 32.5967 18.7032 32.5967C18.2167 32.5967 17.9142 32.3867 17.9142 31.8919C17.9142 31.3961 18.2167 31.1861 18.7032 31.1861C19.0251 31.1861 19.4349 31.2684 19.4885 31.7291H19.0982ZM21.4911 31.4784H20.9953V31.224H22.3494V31.4784H21.8537V32.5588H21.4911V31.4784ZM23.933 31.224H24.2956V32.5588H23.933V31.224ZM25.8403 31.224H26.2389L26.6255 32.2415L27.0131 31.224H27.4108L26.8189 32.5588H26.4332L25.8403 31.224ZM28.9555 31.224H30.2033V31.4784H29.3181V31.755H30.158V31.9982H29.3181V32.3044H30.2107V32.5588H28.9555V31.224ZM0.884766 27.1274H2.10294V27.4548H2.11312C2.33973 27.193 2.68659 27.0515 3.24527 27.0515C4.06109 27.0515 4.81123 27.5001 4.81123 28.5222C4.81123 29.5443 4.06109 29.992 3.24527 29.992C2.73192 29.992 2.36933 29.8662 2.15289 29.6044H2.14271V30.8679H0.884766V27.1274ZM2.83736 29.1456C3.29059 29.1456 3.52276 28.8746 3.52276 28.5222C3.52276 28.1596 3.32112 27.8979 2.83274 27.8979C2.34898 27.8979 2.14271 28.1291 2.14271 28.5222C2.14271 28.9098 2.34898 29.1456 2.83736 29.1456ZM5.35511 27.9635C5.43003 27.5852 5.58635 27.354 5.89806 27.2078C6.20607 27.0673 6.66393 27.0164 7.32805 27.0164C8.6119 27.0164 9.12063 27.3031 9.12063 28.1245V29.4537C9.12063 29.6645 9.17613 29.7903 9.23625 29.881H7.94778C7.92188 29.8005 7.90708 29.7099 7.90246 29.6091C7.62034 29.8708 7.19208 29.992 6.52241 29.992C5.677 29.992 5.14329 29.7654 5.14329 29.0605C5.14329 28.5574 5.50125 28.2346 6.43177 28.1948L7.49455 28.1439C7.74614 28.1291 7.83123 28.069 7.83123 27.9173C7.83123 27.736 7.60554 27.6509 7.24758 27.6509C6.96084 27.6509 6.67411 27.6962 6.61306 27.9635H5.35511ZM7.86176 28.6277C7.65087 28.673 7.2929 28.7035 6.84522 28.7433C6.61306 28.7636 6.50299 28.8395 6.50299 29.0152C6.50299 29.2067 6.65838 29.3269 6.97102 29.3269C7.39373 29.3269 7.86176 29.2215 7.86176 28.7488V28.6277ZM9.78475 27.1274H11.0029V27.6555H11.0131C11.3405 27.2282 11.7531 27.0515 12.186 27.0515C12.3219 27.0515 12.4634 27.0617 12.5994 27.0821V28.2096C12.3774 28.1541 12.1915 28.1088 11.9695 28.1088C11.5218 28.1088 11.0436 28.2549 11.0436 28.8487V29.881H9.78475V27.1274ZM13.0471 27.9635C13.1229 27.5852 13.2783 27.354 13.591 27.2078C13.8981 27.0673 14.3559 27.0164 15.021 27.0164C16.3039 27.0164 16.8126 27.3031 16.8126 28.1245V29.4537C16.8126 29.6645 16.8681 29.7903 16.9282 29.881H15.6398C15.6148 29.8005 15.5991 29.7099 15.5944 29.6091C15.3123 29.8708 14.885 29.992 14.2153 29.992C13.369 29.992 12.8353 29.7654 12.8353 29.0605C12.8353 28.5574 13.1932 28.2346 14.1247 28.1948L15.1865 28.1439C15.4381 28.1291 15.5241 28.069 15.5241 27.9173C15.5241 27.736 15.2975 27.6509 14.9396 27.6509C14.6528 27.6509 14.3661 27.6962 14.306 27.9635H13.0471ZM15.5537 28.6277C15.3429 28.673 14.9849 28.7035 14.5372 28.7433C14.306 28.7636 14.195 28.8395 14.195 29.0152C14.195 29.2067 14.3513 29.3269 14.663 29.3269C15.0857 29.3269 15.5537 29.2215 15.5537 28.7488V28.6277ZM20.0343 29.5887H20.025C19.7984 29.8505 19.4506 29.992 18.8919 29.992C18.0761 29.992 17.326 29.5443 17.326 28.5222C17.326 27.5001 18.0761 27.0515 18.8919 27.0515C19.4053 27.0515 19.7679 27.1773 19.9843 27.4391H19.9945V26.1608H21.2524V29.881H20.0343V29.5887ZM19.2998 27.8979C18.8466 27.8979 18.6154 28.1698 18.6154 28.5222C18.6154 28.8839 18.8161 29.1456 19.3045 29.1456C19.7882 29.1456 19.9945 28.9144 19.9945 28.5222C19.9945 28.1347 19.7882 27.8979 19.2998 27.8979ZM23.8155 27.0164C25.2353 27.0164 25.8541 27.49 25.8541 28.5019C25.8541 29.5184 25.2353 29.992 23.8155 29.992C22.3957 29.992 21.776 29.5184 21.776 28.5019C21.776 27.49 22.3957 27.0164 23.8155 27.0164ZM23.8155 29.1762C24.3233 29.1762 24.5351 28.9449 24.5351 28.5019C24.5351 28.069 24.3233 27.8322 23.8155 27.8322C23.3114 27.8322 23.095 28.069 23.095 28.5019C23.095 28.9449 23.3114 29.1762 23.8155 29.1762ZM26.0252 29.881L27.2943 28.4408L26.1307 27.1274H27.6717L28.1702 27.8673L28.6679 27.1274H30.2088L29.0258 28.4408L30.3143 29.881H28.7132L28.1702 29.1012L27.6264 29.881H26.0252ZM26.7282 13.5082C26.5793 12.7794 27.3378 12.1476 26.9789 11.4021C26.6228 10.6677 24.8885 10.7037 24.8616 9.85833C24.8265 8.87047 26.263 9.37365 26.8651 9.39307C26.8651 7.81046 26.2426 6.45909 24.5407 7.52742C24.2549 7.52742 23.8655 7.46915 23.7295 7.21479C23.2208 6.27965 24.7775 6.07986 24.82 5.32416C24.8431 4.88666 24.3085 4.60917 24.1429 4.25398C24.0292 4.01627 24.1291 3.7138 24.1291 3.46129C24.1291 3.35584 24.0061 3.35214 23.9228 3.33087C23.6018 3.24855 23.3031 3.43262 22.9729 3.36232C22.6066 3.28277 22.4059 2.94794 22.0794 2.79624C22.0794 2.93129 21.8463 3.10703 21.7695 3.2171C21.529 3.55009 20.6669 4.72849 20.1416 4.21698C19.9353 4.01627 19.9695 3.66201 20.0111 3.39192C20.3136 1.35052 19.5681 1.12853 17.7746 0.842718C17.3389 0.770571 16.228 0.507885 15.7202 0.663279C15.7202 1.01384 16.1633 3.45666 15.378 3.32902C14.4447 3.32902 14.9553 0.903767 13.6011 0.59668C13.3782 0.678076 13.0841 0.712299 12.9389 0.925041C12.7465 1.20531 13.1285 2.05905 13.2127 2.38926C13.3144 2.80642 13.2931 3.36509 13.122 3.7286V3.7952C11.5903 3.7952 11.7466 0.400585 9.36297 2.06274C9.36297 2.97106 11.5255 4.12079 10.7828 5.1179C10.6561 5.28439 10.4452 5.42498 10.2352 5.45366C9.07531 5.5924 8.6156 3.08945 7.31973 3.31145C7.10791 3.34752 6.92015 3.51309 6.8295 3.69438C6.52426 4.28543 7.95888 5.1475 8.16699 5.73577C8.28077 6.05673 8.18087 6.35087 8.13185 6.66073C7.03947 6.66073 5.75562 5.09477 4.73908 6.08911C4.57814 6.24265 4.40425 6.45724 4.46714 6.69588C4.57167 7.11119 5.31071 7.04089 5.53548 7.43123C5.5438 7.44788 5.5512 7.46268 5.55953 7.48025C5.94431 8.35434 5.05912 8.99996 5.0471 9.79358C5.03785 10.1885 5.34493 10.4115 5.21914 10.8462C4.78441 12.3271 3.37846 10.676 2.70972 11.3087C2.10664 11.8766 2.79296 13.0568 2.83736 13.7256C2.86511 14.1622 2.62739 14.4905 2.60057 14.9179C2.57282 15.3073 2.85309 15.5986 2.94928 15.9437C3.07785 16.4163 2.94188 16.9398 3.20365 17.3487C3.95934 18.5188 5.24781 15.3387 5.82036 16.6781C6.28285 17.7631 3.93899 17.7039 3.88164 18.5262C3.82245 19.3438 5.24781 20.0801 5.78892 20.6073C6.26435 21.0707 6.64081 21.6645 6.70463 22.3305C6.76568 22.9956 6.45489 23.6699 6.2847 24.2535C6.52611 24.2535 6.70185 24.358 6.95622 24.285C8.1448 23.9326 8.84222 22.0327 8.64705 20.8589C8.47963 19.8701 7.93853 19.0219 7.87286 17.9878C7.80718 16.9704 8.79967 15.261 7.84881 14.5331C7.80718 14.5081 7.76371 14.4822 7.72116 14.4582C7.72116 14.5645 7.49362 14.5997 7.378 14.6034C7.16989 14.6099 7.00432 14.5285 6.8628 14.4193C6.65746 14.2575 6.53721 14.0105 6.70185 13.7718C6.93124 13.437 7.57964 13.5018 7.65642 13.0485C7.82198 12.0468 5.72324 11.8507 6.99229 10.6149C7.22816 10.3846 7.55652 10.2024 7.92095 10.232C8.51016 10.2783 9.92905 10.6982 9.84858 11.453C9.81065 11.7943 9.52299 12.1152 9.64693 12.4982C9.77458 12.8959 10.3573 12.8497 10.5108 13.2243C10.719 13.733 10.2953 14.1095 10.336 14.5821C10.3453 14.7014 10.398 14.7449 10.4887 14.8161C10.6681 14.9549 11.0122 15.003 11.1176 15.2342C11.3822 15.8234 10.669 16.5393 11.619 16.8566C11.619 16.4385 11.5237 15.8743 11.8918 15.6569C11.8918 15.7577 12.0953 15.8974 12.1564 15.9945C12.456 16.4626 12.5809 16.9019 13.1905 17.0573C13.2127 16.1712 12.7113 15.4137 12.7113 15.3896C13.1498 15.3896 13.4171 15.9677 13.9129 15.8354C14.367 15.7133 13.9647 15.2092 13.8592 14.9974C13.5586 14.3925 13.9906 13.9023 13.8074 13.3436C13.6141 12.7525 12.0315 12.3345 11.5459 11.8581C11.3822 11.7009 11.2101 11.4409 11.2906 11.194C11.5884 10.2681 12.6817 10.8203 13.4448 10.602C13.8019 10.4966 14.072 10.2496 14.3272 9.97025C14.6778 9.58084 14.9229 8.94539 14.7037 8.41631C14.5733 8.1009 14.3448 7.86319 14.4003 7.4673C14.6306 5.80145 17.3269 5.89394 18.5025 6.49887C19.1028 6.80688 19.6717 7.51262 19.3553 8.23317C19.0732 8.86584 18.312 8.49771 17.7746 8.73265C17.3001 8.93707 16.6794 9.89255 16.5213 10.3439C16.2826 11.0219 16.9504 11.5334 16.9967 12.192C17.0873 13.6322 16.4103 14.9558 16.1244 16.2544C16.0699 16.4931 16.2808 16.815 16.154 17.0333C15.9469 17.3838 15.5158 17.2543 15.1699 17.3829C14.9016 17.4828 14.7805 17.6918 14.5455 17.8389C14.0424 18.1497 13.4624 18.2995 13.3967 18.9896C13.714 18.9896 13.9471 18.8184 14.2847 18.7888C14.3328 18.7842 14.3522 18.8147 14.3531 18.8545C14.3522 18.8786 14.3467 18.8989 14.3448 18.9202C14.2662 19.5196 13.7935 20.0274 14.0803 20.6536C14.5048 20.6536 14.6047 19.6639 15.3105 19.9219C15.3937 19.9219 15.3836 19.9265 15.4048 19.9987C15.5491 20.4593 15.6074 20.8543 15.8562 21.2548C15.9247 21.2548 16.1439 21.1928 16.1365 21.0162C16.118 20.5916 16.0514 19.9497 16.1947 19.5871C16.4019 19.0488 16.7738 19.1181 16.6776 18.3893C16.7867 18.3893 16.9153 18.2015 17.0346 18.1617C17.8976 17.8602 18.041 17.3598 19.137 17.3949C19.4016 17.4014 19.6698 17.4153 19.8909 17.5235C20.0833 17.5235 20.0102 17.2257 19.9418 16.9935C19.557 15.7198 19.0714 14.46 19.0714 12.9921H19.2758C19.2758 13.1567 19.926 14.0382 20.0509 14.2436C20.2137 14.5035 20.7419 15.7152 21.209 15.4497C21.4273 15.3221 21.5577 13.8005 21.6853 13.4648C22.1487 12.2179 23.4575 11.9432 24.2262 13.1503C24.9551 14.2907 24.5055 16.6984 23.5732 17.5818C23.206 17.9222 22.688 17.924 22.3365 18.245C21.9693 18.5789 22.2986 19.2078 22.2384 19.6481C22.1811 20.0551 21.911 20.439 21.6113 20.7322C20.9407 21.3834 20.0528 21.6766 19.3692 22.2833C19.0788 22.5386 19.015 22.9632 18.6607 23.1204C18.312 23.2712 17.8828 23.0779 17.5193 23.1843C17.2547 23.3517 16.9884 23.5182 16.7201 23.6847C16.228 23.9409 15.4353 24.3738 15.1727 24.4524C15.1727 25.4985 17.6728 24.9408 18.1871 24.6633C18.5525 24.4663 18.6607 23.9862 19.0224 23.8308C19.4071 23.6625 19.7447 24.0556 20.1601 23.9131C20.5448 23.7744 20.9056 23.4636 21.246 23.237C21.9008 22.7921 22.6066 22.4175 23.2171 21.8949C23.4242 21.7136 23.7498 21.4657 23.8386 21.2187C23.9968 20.7775 23.2985 19.6888 24.5361 19.8683C25.4962 19.9968 26.4517 18.0674 26.6357 17.3829C26.743 16.8557 26.8475 16.3238 26.953 15.7947C27.0871 15.4765 27.2166 15.1584 27.3507 14.8383C27.544 14.0521 26.8429 14.078 26.7282 13.5082ZM4.98605 15.5283C4.21741 15.6893 3.67908 14.8069 4.02501 14.1862C4.17023 13.9226 4.39407 13.8042 4.64474 13.6572C4.94813 13.684 5.20896 13.7126 5.43096 13.8958C6.07195 14.4276 5.75932 15.3637 4.98605 15.5283ZM10.115 9.92677C10.0456 9.961 9.91332 9.89718 9.83655 9.8648C8.85979 9.45135 9.26307 8.82052 9.63676 8.12772C10.386 8.42556 10.5525 9.71311 10.115 9.92677ZM11.4811 12.7914C12.3839 13.2326 12.6956 13.9985 12.6651 14.3869C12.6558 14.5118 12.58 14.6182 12.58 14.6182C12.58 14.6182 12.3478 14.6996 12.0925 14.5978C11.3674 14.3065 11.4811 13.5314 11.4811 12.7914ZM18.6727 15.9825C18.6348 16.2951 18.5201 16.432 18.3175 16.6568C17.9679 16.6568 17.6432 16.4885 17.5396 16.1758C17.4434 15.8937 17.5313 15.5404 17.5554 15.2564C17.634 14.2473 17.7108 13.1003 18.0447 12.192C18.3804 12.9357 18.263 13.8061 18.4276 14.6478C18.5108 15.076 18.7291 15.4969 18.6727 15.9825ZM23.5815 11.5926C23.1218 11.5926 22.675 11.6463 22.2218 11.5566C20.5106 11.2171 21.985 9.29688 22.3513 8.52638C23.0487 9.15998 23.822 10.5881 23.5815 11.5926Z" fill="#100F0D"/>
</g>
</g>
<defs>
<clipPath id="clip0_6134_91030">
<rect width="29.4295" height="32" fill="white" transform="translate(0.884766 0.59668)"/>
</clipPath>
</defs>
</svg>
