<svg width="59" height="42" viewBox="0 0 59 42" fill="none"
    xmlns="http://www.w3.org/2000/svg">
    <g clip-path="url(#clip0_6134_91017)">
        <path fill-rule="evenodd" clip-rule="evenodd" d="M24.4189 4.98749C26.3011 3.02072 28.9215 1.80098 31.8197 1.80098C35.6722 1.80098 39.0334 3.95534 40.8233 7.15353C42.3788 6.45653 44.1005 6.06884 45.9121 6.06884C52.8606 6.06884 58.4939 11.7674 58.4939 18.7966C58.4939 25.8266 52.8606 31.5251 45.9121 31.5251C45.0641 31.5251 44.2352 31.4401 43.4338 31.2775C41.8575 34.0972 38.8538 36.0023 35.4062 36.0023C33.9629 36.0023 32.5978 35.6679 31.3824 35.0735C29.7845 38.8428 26.0617 41.4857 21.7228 41.4857C17.2043 41.4857 13.3535 38.6185 11.8753 34.5974C11.2293 34.735 10.5601 34.8067 9.87339 34.8067C4.49365 34.8067 0.132324 30.3879 0.132324 24.9362C0.132324 21.2827 2.09184 18.0929 5.00327 16.3863C4.40386 15.0031 4.07048 13.4765 4.07048 11.8716C4.07048 5.60195 9.14595 0.519531 15.4061 0.519531C19.0815 0.519531 22.348 2.27203 24.4189 4.98749ZM8.14551 21.7419C8.11524 21.8213 8.14419 21.8486 8.16166 21.8652L8.16526 21.8686L8.16833 21.8718L8.17045 21.8745C8.25723 21.9378 8.34505 21.987 8.43349 22.0365C8.4569 22.0497 8.48035 22.0628 8.50383 22.0762C9.09909 22.3931 9.66109 22.4856 10.2489 22.4856C11.446 22.4856 12.1893 21.847 12.1893 20.819V20.799C12.1893 19.8485 11.3504 19.5033 10.5631 19.2541L10.4609 19.2207L10.4603 19.2205C9.86692 19.0272 9.35515 18.8604 9.35515 18.4687V18.4478C9.35515 18.1127 9.65443 17.8659 10.1183 17.8659C10.6338 17.8659 11.2457 18.0376 11.6397 18.2561C11.6397 18.2561 11.7553 18.3311 11.7977 18.2186C11.821 18.1585 12.0205 17.6199 12.0413 17.5616C12.0637 17.4982 12.0238 17.4515 11.9831 17.4265C11.5333 17.1522 10.9115 16.9646 10.268 16.9646L10.1483 16.9655C9.05253 16.9655 8.28768 17.6291 8.28768 18.5804V18.6004C8.28768 19.6034 9.13151 19.9285 9.92213 20.1553L10.0493 20.1945L10.0511 20.195C10.6265 20.3724 11.1218 20.5251 11.1218 20.9315V20.9515C11.1218 21.3234 10.7992 21.6002 10.2788 21.6002C10.0768 21.6002 9.43246 21.596 8.73661 21.155C8.68839 21.1267 8.65168 21.1029 8.61689 21.0803C8.5911 21.0635 8.56635 21.0474 8.53875 21.0307C8.50466 21.0091 8.41903 20.9715 8.38162 21.0849L8.14551 21.7419ZM26.1617 21.8652C26.1442 21.8486 26.1152 21.8213 26.1455 21.7419L26.3816 21.0849C26.4165 20.9774 26.518 21.0166 26.5396 21.0307L26.5795 21.0567L26.5795 21.0567C26.6261 21.0872 26.671 21.1165 26.7366 21.155C27.4325 21.596 28.0768 21.6002 28.2788 21.6002C28.7992 21.6002 29.1226 21.3234 29.1226 20.9515V20.9315C29.1226 20.5253 28.6271 20.3726 28.0522 20.1954L28.0493 20.1945L27.9221 20.1553C27.1315 19.9285 26.2877 19.6034 26.2877 18.6004V18.5804C26.2877 17.6291 27.0525 16.9655 28.1483 16.9655L28.268 16.9646C28.9115 16.9646 29.5333 17.1522 29.9831 17.4265C30.0238 17.4515 30.0637 17.4982 30.0413 17.5616C30.0205 17.6199 29.821 18.1585 29.7977 18.2186C29.7553 18.3311 29.6397 18.2561 29.6397 18.2561C29.2457 18.0376 28.6338 17.8659 28.1183 17.8659C27.6544 17.8659 27.3551 18.1127 27.3551 18.4478V18.4687C27.3551 18.8604 27.8669 19.0272 28.4603 19.2205L28.4609 19.2207L28.5631 19.2541C29.3504 19.5033 30.1893 19.8485 30.1893 20.799V20.819C30.1893 21.847 29.446 22.4856 28.2489 22.4856C27.6611 22.4856 27.0991 22.3931 26.5038 22.0762L26.4532 22.0476L26.4335 22.0365C26.345 21.987 26.2572 21.9378 26.1705 21.8745L26.1689 21.8724C26.167 21.8702 26.1645 21.8678 26.1617 21.8652L26.1617 21.8652ZM37.8668 19.7476C37.8668 20.3287 37.7587 20.7865 37.5459 21.1099C37.3356 21.4301 37.0172 21.586 36.5732 21.586C36.1284 21.586 35.8117 21.4309 35.6047 21.1099C35.3952 20.7873 35.2887 20.3287 35.2887 19.7476C35.2887 19.1673 35.3952 18.7105 35.6047 18.3903C35.8117 18.0735 36.1284 17.9193 36.5732 17.9193C37.0172 17.9193 37.3356 18.0735 37.5467 18.3903C37.7587 18.7105 37.8668 19.1673 37.8668 19.7476ZM38.8661 18.6704C38.768 18.3378 38.615 18.0443 38.4113 17.8C38.2077 17.5549 37.9499 17.3582 37.644 17.2148C37.3389 17.0722 36.9781 16.9997 36.5732 16.9997C36.1675 16.9997 35.8067 17.0722 35.5016 17.2148C35.1956 17.3582 34.9379 17.5549 34.7334 17.8C34.5305 18.0451 34.3776 18.3386 34.2786 18.6704C34.1814 19.0014 34.1323 19.3633 34.1323 19.7476C34.1323 20.132 34.1814 20.4946 34.2786 20.8248C34.3776 21.1566 34.5297 21.4501 34.7342 21.6952C34.9379 21.9403 35.1965 22.1363 35.5016 22.2755C35.8075 22.4147 36.1675 22.4856 36.5732 22.4856C36.9781 22.4856 37.3381 22.4147 37.644 22.2755C37.9491 22.1363 38.2077 21.9403 38.4113 21.6952C38.615 21.4509 38.768 21.1575 38.8661 20.8248C38.9642 20.4938 39.0132 20.1311 39.0132 19.7476C39.0132 19.3641 38.9642 19.0014 38.8661 18.6704ZM46.8535 21.3726C46.8535 21.3726 46.9474 21.3359 46.9807 21.4334L47.226 22.1129C47.2575 22.1971 47.1852 22.2321 47.1852 22.2321C46.8078 22.3814 46.2824 22.4856 45.7702 22.4856C44.904 22.4856 44.2397 22.2346 43.7974 21.7411C43.356 21.2492 43.1323 20.5772 43.1323 19.746C43.1323 19.3616 43.1872 18.9981 43.2953 18.6671C43.4042 18.3353 43.5671 18.0418 43.7816 17.7967C43.9961 17.5516 44.2671 17.3548 44.5864 17.2123C44.9065 17.0689 45.2806 16.9972 45.7004 16.9972C45.9814 16.9972 46.2341 17.0147 46.4503 17.048C46.6814 17.083 46.9874 17.1656 47.117 17.2164C47.1403 17.2256 47.2052 17.2581 47.1786 17.334C47.1152 17.516 47.065 17.6548 47.0118 17.8016C46.9869 17.8706 46.9612 17.9414 46.9333 18.0193C46.8959 18.1227 46.8169 18.0885 46.8169 18.0885C46.4877 17.9843 46.1734 17.9368 45.7611 17.9368C45.2664 17.9368 44.8956 18.1027 44.6521 18.4262C44.4068 18.7513 44.2705 19.1782 44.2688 19.746C44.2671 20.3696 44.4218 20.8306 44.6978 21.1158C44.973 21.4009 45.3571 21.5451 45.8409 21.5451C46.0379 21.5451 46.2217 21.5318 46.3888 21.506C46.5534 21.4801 46.708 21.4284 46.8535 21.3726ZM49.3145 19.1899C49.3619 18.8672 49.4509 18.5987 49.588 18.3895C49.795 18.0718 50.111 17.8976 50.5549 17.8976C50.9989 17.8976 51.2923 18.0727 51.5027 18.3895C51.6423 18.5987 51.703 18.8789 51.7271 19.1899H49.3145ZM52.679 18.4804C52.5942 18.1594 52.3839 17.835 52.2459 17.6866C52.0281 17.4515 51.8153 17.2873 51.6041 17.1956C51.3281 17.0772 50.9972 16.9988 50.6347 16.9988C50.2124 16.9988 49.8291 17.0697 49.5182 17.2164C49.2064 17.3632 48.9446 17.5632 48.7392 17.8125C48.5339 18.061 48.3792 18.357 48.2811 18.6929C48.1822 19.0273 48.1323 19.3916 48.1323 19.776C48.1323 20.167 48.1839 20.5313 48.2861 20.859C48.3892 21.1891 48.5538 21.4801 48.7766 21.7211C48.9986 21.9637 49.2846 22.1538 49.6271 22.2863C49.9671 22.4181 50.3803 22.4864 50.855 22.4856C51.8319 22.4823 52.3465 22.2638 52.5585 22.1463C52.5959 22.1254 52.6317 22.0887 52.5868 21.9837L52.3656 21.3626C52.3324 21.27 52.2384 21.3042 52.2384 21.3042C52.2179 21.3118 52.1967 21.3199 52.1746 21.3285L52.1726 21.3292L52.1725 21.3293C51.9329 21.4212 51.5823 21.5558 50.85 21.5543C50.3255 21.5535 49.9364 21.3984 49.6928 21.1558C49.4426 20.9073 49.3203 20.5422 49.2987 20.0269L52.6815 20.0303C52.6815 20.0303 52.7705 20.0286 52.7796 19.9419L52.7817 19.9262C52.7967 19.8159 52.8814 19.1935 52.679 18.4804ZM22.588 18.3895C22.4509 18.5987 22.3627 18.8672 22.3145 19.1899H24.7271C24.703 18.8789 24.6423 18.5987 24.5035 18.3895C24.2923 18.0727 23.9989 17.8976 23.5549 17.8976C23.111 17.8976 22.795 18.0718 22.588 18.3895ZM25.2459 17.6866C25.3839 17.835 25.5934 18.1594 25.6782 18.4804C25.8814 19.1935 25.7967 19.816 25.7817 19.9262L25.7796 19.9419C25.7705 20.0286 25.6815 20.0303 25.6815 20.0303L22.2987 20.0269C22.3203 20.5422 22.4426 20.9073 22.6928 21.1558C22.9364 21.3984 23.3255 21.5535 23.8492 21.5543C24.5826 21.5558 24.9327 21.4214 25.1721 21.3294C25.1952 21.3206 25.2172 21.3121 25.2384 21.3042C25.2384 21.3042 25.3324 21.27 25.3664 21.3626L25.5868 21.9837C25.6317 22.0887 25.5959 22.1254 25.5585 22.1463C25.3465 22.2638 24.8319 22.4823 23.855 22.4856C23.3803 22.4864 22.9671 22.4181 22.6271 22.2863C22.2846 22.1538 21.9986 21.9637 21.7766 21.7211C21.5538 21.4801 21.3892 21.1891 21.2861 20.859C21.1839 20.5313 21.1323 20.167 21.1323 19.776C21.1323 19.3916 21.183 19.0273 21.2811 18.6929C21.3792 18.357 21.5339 18.061 21.7392 17.8125C21.9446 17.5632 22.2064 17.3632 22.5182 17.2164C22.8291 17.0697 23.2132 16.9988 23.6347 16.9988C23.9972 16.9988 24.3281 17.0772 24.6041 17.1956C24.8153 17.2873 25.0281 17.4515 25.2459 17.6866ZM14.5249 21.4118C14.3927 21.3059 14.3744 21.2792 14.3295 21.2108C14.263 21.1066 14.2289 20.9582 14.2289 20.7698C14.2289 20.4713 14.327 20.257 14.5307 20.1128C14.5282 20.1136 14.8216 19.8585 15.5117 19.8677C15.9964 19.8744 16.4295 19.9461 16.4295 19.9461V21.4885H16.4303C16.4303 21.4885 16.0005 21.581 15.5167 21.6102C14.8283 21.6519 14.5224 21.4109 14.5249 21.4118ZM15.8708 19.0281C15.7337 19.0181 15.5557 19.0123 15.3429 19.0123C15.0528 19.0123 14.7726 19.049 14.5099 19.1198C14.2455 19.1907 14.0077 19.3016 13.8032 19.4483C13.5979 19.5959 13.4324 19.7843 13.3127 20.0077C13.193 20.2312 13.1323 20.4946 13.1323 20.7898C13.1323 21.0899 13.1839 21.3509 13.287 21.5643C13.39 21.7786 13.5389 21.957 13.7284 22.0946C13.9163 22.2321 14.1482 22.333 14.4176 22.3939C14.6828 22.4547 14.9838 22.4856 15.313 22.4856C15.6597 22.4856 16.0055 22.4572 16.3405 22.3997C16.6723 22.343 17.0796 22.2605 17.1927 22.2346C17.3049 22.208 17.4296 22.1738 17.4296 22.1738C17.5136 22.1529 17.5069 22.0629 17.5069 22.0629L17.5053 18.9606C17.5053 18.2803 17.324 17.7759 16.9674 17.4632C16.6124 17.1514 16.0895 16.9938 15.4136 16.9938C15.16 16.9938 14.7518 17.0288 14.5074 17.078C14.5074 17.078 13.7683 17.2214 13.464 17.4599C13.464 17.4599 13.3975 17.5016 13.4341 17.5949L13.6735 18.2402C13.7035 18.3236 13.7841 18.2953 13.7841 18.2953C13.7841 18.2953 13.8099 18.2853 13.8398 18.2678C14.4908 17.9126 15.3138 17.9234 15.3138 17.9234C15.6796 17.9234 15.9606 17.9968 16.1502 18.1427C16.3347 18.2844 16.4287 18.4987 16.4287 18.9506V19.094C16.1377 19.0523 15.8708 19.0281 15.8708 19.0281ZM43.205 17.2689C43.2275 17.2773 43.2815 17.314 43.2557 17.3907C43.2242 17.4832 43.0595 17.9476 43.0014 18.1027C42.9797 18.1619 42.9432 18.2019 42.8783 18.1944C42.8783 18.1944 42.6838 18.1485 42.5067 18.1485C42.3837 18.1485 42.2099 18.1644 42.0528 18.2127C41.899 18.2603 41.7585 18.3445 41.6346 18.4645C41.5116 18.5854 41.4118 18.7538 41.3386 18.9639C41.2638 19.1765 41.2264 19.515 41.2264 19.8543V22.3822C41.2264 22.4389 41.1807 22.4856 41.1241 22.4856H40.2354C40.1789 22.4856 40.1323 22.4389 40.1323 22.3822V17.3223C40.1323 17.2648 40.1731 17.2189 40.2296 17.2189H41.0967C41.1532 17.2189 41.194 17.2648 41.194 17.3223V17.735C41.3237 17.5608 41.5564 17.4073 41.7659 17.3123C41.9771 17.2173 42.2132 17.1456 42.6381 17.1714C42.86 17.1856 43.1477 17.2464 43.205 17.2689ZM34.9695 14.6142C34.8614 14.5809 34.7633 14.5584 34.6353 14.5342C34.5056 14.5108 34.351 14.4992 34.1755 14.4992C33.5637 14.4992 33.0815 14.6726 32.7431 15.0144C32.4064 15.3546 32.1778 15.8723 32.0631 16.5535L32.0215 16.7828H31.2533C31.2533 16.7828 31.1602 16.7794 31.1402 16.8811L31.0147 17.5873C31.0056 17.654 31.0347 17.6965 31.1245 17.6965H31.8718L31.1136 21.9419C31.0546 22.2837 30.9864 22.5647 30.9108 22.7781C30.8368 22.9882 30.7645 23.1458 30.6747 23.2608C30.5882 23.3709 30.5068 23.4526 30.3654 23.5001C30.249 23.5393 30.1143 23.5577 29.9672 23.5577C29.8857 23.5577 29.7768 23.5443 29.6962 23.5276C29.6164 23.5118 29.574 23.4943 29.5133 23.4684C29.5133 23.4684 29.426 23.4351 29.3911 23.5226C29.3636 23.5952 29.1641 24.1446 29.14 24.2121C29.1167 24.2797 29.15 24.3322 29.1924 24.348C29.2921 24.383 29.3661 24.4064 29.5016 24.4389C29.6895 24.4831 29.8483 24.4856 29.9971 24.4856C30.3081 24.4856 30.5924 24.4414 30.8277 24.3564C31.0638 24.2705 31.2699 24.1213 31.4528 23.9195C31.6499 23.7011 31.7737 23.4726 31.8918 23.16C32.009 22.8515 32.1096 22.468 32.1894 22.0211L32.9518 17.6965H34.0658C34.0658 17.6965 34.1598 17.6999 34.1789 17.5973L34.3052 16.892C34.3136 16.8244 34.2853 16.7828 34.1947 16.7828H33.1131C33.1139 16.7792 33.1157 16.7679 33.1185 16.7502C33.1349 16.6469 33.1861 16.324 33.2918 16.0174C33.345 15.8648 33.4448 15.7406 33.5288 15.6556C33.6119 15.5722 33.7075 15.513 33.8122 15.4788C33.9195 15.4438 34.0417 15.4271 34.1755 15.4271C34.277 15.4271 34.3776 15.4388 34.4532 15.4546C34.558 15.4771 34.5987 15.4888 34.6261 15.4972C34.7367 15.5305 34.7517 15.498 34.7733 15.4446L35.0319 14.7326C35.0585 14.6559 34.9928 14.6234 34.9695 14.6142ZM20.1258 22.4856C20.1823 22.4856 20.2231 22.4397 20.2231 22.383V15.1429C20.2231 15.0862 20.1823 15.0404 20.1258 15.0404H19.2288C19.1722 15.0404 19.1323 15.0862 19.1323 15.1429V22.383C19.1323 22.4397 19.1722 22.4856 19.2288 22.4856H20.1258Z" fill="#121418" />
    </g>
    <defs>
        <clipPath id="clip0_6134_91017">
            <rect width="58.42" height="41.1936" fill="white" transform="translate(0.580078)" />
        </clipPath>
    </defs>
</svg>