<svg width="99" height="16" viewBox="0 0 99 16" fill="none"
    xmlns="http://www.w3.org/2000/svg">
    <g clip-path="url(#clip0_1321_1276)">
        <path d="M13.513 14.5759C15.2721 14.4083 17.0313 13.8219 17.0313 11.979V6.03135L16.1936 5.19366L15.2721 6.03135V10.4711L16.0261 11.1413L14.3507 12.6492H14.2669L12.5915 11.2251L13.0104 10.8062V1.7591C13.0104 1.08895 12.424 0.753868 12.0889 0.670098V0.502559C12.2564 0.418789 12.5077 0.33502 12.8428 0.33502C13.4292 0.33502 13.9318 0.670098 14.0994 1.08895H14.1831C14.5182 0.586329 15.1046 0.33502 15.6072 0.33502C15.7748 0.33502 15.9423 0.33502 16.1098 0.418789V0.586329C15.8585 0.670098 15.3559 1.00518 15.3559 1.92664V5.69628L17.6177 3.60204H17.7852C17.9528 3.76957 18.8742 4.60727 19.1255 4.77481C19.2093 4.85858 19.2931 4.85858 19.4606 4.85858C19.6282 4.85858 19.7957 4.77481 19.9632 4.69104V4.94235C19.7957 5.10989 19.5444 5.3612 19.5444 5.78005V10.89C19.5444 13.1518 17.0313 14.5759 13.6805 14.8272V14.5759H13.513ZM12.6753 0.586329C13.0104 0.837638 13.3454 1.08895 13.3454 1.67533V10.9738L13.0104 11.3088L14.4345 12.4816L14.8533 12.1465L13.7643 11.2251L13.9318 11.0575V1.7591C13.8481 1.00518 13.1779 0.670098 12.6753 0.586329ZM16.6125 13.9895C17.2826 13.5706 17.9528 13.068 17.9528 12.0628V5.69628L16.9475 4.60727L16.4449 5.02612L17.2826 5.94759V11.979C17.3664 12.8167 17.0313 13.4869 16.6125 13.9895ZM20.8009 5.69628C21.8062 5.19366 23.2303 4.35596 24.2355 3.60204H24.403C25.0732 4.27219 25.9947 5.3612 26.8324 6.11512V6.28266L23.1465 8.62821V10.1361C23.4816 10.3874 24.5706 10.89 25.2407 11.1413L26.7486 9.71722L26.9161 9.88476L23.9842 12.7329H23.8166C22.8114 12.3141 21.5549 11.7277 20.7172 11.3088C20.8009 10.9738 20.8847 10.2198 20.8847 9.29837V5.69628H20.8009ZM24.2355 12.1465C23.2303 11.7277 22.3926 11.3088 21.5549 10.89C21.6386 10.6387 21.6386 10.2198 21.6386 9.29837V5.52874L21.0523 5.86382V9.29837C21.0523 10.2198 21.0522 10.89 20.9685 11.1413C21.7224 11.5602 22.8114 12.0628 23.8166 12.4816L24.2355 12.1465ZM23.1465 8.3769L24.8219 7.2879C24.2355 6.61774 23.6491 5.94759 23.1465 5.44497V8.3769ZM23.6491 4.69104L23.2303 5.02612C23.7329 5.61251 24.403 6.36643 25.0732 7.12036L25.5758 6.78528C24.8219 6.03136 24.1517 5.27743 23.6491 4.69104ZM92.5915 14.5759C94.3507 14.4083 96.1098 13.8219 96.1098 11.979V6.03135L95.2721 5.19366L94.3507 6.03135V10.4711L95.1046 11.1413L93.4292 12.6492H93.2617L91.5863 11.2251L92.0051 10.8062V1.7591C92.0051 1.08895 91.4187 0.753868 91.0837 0.670098V0.502559C91.2512 0.418789 91.5025 0.33502 91.8376 0.33502C92.424 0.33502 92.9266 0.670098 93.0941 1.08895H93.1779C93.513 0.586329 94.0994 0.33502 94.602 0.33502C94.7695 0.33502 94.9371 0.33502 95.1046 0.418789V0.586329C94.8533 0.670098 94.3507 1.00518 94.3507 1.92664V5.69628L96.5287 3.60204H96.6962C96.8638 3.76957 97.7852 4.60727 98.0365 4.77481C98.1203 4.85858 98.2041 4.85858 98.3716 4.85858C98.5392 4.85858 98.7067 4.77481 98.8742 4.69104V5.02612C98.7067 5.19366 98.4554 5.44497 98.4554 5.86382V10.89C98.4554 13.1518 95.9423 14.5759 92.5915 14.8272V14.5759ZM91.7538 0.586329C92.0051 0.753868 92.424 1.08895 92.424 1.67533V10.89L92.0889 11.2251L93.513 12.3978L93.9318 12.0628L92.8428 11.1413L93.0104 10.9738V1.7591C92.9266 1.00518 92.2564 0.670098 91.7538 0.586329ZM95.6072 13.9057C96.2774 13.4869 96.9475 12.9842 96.9475 11.979V5.69628L95.9423 4.60727L95.5235 5.02612L96.3612 5.94759V11.979C96.4449 12.8167 96.1098 13.4869 95.6072 13.9057ZM42.4973 5.69628C43.5025 5.19366 44.9266 4.35596 45.9318 3.60204H46.0994C46.7695 4.27219 47.691 5.3612 48.4449 6.03135V6.19889L44.8428 8.54444V10.0523C45.2617 10.3036 46.2669 10.8062 46.9371 11.0575L48.4449 9.63345L48.6125 9.80099L45.6805 12.6492H45.513C44.5077 12.2303 43.2512 11.6439 42.4135 11.2251C42.4973 10.89 42.581 10.1361 42.581 9.2146V5.69628H42.4973ZM45.8481 12.1465C44.8428 11.7277 44.0051 11.3088 43.1674 10.89C43.2512 10.6387 43.2512 10.2198 43.2512 9.29837V5.52874L42.7486 5.78005V9.2146C42.7486 10.1361 42.7486 10.8062 42.6648 11.0575C43.4187 11.4764 44.5077 11.979 45.513 12.3978L45.8481 12.1465ZM44.8428 8.29313L46.5182 7.20413C45.9318 6.53397 45.3454 5.86382 44.8428 5.3612V8.29313ZM45.3454 4.69104L44.8428 5.02612C45.3454 5.61251 46.0156 6.36643 46.6858 7.12036L47.1884 6.78528C46.5182 6.03136 45.8481 5.27743 45.3454 4.69104ZM51.7957 1.50779V10.3036C51.7957 10.6387 52.1308 11.0575 52.4659 11.1413L52.9685 10.6387L53.136 10.8062L51.2931 12.7329H51.1255C50.4554 12.5654 49.4502 11.8952 49.4502 10.8062V2.5968L48.9475 2.09418L48.3612 2.68057L48.1936 2.51303L50.2879 0.33502H50.4554L51.7957 1.50779ZM51.5444 12.0628C50.8742 11.8952 50.2041 11.4764 50.2041 10.5549V2.26172L49.4502 1.50779L49.0313 1.92664L49.7015 2.51303V10.8062C49.7015 11.7277 50.4554 12.3141 51.1255 12.4816L51.5444 12.0628ZM53.9737 5.69628C54.979 5.19366 56.403 4.35596 57.4083 3.60204H57.5758C58.246 4.27219 59.1674 5.3612 59.9214 6.03135V6.19889L56.3193 8.54444V10.0523C56.6543 10.3036 57.7433 10.8062 58.4135 11.0575L59.9214 9.63345L60.0889 9.80099L57.157 12.6492H56.9894C55.9842 12.2303 54.7276 11.6439 53.8899 11.2251C53.9737 10.89 54.0575 10.1361 54.0575 9.2146V5.69628H53.9737ZM57.3245 12.1465C56.3193 11.7277 55.4816 11.3088 54.6439 10.89C54.7276 10.6387 54.7276 10.2198 54.7276 9.29837V5.52874L54.225 5.78005V9.2146C54.225 10.1361 54.225 10.8062 54.1413 11.0575C54.8952 11.4764 55.9842 11.979 56.9894 12.3978L57.3245 12.1465ZM56.3193 8.29313L57.9947 7.20413C57.4083 6.53397 56.8219 5.86382 56.3193 5.3612V8.29313ZM56.8219 4.69104L56.403 5.02612C56.9057 5.61251 57.5758 6.36643 58.246 7.12036L58.6648 6.78528C57.9947 6.03136 57.3245 5.27743 56.8219 4.69104ZM71.7329 6.03135V10.3036C71.7329 10.6387 72.068 11.0575 72.403 11.0575L72.9057 10.5549L73.0732 10.7225L71.2303 12.6492H71.1465C70.4763 12.4816 69.4711 11.8952 69.4711 10.7225V5.86382L68.9685 5.3612L68.3821 5.86382L68.2146 5.69628L70.3088 3.60204H70.4763L71.8166 4.94235V5.69628L73.492 3.68581H73.6596C73.9947 4.02088 74.4973 4.5235 74.9999 4.85858L73.5758 6.53397C73.157 6.19889 72.6543 5.69628 72.3193 5.44497L71.7329 6.03135ZM71.5653 12.0628C70.8952 11.8952 70.225 11.4764 70.225 10.5549V5.52874L69.5549 4.77481L69.136 5.19366L69.7224 5.78005V10.7225C69.7224 11.6439 70.4763 12.2303 71.1465 12.3978L71.5653 12.0628ZM72.4868 5.27743C72.7381 5.52874 73.157 5.94759 73.492 6.19889L73.8271 5.78005C73.492 5.52874 72.9894 5.02612 72.7381 4.85858L72.4868 5.27743ZM77.1779 12.7329L75.1674 11.3926V8.71198C75.6701 8.3769 76.7591 7.62298 77.2617 7.2879C76.424 6.86905 75.7538 6.36643 75.335 5.78005V5.61251C76.5078 4.94235 77.4292 4.27219 78.0994 3.60204H78.2669C78.2669 3.60204 80.78 4.77481 80.8638 4.85858C81.0313 4.94235 81.1151 4.94235 81.1988 4.94235C81.3664 4.94235 81.5339 4.85858 81.7015 4.77481V5.02612C81.5339 5.19366 81.2826 5.44497 81.2826 5.78005V10.2198C81.2826 10.7225 81.7015 10.9738 82.0365 11.0575L82.5392 10.5549L82.7067 10.7225L80.8638 12.6492H80.78C80.0261 12.4816 79.1884 11.7277 79.1046 10.89L77.3454 12.6492H77.1779V12.7329ZM77.5967 12.0628L75.9214 10.9738V8.46067L75.4187 8.79575V11.2251L77.2617 12.3978L77.5967 12.0628ZM79.0208 7.70675V6.36643L76.5915 5.10989C76.424 5.27743 75.7538 5.61251 75.5863 5.78005C76.1727 6.4502 77.6805 7.37167 79.0208 7.70675ZM81.1988 12.0628C80.5287 11.8115 79.8585 11.3926 79.8585 10.4711V5.86382L77.3454 4.60727C77.2617 4.69104 77.0104 4.85858 76.9266 4.94235L79.3559 6.19889V10.7225C79.3559 11.5602 80.1936 12.2303 80.78 12.4816L81.1988 12.0628ZM79.0208 10.6387V7.95806C78.5182 7.79052 77.9318 7.62298 77.4292 7.37167V10.7225L78.3507 11.3088L79.0208 10.6387ZM60.8428 11.3088V5.69628L63.8585 3.60204H64.0261C64.6125 3.85334 66.5392 4.69104 66.7067 4.77481C66.7905 4.77481 66.8742 4.85858 67.0418 4.85858C67.2093 4.85858 67.3769 4.77481 67.6282 4.69104V5.02612C67.4606 5.19366 67.2093 5.52874 67.2093 5.78005V10.5549C67.2093 11.6439 67.4606 12.3141 67.8795 12.7329V12.9005C67.2093 13.5706 65.7015 15.1622 65.0313 15.9162H64.9475C64.2774 15.5811 63.1884 15.246 62.3507 15.246C61.6805 15.246 60.9266 15.4136 60.424 15.8324L60.2564 15.7486C60.7591 14.5759 61.8481 13.3193 63.2721 13.3193C64.1098 13.3193 65.2826 13.6544 66.2878 14.2408C65.6177 13.4869 65.0313 12.0628 65.0313 10.9738L63.2721 12.6492H63.1046L60.8428 11.3088ZM62.2669 14.5759C61.5968 14.5759 61.0104 14.9109 60.6753 15.3298V15.4136C61.0941 15.1622 61.513 15.0785 62.2669 15.0785C63.1046 15.0785 64.2774 15.3298 64.8638 15.6649L65.1989 15.246C64.4449 14.9109 63.3559 14.5759 62.2669 14.5759ZM62.9371 12.4816L63.3559 12.1465L61.5968 10.89V5.52874L61.0941 5.86382V11.2251L62.9371 12.4816ZM65.6177 5.52874L63.1046 4.5235V5.02612L65.0313 5.86382V10.89C65.0313 11.979 65.5339 13.1518 66.2878 14.0732L66.7067 13.6544C66.0365 12.8167 65.6177 11.8952 65.6177 10.8062V5.52874ZM64.8638 10.6387V6.03135L63.1884 5.27743V10.5549L64.2774 11.2251L64.8638 10.6387ZM86.3088 5.69628L88.4868 3.60204H88.6543C88.8219 3.76957 89.8271 4.69104 89.9947 4.77481C90.0784 4.85858 90.1622 4.85858 90.246 4.85858C90.4135 4.85858 90.581 4.77481 90.7486 4.69104V5.02612C90.581 5.19366 90.3297 5.52874 90.3297 5.86382V11.2251C89.4083 11.4764 88.6543 11.979 87.8167 12.9005H87.7329L86.3088 12.5654V13.7382L87.0627 14.4083L85.3036 15.9162H85.2198L83.5444 14.4921L83.9632 13.9895V11.979C83.7957 11.979 83.4606 11.8952 83.2931 11.8115V11.5602C83.4606 11.4764 84.047 10.9738 84.047 10.5549V5.94759L83.5444 5.44497L82.958 6.03135L82.7905 5.86382L84.8847 3.76957H85.0522L86.3926 5.10989V5.69628H86.3088ZM84.2146 14.157L83.8795 14.4921L85.2198 15.6649L85.6386 15.3298L84.5496 14.4083L84.7172 14.2408V5.52874L83.9632 4.77481L83.6282 5.10989L84.2146 5.69628V14.157ZM87.9842 10.89V6.03135L87.1465 5.19366L86.225 6.03135V10.4711C86.6439 10.6387 87.8167 10.8062 87.9842 10.89ZM87.7329 12.6492C87.8166 12.4816 87.9842 12.3141 88.068 12.2303L86.225 11.8952V12.3978L87.7329 12.6492ZM87.314 5.10989L88.2355 6.03135V10.89L88.7381 10.6387V5.69628L87.7329 4.69104L87.314 5.10989ZM1.53393 7.79052C1.53393 5.61251 3.12555 4.18842 4.6334 3.51827L4.71717 3.68581C4.21455 4.27219 3.87948 4.85858 3.87948 6.19889C3.87948 7.70675 4.29832 8.71198 4.88471 9.38214C5.05225 9.13083 5.21979 8.79575 5.21979 8.46067V6.28266L7.90042 4.35596L7.98419 4.5235C7.81665 4.77481 7.64911 5.10989 7.64911 5.61251V7.03659C7.64911 8.04183 6.05749 9.13083 5.05225 9.46591C5.72241 10.1361 6.64387 10.3874 7.64911 10.3874C7.98419 10.3874 8.31927 10.3874 8.65435 10.3036V4.18842C7.73288 4.10465 6.89518 3.93711 6.14126 3.68581C5.30356 3.4345 4.46586 3.18319 3.79571 3.18319C2.7067 3.18319 1.36639 3.51827 1.36639 5.10989V5.61251L1.11508 5.69628C0.947539 5.19366 0.86377 4.69104 0.86377 4.27219C0.86377 2.34549 2.28785 0.670098 4.54963 0.670098C5.4711 0.670098 6.39257 0.921407 7.23026 1.17272C8.06796 1.42402 8.90565 1.67533 9.74335 1.67533C10.1622 1.67533 10.4135 1.42402 10.4135 1.00518C10.4135 0.586329 10.246 0.418789 9.91089 0.33502V0.16748C10.9161 0.33502 11.9214 0.921407 11.9214 2.17795C12.0051 3.4345 10.9161 4.18842 9.07319 4.18842H8.90565V10.3874C10.0784 10.1361 10.9161 9.63345 11.5025 8.62821L11.6701 8.71198C10.9999 10.8062 9.40827 12.8167 6.64387 12.8167C3.87948 12.8167 1.53393 11.1413 1.53393 7.79052ZM9.07319 3.4345C7.06272 3.4345 5.21979 2.42926 3.79571 2.42926C2.79047 2.42926 1.70147 2.84811 1.36639 3.93711H1.45016C1.86901 3.18319 2.87424 2.93188 3.79571 2.93188C5.30356 2.93188 7.06272 3.93711 9.07319 3.93711C10.6648 3.93711 11.6701 3.35073 11.7538 2.09418H11.6701C11.5025 3.09942 10.6648 3.4345 9.07319 3.4345ZM3.29309 4.69104C2.53916 5.44497 1.86901 6.4502 1.86901 7.79052C1.86901 10.9738 3.96325 12.5654 6.72764 12.5654C8.40304 12.5654 9.57581 11.6439 10.246 10.9738L10.1622 10.89C9.40827 11.5602 8.31927 12.0628 6.64387 12.0628C4.46586 12.0628 2.37162 10.7225 2.37162 7.79052C2.37162 6.61774 2.79047 5.44497 3.29309 4.69104ZM5.97372 8.29313V5.94759L5.4711 6.36643V8.54444C5.4711 8.79575 5.38733 8.96329 5.38733 9.13083H5.4711C5.72241 8.87952 5.97372 8.62821 5.97372 8.29313ZM31.3559 7.79052C31.3559 5.61251 32.9475 4.18842 34.4554 3.51827L34.5392 3.68581C33.9528 4.35596 33.6177 4.94235 33.6177 6.19889C33.6177 7.70675 34.0365 8.71198 34.6229 9.38214C34.7905 9.13083 34.958 8.79575 34.958 8.46067V6.28266L37.7224 4.27219L37.8062 4.43973C37.5549 4.77481 37.4711 5.10989 37.4711 5.61251V7.03659C37.4711 8.04183 35.8795 9.13083 34.8742 9.46591C35.5444 10.1361 36.4659 10.3874 37.4711 10.3874C37.8062 10.3874 38.1413 10.3874 38.4763 10.3036V4.18842C37.5549 4.10465 36.7172 3.93711 35.9632 3.68581C35.1255 3.4345 34.2878 3.18319 33.6177 3.18319C32.5287 3.18319 31.1884 3.51827 31.1884 5.10989V5.61251L31.0208 5.69628C30.8533 5.19366 30.7695 4.69104 30.7695 4.27219C30.7695 2.34549 32.1936 0.670098 34.4554 0.670098C35.3769 0.670098 36.2983 0.921407 37.136 1.17272C37.9737 1.42402 38.8114 1.67533 39.6491 1.67533C40.068 1.67533 40.3193 1.42402 40.3193 1.00518C40.3193 0.586329 40.1517 0.418789 39.8166 0.33502V0.16748C40.8219 0.33502 41.8271 0.921407 41.8271 2.17795C41.8271 3.6858 40.7381 4.35596 38.8952 4.35596H38.7276V10.5549C39.9004 10.3036 40.7381 9.80099 41.3245 8.79575L41.492 8.87952C40.8219 10.9738 39.2303 12.9842 36.4659 12.9842C33.7015 12.8167 31.3559 11.1413 31.3559 7.79052ZM38.8952 3.4345C36.8847 3.4345 35.0418 2.42926 33.6177 2.42926C32.6962 2.42926 31.6072 2.84811 31.1884 3.93711H31.2721C31.691 3.18319 32.6962 2.93188 33.6177 2.93188C35.1255 2.93188 36.8847 3.93711 38.8952 3.93711C40.4868 3.93711 41.492 3.35073 41.5758 2.09418H41.492C41.2407 3.09942 40.4868 3.4345 38.8952 3.4345ZM33.1151 4.69104C32.3612 5.44497 31.691 6.4502 31.691 7.79052C31.691 10.9738 33.7852 12.5654 36.5496 12.5654C38.225 12.5654 39.3978 11.6439 40.068 10.9738L39.9842 10.89C39.2303 11.5602 38.1413 12.0628 36.4659 12.0628C34.2879 12.0628 32.1936 10.7225 32.1936 7.79052C32.1936 6.61774 32.6125 5.44497 33.1151 4.69104ZM35.7957 8.29313V5.94759L35.2931 6.28266V8.46067C35.2931 8.71198 35.2093 8.87952 35.2093 9.04706H35.2931C35.5444 8.87952 35.7957 8.62821 35.7957 8.29313Z" fill="#1D1D1B" />
    </g>
    <defs>
        <clipPath id="clip0_1321_1276">
            <rect width="98.0105" height="16" fill="white" transform="translate(0.86377)" />
        </clipPath>
    </defs>
</svg>