<svg width="96" height="14" viewBox="0 0 96 14" fill="none"
    xmlns="http://www.w3.org/2000/svg">
    <g clip-path="url(#clip0_6134_90977)">
        <path d="M55.4592 13.7795C53.9022 13.7795 52.4004 13.3467 51.2125 12.091C50.7586 11.6073 50.7586 11.5861 51.2634 11.1576C51.5943 10.8776 51.921 10.5976 52.2477 10.3134C52.6549 9.96129 52.6549 9.96129 52.9986 10.3558C53.4822 10.9158 54.0549 11.3655 54.7762 11.5734C55.4762 11.777 56.1889 11.794 56.8762 11.5055C57.4192 11.2764 57.7289 10.848 57.6822 10.3643C57.6313 9.83401 57.2537 9.55826 56.7998 9.41826C55.8452 9.12977 54.878 8.88795 53.9234 8.60795C53.0749 8.36189 52.3368 7.92492 51.7895 7.22068C50.8604 6.02856 50.9919 4.25098 52.0313 3.13947C53.1174 1.98129 54.5046 1.73947 55.9937 1.77765C57.3598 1.81159 58.5562 2.24856 59.5065 3.27523C59.7483 3.53401 59.7101 3.69098 59.4598 3.89886C59.0737 4.2128 58.6962 4.54371 58.3313 4.8831C58.1022 5.09947 57.941 5.08674 57.7374 4.84492C56.7913 3.72916 55.4931 3.63159 54.4325 4.06007C53.6562 4.37826 53.5034 5.32856 54.2162 5.7528C54.7804 6.08371 55.4634 6.21947 56.0998 6.42735C56.8549 6.67341 57.6398 6.85159 58.3695 7.15704C60.4228 8.01401 60.9701 10.4152 59.5404 12.1207C58.5052 13.3552 57.1349 13.7922 55.4592 13.7752V13.7795Z" fill="black" />
        <path d="M80.3836 12.7062C79.9594 12.9777 79.6242 13.2662 79.2382 13.4316C77.5964 14.1401 75.9842 13.6522 75.3139 11.7389C74.6945 9.97827 74.6648 8.19645 75.5685 6.49524C76.4594 4.82797 78.6188 4.50555 79.8576 5.58736C79.9636 5.6807 80.0867 5.75282 80.2733 5.88858C80.2903 5.65948 80.3073 5.51948 80.3073 5.37948C80.3073 4.36979 80.3158 3.36009 80.3073 2.35039C80.303 2.03645 80.4133 1.91342 80.7273 1.92191C81.2661 1.93888 81.8091 1.93464 82.3479 1.92191C82.6364 1.91342 82.7594 2.00676 82.7594 2.31221C82.7509 5.91827 82.7509 9.52857 82.7594 13.1346C82.7594 13.4316 82.6448 13.5419 82.3521 13.5377C81.8642 13.5249 81.3764 13.5165 80.8927 13.5377C80.5448 13.5546 80.3836 13.4401 80.4261 13.0795C80.4388 12.9777 80.4091 12.8758 80.3879 12.7019L80.3836 12.7062ZM80.4218 9.31645C80.4218 8.83282 80.3751 8.3407 80.4345 7.86555C80.5067 7.28009 80.2097 6.97039 79.743 6.78797C78.8479 6.44009 78.0121 6.55464 77.7151 7.611C77.5879 8.0607 77.4776 8.52736 77.4564 8.98979C77.4182 9.83403 77.4012 10.6952 77.8424 11.4674C78.1903 12.0825 78.8182 12.2946 79.4715 12.0231C79.7048 11.9255 79.9424 11.7983 80.1164 11.6201C80.2691 11.4631 80.4006 11.2255 80.4133 11.0134C80.4558 10.4534 80.4261 9.88494 80.4261 9.3207L80.4218 9.31645Z" fill="black" />
        <path d="M71.5126 12.3877C70.9738 12.761 70.5453 13.1131 70.0702 13.3804C68.8865 14.0507 67.355 13.6901 66.7823 12.5871C66.5871 12.2095 66.4896 11.7386 66.4853 11.3059C66.4556 9.36707 66.4726 7.42828 66.4641 5.48949C66.4641 5.19252 66.5362 5.03979 66.8714 5.05676C67.3974 5.07798 67.9277 5.07373 68.4538 5.05676C68.789 5.04404 68.9035 5.17131 68.9035 5.50646C68.8908 7.14828 68.9035 8.7901 68.895 10.4319C68.895 10.958 68.912 11.4925 69.4593 11.7556C70.0193 12.0228 70.4987 11.7259 70.9653 11.4289C71.3768 11.1659 71.5338 10.8307 71.5211 10.3259C71.4829 8.70949 71.5211 7.09313 71.4999 5.48101C71.4999 5.12889 71.589 5.00161 71.9538 5.02707C72.4671 5.05676 72.9805 5.04404 73.4938 5.02707C73.795 5.01858 73.935 5.10767 73.935 5.43858C73.9265 7.99676 73.9265 10.5549 73.935 13.1131C73.935 13.3974 73.8247 13.4992 73.5532 13.4949C72.9847 13.4865 72.4162 13.4865 71.852 13.4949C71.5805 13.4992 71.4956 13.3762 71.5084 13.1259C71.5211 12.901 71.5084 12.6804 71.5084 12.3834L71.5126 12.3877Z" fill="black" />
        <path d="M87.5362 9.47323C87.4386 7.67868 88.3126 5.99444 89.8314 5.35808C91.8507 4.51384 94.5107 4.93384 95.3592 7.6999C95.9277 9.54535 95.6732 11.289 94.2859 12.7653C93.2677 13.8472 91.0532 14.0423 89.6617 13.3381C88.3126 12.6593 87.6168 11.2466 87.5362 9.47323ZM93.1998 9.28656C93.1701 9.27808 93.1404 9.27384 93.1107 9.26535C93.0895 8.90474 93.0768 8.5399 93.0429 8.17929C93.0301 8.03505 92.9835 7.89081 92.941 7.74656C92.6992 6.94474 92.241 6.57141 91.541 6.58838C90.8453 6.60535 90.3914 7.01687 90.1877 7.80596C90.158 7.92474 90.1198 8.04353 90.1156 8.16232C90.1029 8.92596 90.0604 9.69808 90.1156 10.4575C90.1453 10.8435 90.3065 11.2423 90.5059 11.5817C90.7732 12.0399 91.2441 12.2011 91.7659 12.1163C92.2623 12.0357 92.6695 11.815 92.7883 11.2763C92.9326 10.6144 93.0641 9.94838 93.1998 9.28232V9.28656Z" fill="black" />
        <path d="M18.9192 7.28426C19.4326 7.61517 19.9416 7.83577 20.315 8.20062C21.8338 9.68123 21.4307 12.6382 18.9447 13.2618C18.2956 13.423 17.6168 13.4952 16.9465 13.5206C15.801 13.563 14.6471 13.5206 13.5016 13.5418C13.1283 13.5461 13.0095 13.4188 13.0095 13.0497C13.018 9.49456 13.018 5.93941 13.0095 2.38426C13.0095 2.03214 13.1198 1.91335 13.4762 1.91759C14.855 1.93456 16.2338 1.91759 17.6126 1.92607C18.3592 1.92607 19.0592 2.12971 19.6744 2.54971C20.561 3.16062 20.8326 4.06001 20.7604 5.09092C20.6926 6.09214 20.0435 6.6691 19.2374 7.12729C19.1398 7.18244 19.0338 7.2291 18.9192 7.28426ZM14.0404 10.254C14.0404 10.9285 14.0489 11.5988 14.0404 12.2733C14.0404 12.5321 14.1338 12.6297 14.3968 12.6297C15.4913 12.6212 16.5901 12.6637 17.6804 12.6127C18.5332 12.5746 19.301 12.2564 19.7338 11.4503C20.5822 9.88062 19.5344 8.06062 17.6974 7.95032C16.6071 7.88668 15.5083 7.91214 14.4138 7.89092C14.1338 7.88668 14.0319 7.99698 14.0362 8.27274C14.0489 8.93032 14.0362 9.59214 14.0404 10.254ZM14.0404 4.91274C14.0404 5.4388 14.0574 5.96486 14.0362 6.48668C14.0192 6.84729 14.1253 6.99153 14.5156 6.9788C15.2453 6.94911 15.975 6.98729 16.7047 6.96607C17.1883 6.9491 17.6804 6.93638 18.1471 6.81759C19.1271 6.57153 19.6404 5.73153 19.5641 4.61577C19.5004 3.71214 18.8768 3.02062 17.8968 2.94426C16.7259 2.85092 15.5507 2.86365 14.3756 2.82547C14.0956 2.81698 14.0404 2.98244 14.0404 3.21577C14.0447 3.78001 14.0404 4.3485 14.0404 4.91274Z" fill="black" />
        <path d="M3.9902 10.848C4.54172 11.3996 5.26293 11.5396 5.98839 11.5947C7.42233 11.705 8.72475 11.3444 9.78111 10.3347C10.1078 10.025 10.3326 9.6135 10.5957 9.24017C10.6678 9.13835 10.7229 9.02805 10.7866 8.91775C10.8205 8.92623 10.8544 8.93896 10.8884 8.94744C10.8672 9.1935 10.8629 9.43956 10.8247 9.68138C10.5575 11.4377 9.72172 12.842 8.02475 13.4911C5.70414 14.3777 3.52354 13.9705 1.72051 12.2608C-0.51525 10.1396 -0.447372 6.43169 2.76414 4.56926C3.17142 4.33169 3.61263 4.1535 4.04111 3.96259C4.15142 3.91169 4.28717 3.91169 4.42717 3.88623C4.03263 4.31896 3.60414 4.67532 3.31566 5.12502C2.3993 6.53775 2.13626 8.93896 3.49384 10.4705C3.6296 10.6274 3.82899 10.725 4.00293 10.8523L3.9902 10.8438V10.848Z" fill="black" />
        <path d="M63.7532 9.02772C63.7532 9.5665 63.7532 10.1053 63.7532 10.6441C63.7532 11.6156 64.1986 12.0144 65.1786 11.9083C65.5378 11.8716 65.7174 12.0398 65.7174 12.4132C65.7174 12.6423 65.7004 12.8714 65.7174 13.1004C65.7471 13.4526 65.6283 13.635 65.2507 13.6307C64.5804 13.6307 63.9016 13.6901 63.2356 13.6307C62.141 13.5417 61.4241 12.7186 61.4198 11.6283C61.4156 10.1732 61.4241 8.72226 61.4283 7.26711C61.4283 6.73256 61.4113 6.7156 60.8895 6.71135C59.8883 6.70711 60.0156 6.7962 60.0071 5.82044C60.0071 5.69741 60.0113 5.57863 60.0071 5.45559C59.9944 5.20953 60.1216 5.1162 60.3507 5.1162C60.4059 5.1162 60.4568 5.1162 60.512 5.1162C61.4665 5.10347 61.4707 5.10347 61.5726 4.17438C61.632 3.63984 61.6829 3.10529 61.7295 2.57075C61.7507 2.33317 61.8653 2.24832 62.0986 2.25681C62.5313 2.26953 62.9641 2.27378 63.3968 2.25681C63.6938 2.24408 63.8083 2.35863 63.8041 2.6556C63.7913 3.33014 63.8126 4.00044 63.7956 4.67499C63.7871 5.01014 63.9186 5.13741 64.2495 5.12469C64.6144 5.10772 64.9792 5.12469 65.3441 5.12044C65.5944 5.1162 65.7216 5.20529 65.7132 5.46832C65.6835 6.99559 65.938 6.69014 64.5465 6.71135C63.6301 6.72408 63.7616 6.71135 63.7532 7.4962C63.7532 8.00953 63.7532 8.51863 63.7532 9.03196V9.02772Z" fill="black" />
        <path d="M1.6823 4.83612C0.655631 4.53491 0.210176 3.42339 0.651388 2.35006C1.04169 1.39552 2.14048 0.746424 3.2223 0.784606C4.35078 0.822788 5.38169 1.23006 6.4423 1.55248C6.95563 1.70521 7.48593 1.83673 8.01624 1.89188C8.5423 1.95127 8.94533 1.61188 8.98351 1.18339C9.02169 0.759152 8.72048 0.436727 8.18593 0.330667C8.10109 0.313697 8.01624 0.296727 7.86351 0.262788C9.20412 -0.0172119 10.8799 0.975515 10.5193 2.68521C10.3581 3.44885 9.59866 4.25067 8.67805 4.33552C8.01199 4.39491 7.30775 4.29733 6.65018 4.14885C5.49624 3.88582 4.35927 3.5337 3.21806 3.21551C3.15442 3.19855 3.08654 3.19006 3.01866 3.18158C1.86472 3.01612 1.27502 3.71612 1.68654 4.83612H1.6823Z" fill="black" />
        <path d="M48.5101 5.8077C48.5271 5.61254 48.5568 5.45982 48.5568 5.31133C48.5568 4.32709 48.5695 3.34709 48.5568 2.36285C48.5525 2.01921 48.6628 1.8877 49.0192 1.8877C49.3671 1.8877 49.4901 1.99376 49.4901 2.35012C49.4774 5.918 49.4816 9.48163 49.4901 13.0495C49.4901 13.3719 49.4053 13.5035 49.0574 13.5035C48.7095 13.5035 48.595 13.3762 48.6289 13.0538C48.6416 12.9265 48.6162 12.7992 48.5992 12.5828C48.3192 12.778 48.1071 12.9307 47.8907 13.0792C46.4738 14.055 44.0853 13.9828 43.1731 11.6665C42.541 10.0628 42.4944 8.40406 43.2792 6.80891C44.0556 5.23073 45.9222 4.53073 47.5428 5.20527C47.8695 5.34103 48.1538 5.5786 48.5101 5.8077ZM48.5907 9.27376C48.5907 8.72224 48.5398 8.16648 48.6034 7.61921C48.6798 6.96588 48.4253 6.56709 47.8441 6.32951C47.8059 6.31254 47.7719 6.29133 47.738 6.27012C46.1683 5.42164 44.4628 6.0877 43.9919 7.75921C43.6992 8.7986 43.6738 9.85073 43.958 10.9028C44.2931 12.1332 45.2222 12.8331 46.495 12.7653C47.178 12.7313 47.7634 12.4047 48.2725 11.9719C48.4338 11.8362 48.5653 11.5816 48.578 11.3738C48.6162 10.678 48.5907 9.97376 48.5907 9.278V9.27376Z" fill="black" />
        <path d="M32.478 12.5319C32.0962 12.7737 31.7653 13.024 31.4004 13.2064C30.1786 13.8173 28.9525 13.8555 27.7137 13.2064C26.4919 12.5701 26.4707 10.8985 27.1453 10.1052C27.9004 9.22279 28.8931 8.82824 29.975 8.58218C30.6707 8.42097 31.3707 8.264 32.075 8.14097C32.3719 8.08582 32.4356 7.94158 32.4356 7.6743C32.4271 6.71127 31.9095 6.0834 30.8913 5.90946C29.9622 5.74824 29.0756 5.82036 28.4477 6.66885C28.3925 6.74521 28.3331 6.81733 28.2865 6.89794C27.9216 7.54703 27.858 7.564 27.1113 7.21612C27.3489 6.32097 27.8877 5.61673 28.7192 5.27733C29.9325 4.78521 31.1925 4.81915 32.3422 5.51491C33.1228 5.99006 33.4071 6.77067 33.4113 7.66158C33.4156 9.0234 33.3943 10.381 33.4198 11.7428C33.4283 12.2349 33.5259 12.727 33.6319 13.2107C33.6871 13.461 33.6319 13.5204 33.3986 13.5373C32.7113 13.5882 32.6434 13.5373 32.5459 12.8501C32.5331 12.761 32.5077 12.6761 32.478 12.5319ZM32.4016 10.3088C32.4016 9.9737 32.3804 9.6343 32.4059 9.29915C32.4313 8.964 32.2913 8.84097 31.9816 8.91733C31.0143 9.15491 30.0386 9.36279 29.0925 9.67249C28.6937 9.804 28.3034 10.1052 28.0192 10.4276C27.3871 11.1276 27.7519 12.3495 28.6216 12.6167C29.5295 12.8925 30.4162 12.8076 31.2689 12.4343C32.0071 12.1119 32.6307 11.6876 32.4016 10.7119C32.3719 10.5846 32.4016 10.4446 32.3974 10.3088H32.4016Z" fill="black" />
        <path d="M84.1551 9.32054C84.1551 8.06902 84.1636 6.81751 84.1509 5.56599C84.1509 5.22236 84.2442 5.07811 84.6091 5.09508C85.1478 5.12054 85.6909 5.10781 86.2297 5.09933C86.48 5.09933 86.5945 5.1969 86.5945 5.45993C86.5903 8.03084 86.5903 10.5975 86.5945 13.1684C86.5945 13.4272 86.4884 13.5375 86.2339 13.5333C85.6527 13.5333 85.0715 13.5248 84.4903 13.5333C84.1721 13.5375 84.1551 13.3466 84.1551 13.109C84.1551 11.8448 84.1551 10.5805 84.1551 9.3163V9.32054Z" fill="black" />
        <path d="M36.1689 6.21107C36.4064 6.02016 36.6355 5.81229 36.8816 5.6341C37.921 4.88744 39.0792 4.76865 40.2289 5.23107C41.0561 5.56198 41.4719 6.3341 41.4889 7.2038C41.5313 9.18501 41.4973 11.162 41.5101 13.1432C41.5101 13.4826 41.3573 13.5547 41.0646 13.5377C40.7889 13.525 40.5258 13.5632 40.5301 13.139C40.5428 11.4293 40.547 9.71532 40.5301 8.00562C40.5258 7.5941 40.4622 7.1741 40.3476 6.77956C40.1949 6.2535 39.7749 5.9735 39.2446 5.88865C38.0058 5.68501 37.047 6.25774 36.1858 7.04683C36.084 7.14016 36.0713 7.36926 36.0713 7.53471C36.0628 9.33774 36.067 11.145 36.067 12.948C36.067 13.508 35.9355 13.6268 35.3967 13.5208C35.2992 13.4996 35.1846 13.3723 35.1549 13.2705C35.1125 13.1347 35.1379 12.9777 35.1379 12.8293C35.1379 10.4196 35.1379 8.00562 35.1379 5.59592C35.1379 5.1335 35.1889 5.1038 35.6555 5.10804C35.9398 5.10804 36.0458 5.23107 36.0331 5.49835C36.0246 5.71895 36.0331 5.93956 36.0331 6.16016C36.0798 6.17289 36.1264 6.18986 36.1773 6.20259L36.1689 6.21107Z" fill="black" />
        <path d="M4.00287 10.8607V5.51104C4.71984 5.1971 5.50045 4.85347 6.34893 4.48438C6.37438 4.6965 6.39984 4.82377 6.39984 4.95104C6.39984 6.41468 6.3956 7.88256 6.40832 9.34619C6.40832 9.67286 6.30651 9.85528 5.99257 9.97831C5.31802 10.2456 4.66045 10.5553 3.99438 10.8523L4.00711 10.8607H4.00287Z" fill="black" />
        <path d="M23.4798 6.59674C24.1034 6.1428 24.6719 5.72704 25.2531 5.31977C25.3719 5.23916 25.5204 5.19674 25.6646 5.15855C26.5173 4.92946 26.5343 4.95492 26.5089 5.81189C26.5004 6.08765 26.4113 6.20219 26.1228 6.18098C25.2064 6.10886 24.4767 6.49492 23.8404 7.11856C23.607 7.35189 23.4883 7.59371 23.4925 7.93734C23.5095 9.63431 23.501 11.3313 23.501 13.0283C23.501 13.4907 23.1828 13.7155 22.7755 13.4992C22.6695 13.4398 22.6058 13.2107 22.6058 13.0579C22.5931 11.3483 22.5973 9.63856 22.5973 7.92462C22.5973 7.13128 22.6101 6.33371 22.5931 5.54037C22.5846 5.19249 22.7416 5.10765 23.0598 5.10765C23.3695 5.10765 23.5052 5.20098 23.484 5.52765C23.4628 5.88401 23.4798 6.24462 23.4798 6.59674Z" fill="black" />
        <path d="M85.3472 3.89467C85.0502 3.89467 84.749 3.92012 84.4563 3.88194C84.346 3.86922 84.1763 3.72073 84.1678 3.62316C84.1381 3.15649 84.1381 2.68134 84.1678 2.21467C84.1763 2.11285 84.3502 1.9474 84.452 1.94316C85.0587 1.9177 85.6654 1.93043 86.272 1.93043C86.4884 1.93043 86.586 2.03225 86.586 2.25285C86.5817 2.69831 86.5775 3.13952 86.586 3.58497C86.586 3.80982 86.4969 3.90316 86.272 3.89891C85.9623 3.89043 85.6526 3.89891 85.3429 3.89891L85.3472 3.89467Z" fill="black" />
        <path d="M8.32588 8.70559C7.90588 8.32801 7.5283 7.98862 7.14648 7.65347C6.97254 7.50074 6.98527 7.37347 7.15921 7.22922C7.51133 6.9365 7.84224 6.62256 8.1986 6.34256C8.26648 6.2874 8.45739 6.29165 8.52951 6.35104C8.86891 6.61407 9.18709 6.9068 9.51375 7.18256C9.69194 7.33528 9.72588 7.47104 9.52648 7.64074C9.13194 7.98013 8.74588 8.3365 8.32163 8.71407L8.32588 8.70559Z" fill="black" />
    </g>
    <defs>
        <clipPath id="clip0_6134_90977">
            <rect width="95.8788" height="14" fill="white" transform="translate(0.121094)" />
        </clipPath>
    </defs>
</svg>