<svg width="86" height="18" viewBox="0 0 86 18" fill="none"
    xmlns="http://www.w3.org/2000/svg">
    <g clip-path="url(#clip0_1321_1701)">
        <path d="M9.16211 0.35083C6.98543 0.691198 4.72649 1.44127 2.60676 2.43086V3.42045L1.43617 3.81754V4.92059L0.0947266 5.43114C0.664206 11.0976 4.3595 15.4531 9.15578 17.6529C13.9521 15.4531 17.6474 11.0976 18.2168 5.43114L16.8754 4.92059V3.81754L15.7048 3.42045V2.43086C13.604 1.36563 11.3071 0.691198 9.16211 0.35083ZM9.16211 1.59255C10.9718 1.89509 12.8827 2.46868 14.6607 3.35111V4.18943L15.6415 4.52349V5.45636L16.7678 5.88497C16.2933 10.6816 13.1928 14.3564 9.16843 16.2221C5.14411 14.3627 2.04361 10.6816 1.56905 5.88497L2.69535 5.45636V4.52349L3.67612 4.18943V3.35111C5.47314 2.48128 7.37141 1.9077 9.16211 1.59255Z" fill="black" />
        <path d="M9.61768 3.38892V14.6526C12.193 13.1777 14.9265 10.3413 14.9265 8.39359C14.9265 7.87043 14.5215 7.3977 13.8951 7.29055C14.3001 7.00691 14.5848 6.57199 14.5848 6.07404C14.5911 4.63693 11.8576 3.62213 9.61768 3.38892ZM10.9022 4.82603C12.2499 4.99621 13.313 5.43113 13.313 6.14338C13.313 6.53417 12.9586 6.89345 12.4524 7.14557L10.9022 7.90195V4.82603ZM13.1295 8.07844C13.4079 8.07844 13.6357 8.31795 13.6357 8.6205C13.6357 9.65421 12.4398 11.0598 10.9022 12.1944V9.15627L12.4904 8.29274C12.7245 8.16668 12.9523 8.07844 13.1295 8.07844Z" fill="black" />
        <path d="M8.64307 14.6526C7.81417 13.8458 7.1561 12.9129 6.56131 11.7468L5.60585 12.2952C4.16317 10.9274 3.20771 8.98608 2.49902 6.66023C2.85337 6.31356 3.28364 6.00471 3.74555 5.70216C4.11888 7.86413 4.70734 9.25081 5.8463 10.8455L6.17533 10.6564C5.39704 8.79699 4.96677 6.72957 4.7453 4.71257C5.13761 4.46045 5.58054 4.23984 6.0994 4.04444C6.30821 6.5846 6.6499 8.64572 7.34593 10.5871V3.61583C7.75722 3.50868 8.18749 3.43934 8.63042 3.38892L8.64307 14.6526Z" fill="black" />
        <path d="M27.1197 8.753L25.4176 4.93961L23.7218 8.753L21.0073 2.36794H22.469L23.8864 5.82205L25.4556 2.19775L27.0312 5.82205L28.4485 2.36794H29.8343L27.1197 8.753Z" fill="black" />
        <path d="M28.9104 8.50078L32.1438 2.11572L35.3645 8.50078H33.9408L33.403 7.39143H30.8719L30.3341 8.50078H28.9104ZM32.9094 6.36403L32.1438 4.78194L31.3781 6.36403H32.9094Z" fill="black" />
        <path d="M37.7121 6.23173H37.2565V8.50085H35.915V2.36792H37.788C38.5093 2.36792 39.0851 2.54441 39.5154 2.90368C39.952 3.25666 40.1735 3.72939 40.1735 4.32189C40.1735 4.70007 40.0786 5.03414 39.8887 5.32408C39.7052 5.60772 39.4332 5.82833 39.0788 5.98591L40.8695 8.50085H39.3066L37.7121 6.23173ZM37.7817 3.45836H37.2565V5.17281H37.7817C38.098 5.17281 38.3448 5.09717 38.5346 4.9459C38.7245 4.79462 38.8131 4.58662 38.8131 4.32189C38.8131 4.05085 38.7181 3.84285 38.5346 3.69157C38.3511 3.534 38.1044 3.45836 37.7817 3.45836Z" fill="black" />
        <path d="M41.6477 2.12207L45.8998 5.97328V2.36789H47.216V8.74665L42.9638 4.90805V8.50713H41.6477V2.12207Z" fill="black" />
        <path d="M52.3792 8.50085H48.4814V2.36792H52.3602V3.47727H49.7976V4.81353H52.1704V5.92288H49.7976V7.39151H52.3792V8.50085Z" fill="black" />
        <path d="M55.3532 6.23173H54.8976V8.50085H53.5562V2.36792H55.4291C56.1505 2.36792 56.7263 2.54441 57.1565 2.90368C57.5931 3.25666 57.8146 3.72939 57.8146 4.32189C57.8146 4.70007 57.7197 5.03414 57.5299 5.32408C57.3464 5.60772 57.0743 5.82833 56.7199 5.98591L58.5106 8.50085H56.9477L55.3532 6.23173ZM55.4165 3.45836H54.8976V5.17281H55.4228C55.7392 5.17281 55.9859 5.09717 56.1758 4.9459C56.3593 4.79462 56.4542 4.58662 56.4542 4.32189C56.4542 4.05085 56.3593 3.84285 56.1758 3.69157C55.9859 3.534 55.7392 3.45836 55.4165 3.45836Z" fill="black" />
        <path d="M63.4082 8.50085H61.1746V2.36792H63.1045C63.7815 2.36792 64.3004 2.51289 64.6737 2.80284C65.047 3.08648 65.2305 3.48987 65.2305 4.00673C65.2305 4.28407 65.1546 4.53619 65.0091 4.7568C64.8698 4.97741 64.6737 5.14129 64.4269 5.26105C64.7876 5.36821 65.0723 5.5573 65.2875 5.82203C65.5026 6.08676 65.6102 6.38931 65.6102 6.73598C65.6102 7.27805 65.414 7.71296 65.0217 8.02812C64.6294 8.34327 64.0916 8.50085 63.4082 8.50085ZM62.478 3.47727V4.91438H63.0285C63.3069 4.91438 63.5284 4.85135 63.6866 4.73159C63.8448 4.60553 63.9207 4.42904 63.9207 4.20213C63.9207 3.97522 63.8448 3.79873 63.6866 3.67267C63.5284 3.5466 63.3069 3.47727 63.0285 3.47727H62.478ZM62.478 5.89767V7.39151H63.3133C63.5917 7.39151 63.8195 7.32217 63.9903 7.1898C64.1612 7.05114 64.2434 6.86835 64.2434 6.64143C64.2434 6.41452 64.1612 6.23804 63.9903 6.10567C63.8195 5.967 63.598 5.89767 63.3133 5.89767H62.478Z" fill="black" />
        <path d="M68.369 6.23173H67.9135V8.50085H66.572V2.36792H68.445C69.1663 2.36792 69.7421 2.54441 70.1724 2.90368C70.609 3.25666 70.8305 3.72939 70.8305 4.32189C70.8305 4.70007 70.7356 5.03414 70.5457 5.32408C70.3622 5.60772 70.0901 5.82833 69.7358 5.98591L71.5265 8.50085H69.9636L68.369 6.23173ZM68.4323 3.45836H67.9071V5.17281H68.4323C68.7487 5.17281 68.9955 5.09717 69.1853 4.9459C69.3751 4.79462 69.4637 4.58662 69.4637 4.32189C69.4637 4.05085 69.3688 3.84285 69.1853 3.69157C69.0018 3.534 68.755 3.45836 68.4323 3.45836Z" fill="black" />
        <path d="M71.7036 5.43121C71.7036 4.55508 72.0073 3.81131 72.6211 3.1936C73.2412 2.56959 73.9879 2.26074 74.8674 2.26074C75.7469 2.26074 76.4936 2.56959 77.1137 3.1936C77.7338 3.81131 78.0438 4.55508 78.0438 5.43121C78.0438 6.30734 77.7338 7.05111 77.1137 7.67512C76.4936 8.29283 75.7469 8.60168 74.8674 8.60168C73.9879 8.60168 73.2412 8.29283 72.6211 7.67512C72.0073 7.05741 71.7036 6.30734 71.7036 5.43121ZM76.6897 5.43121C76.6897 4.88284 76.5126 4.42271 76.1645 4.06343C75.8165 3.69155 75.3799 3.50876 74.8674 3.50876C74.3549 3.50876 73.9246 3.69155 73.5766 4.06343C73.2286 4.42901 73.0514 4.88284 73.0514 5.43121C73.0514 5.97958 73.2286 6.43971 73.5766 6.81159C73.9246 7.17717 74.3549 7.35996 74.8674 7.35996C75.3862 7.35996 75.8165 7.17717 76.1645 6.81159C76.5126 6.43971 76.6897 5.97958 76.6897 5.43121Z" fill="black" />
        <path d="M78.6892 7.99658V6.64141C79.0372 6.91875 79.3726 7.12045 79.6953 7.26542C80.018 7.39778 80.328 7.46712 80.6254 7.46712C80.9165 7.46712 81.1443 7.41039 81.3088 7.29693C81.4797 7.18348 81.5619 7.0259 81.5619 6.8242C81.5619 6.68553 81.524 6.56577 81.4417 6.47122C81.3658 6.37668 81.2139 6.27583 80.9924 6.16867L79.9547 5.69594C79.4865 5.46903 79.1638 5.23581 78.9739 4.98999C78.7904 4.73787 78.6955 4.43532 78.6955 4.08234C78.6955 3.54658 78.898 3.10536 79.2967 2.7713C79.6953 2.43093 80.2015 2.26074 80.8153 2.26074C81.1316 2.26074 81.4417 2.31747 81.7454 2.43093C82.0555 2.54438 82.3022 2.68305 82.4984 2.85954V4.22731C82.2263 3.96258 81.9416 3.76088 81.6378 3.61591C81.3405 3.47094 81.0494 3.3953 80.7583 3.3953C80.5242 3.3953 80.3344 3.44573 80.1952 3.55288C80.0623 3.65373 79.9927 3.7924 79.9927 3.97519C79.9927 4.08865 80.0243 4.1895 80.0939 4.27774C80.1699 4.35968 80.2838 4.44162 80.4483 4.52356L81.4037 4.95217C81.9352 5.17908 82.3086 5.43121 82.5174 5.68964C82.7325 5.95437 82.8401 6.28843 82.8401 6.69183C82.8401 7.26542 82.6313 7.72555 82.2137 8.07852C81.796 8.42519 81.2582 8.60168 80.6001 8.60168C80.2458 8.60168 79.8978 8.55125 79.5624 8.4441C79.2207 8.33064 78.9297 8.17937 78.6892 7.99658Z" fill="black" />
        <path d="M84.2132 6.94385H84.2322C84.46 6.94385 84.6562 7.01948 84.8143 7.17706C84.9725 7.33464 85.0485 7.52373 85.0485 7.75065C85.0485 7.97756 84.9725 8.16665 84.8143 8.32423C84.6562 8.48181 84.46 8.55744 84.2322 8.55744H84.2132C83.9854 8.55744 83.7893 8.48181 83.6311 8.33053C83.4729 8.17296 83.397 7.97756 83.397 7.75065C83.397 7.52373 83.4729 7.32833 83.6311 7.17706C83.7893 7.02579 83.9854 6.94385 84.2132 6.94385Z" fill="black" />
        <path d="M21.7539 16.6066V10.4736H23.7661C24.6519 10.4736 25.4049 10.7699 26.0187 11.3624C26.6324 11.9486 26.9362 12.6734 26.9362 13.5369C26.9362 14.4005 26.6324 15.1253 26.0187 15.7241C25.4049 16.3103 24.6519 16.6066 23.7661 16.6066H21.7539ZM25.5884 13.5369C25.5884 12.9823 25.4112 12.5158 25.0506 12.144C24.6899 11.7658 24.2343 11.583 23.6838 11.583H23.1017V15.4972H23.6648C24.2216 15.4972 24.6772 15.3081 25.0379 14.9362C25.4049 14.5581 25.5884 14.0916 25.5884 13.5369Z" fill="black" />
        <path d="M27.9297 16.6066V10.4736H29.2711V16.6066H27.9297Z" fill="black" />
        <path d="M30.2329 16.1023V14.7471C30.5809 15.0245 30.9163 15.2262 31.239 15.3711C31.5617 15.5035 31.8717 15.5728 32.1691 15.5728C32.4602 15.5728 32.688 15.5161 32.8525 15.4026C33.0234 15.2892 33.1056 15.1316 33.1056 14.9299C33.1056 14.7912 33.0677 14.6715 32.9854 14.5769C32.9031 14.4824 32.7576 14.3815 32.5361 14.2744L31.4984 13.8017C31.0302 13.5747 30.7075 13.3415 30.5176 13.0957C30.3342 12.8436 30.2392 12.541 30.2392 12.1881C30.2392 11.6523 30.4417 11.2111 30.8404 10.877C31.239 10.5366 31.7452 10.3665 32.359 10.3665C32.6753 10.3665 32.9854 10.4232 33.2891 10.5366C33.5992 10.6501 33.8459 10.7888 34.0421 10.9653V12.333C33.77 12.0683 33.4853 11.8666 33.1815 11.7216C32.8842 11.5767 32.5931 11.501 32.302 11.501C32.0679 11.501 31.8781 11.5514 31.7389 11.6586C31.606 11.7594 31.5364 11.8981 31.5364 12.0809C31.5364 12.1944 31.568 12.2952 31.6376 12.3835C31.7136 12.4654 31.8275 12.5473 31.992 12.6293L32.9474 13.0579C33.4789 13.2848 33.8523 13.5369 34.0611 13.7953C34.2762 14.0601 34.3838 14.3941 34.3838 14.7975C34.3838 15.3711 34.175 15.8313 33.7574 16.1842C33.3397 16.5309 32.8019 16.7074 32.1438 16.7074C31.7895 16.7074 31.4415 16.657 31.1061 16.5498C30.7644 16.4364 30.4734 16.2851 30.2329 16.1023Z" fill="black" />
        <path d="M36.3768 13.537C36.3768 14.0727 36.554 14.5266 36.9146 14.8921C37.2753 15.2514 37.7246 15.4279 38.2561 15.4279C38.5535 15.4279 38.8319 15.3775 39.0913 15.2703C39.3507 15.1569 39.5722 14.9993 39.7494 14.7976V16.3356C39.5216 16.4616 39.2811 16.5499 39.0217 16.6129C38.7686 16.6759 38.5028 16.7074 38.2308 16.7074C37.8005 16.7074 37.3955 16.6318 36.9969 16.4742C36.6109 16.3103 36.2629 16.0834 35.9655 15.7872C35.6618 15.4909 35.4276 15.1506 35.2631 14.7598C35.0986 14.3753 35.0164 13.9656 35.0164 13.5433C35.0164 13.121 35.0986 12.7113 35.2631 12.3268C35.4276 11.9423 35.6618 11.5956 35.9655 11.2994C36.2629 11.0031 36.6046 10.7762 36.9969 10.6186C37.3892 10.4547 37.8005 10.3728 38.2308 10.3728C38.5092 10.3728 38.7686 10.4043 39.0217 10.4673C39.2811 10.5304 39.5216 10.6186 39.7494 10.7447V12.2826C39.5722 12.0809 39.3507 11.9297 39.0913 11.8225C38.8319 11.7091 38.5535 11.6523 38.2561 11.6523C37.7246 11.6523 37.2753 11.8351 36.9146 12.2007C36.5603 12.5537 36.3768 13.0012 36.3768 13.537Z" fill="black" />
        <path d="M40.572 13.5369C40.572 12.6608 40.8757 11.917 41.4895 11.2993C42.1096 10.6753 42.8563 10.3665 43.7358 10.3665C44.6153 10.3665 45.362 10.6753 45.9821 11.2993C46.6022 11.917 46.9122 12.6608 46.9122 13.5369C46.9122 14.4131 46.6022 15.1568 45.9821 15.7808C45.362 16.3985 44.6153 16.7074 43.7358 16.7074C42.8563 16.7074 42.1096 16.3985 41.4895 15.7808C40.8757 15.1568 40.572 14.4131 40.572 13.5369ZM45.5581 13.5369C45.5581 12.9886 45.381 12.5284 45.0329 12.1691C44.6849 11.7973 44.2483 11.6145 43.7358 11.6145C43.2233 11.6145 42.793 11.7973 42.445 12.1691C42.097 12.5347 41.9198 12.9886 41.9198 13.5369C41.9198 14.0853 42.097 14.5454 42.445 14.9173C42.793 15.2829 43.2233 15.4657 43.7358 15.4657C44.2547 15.4657 44.6849 15.2829 45.0329 14.9173C45.381 14.5454 45.5581 14.0853 45.5581 13.5369Z" fill="black" />
        <path d="M53.2842 10.4673L50.0635 16.8523L46.8301 10.4673H48.3171L50.0951 14.1987L51.8478 10.4673H53.2842Z" fill="black" />
        <path d="M57.7767 16.6066H53.8789V10.4736H57.7577V11.583H55.195V12.9192H57.5679V14.0286H55.195V15.4972H57.7767V16.6066Z" fill="black" />
        <path d="M60.7062 14.3374H60.2506V16.6066H58.9092V10.4736H60.7821C61.5035 10.4736 62.0793 10.6501 62.5096 11.0094C62.9462 11.3624 63.1676 11.8351 63.1676 12.4276C63.1676 12.8058 63.0727 13.1398 62.8829 13.4298C62.6994 13.7134 62.4273 13.934 62.073 14.0916L63.8637 16.6066H62.3007L60.7062 14.3374ZM60.7758 11.5641H60.2506V13.2785H60.7758C61.0922 13.2785 61.339 13.2029 61.5288 13.0516C61.7123 12.9003 61.8072 12.6923 61.8072 12.4276C61.8072 12.1566 61.7123 11.9486 61.5288 11.7973C61.3453 11.6397 61.0922 11.5641 60.7758 11.5641Z" fill="black" />
        <path d="M67.1034 13.9088V16.6066H65.7429V13.9088L63.4397 10.4736H64.9583L66.42 12.6671L67.8816 10.4736H69.4002L67.1034 13.9088Z" fill="black" />
    </g>
    <defs>
        <clipPath id="clip0_1321_1701">
            <rect width="85.1538" height="18" fill="white" />
        </clipPath>
    </defs>
</svg>