<svg width="30" height="32" viewBox="0 0 30 32" fill="none"
    xmlns="http://www.w3.org/2000/svg">
    <g clip-path="url(#clip0_6134_90961)">
        <path d="M16.1616 0C16.4985 0.0321912 16.8366 0.0576892 17.1726 0.0981673C18.8822 0.303426 20.494 0.792032 21.9149 1.79697C23.0878 2.62661 23.8272 3.73769 24.0182 5.18215C24.1345 6.06311 24.0621 6.93705 23.8177 7.78422C23.4432 9.08239 23.0304 10.3697 22.6263 11.6593C21.643 14.7949 20.6553 17.9292 19.6711 21.0649C19.635 21.1799 19.5911 21.281 19.4543 21.2784C19.3246 21.2759 19.2857 21.1735 19.2516 21.0668C18.0131 17.2061 16.7732 13.3453 15.5337 9.48494C15.5178 9.4349 15.4999 9.3855 15.4699 9.29721C15.3746 9.59649 15.2889 9.86135 15.2057 10.1272C14.0666 13.753 12.9281 17.3791 11.7874 21.0043C11.7657 21.0731 11.7367 21.1503 11.686 21.1968C11.577 21.2975 11.4295 21.2319 11.3737 21.062C11.2255 20.6088 11.0805 20.1546 10.9345 19.7007C10.0567 16.9708 9.17863 14.2413 8.30086 11.5114C8.06564 10.7796 7.83042 10.0481 7.59616 9.31602C7.52572 9.0961 7.60062 8.99697 7.83424 8.99602C7.95632 8.99538 8.07903 9.00271 8.20046 8.99442C8.35568 8.98359 8.43185 9.05785 8.47648 9.19841C8.74867 10.052 9.02532 10.9042 9.29974 11.7571C9.99616 13.9216 10.6923 16.0864 11.3887 18.2512C11.4406 18.4124 11.4935 18.5731 11.5595 18.7758C11.5927 18.6821 11.6159 18.6231 11.6347 18.5632C12.5708 15.5853 13.5066 12.6072 14.4427 9.629C14.713 8.7694 14.9826 7.91012 15.2551 7.05147C15.2752 6.98805 15.3042 6.91697 15.3517 6.87522C15.4632 6.77769 15.6048 6.84271 15.6602 7.01386C15.8597 7.629 16.0567 8.24478 16.2546 8.86024C17.3048 12.1304 18.3554 15.4005 19.4059 18.6703C19.417 18.7047 19.4311 18.7382 19.4581 18.8112C19.5601 18.4873 19.651 18.1992 19.7415 17.9108C20.7079 14.8367 21.6797 11.7641 22.6358 8.68653C22.8303 8.06056 23.011 7.42375 23.1178 6.77865C23.3189 5.5608 23.1337 4.40765 22.349 3.40494C21.7954 2.69769 21.0639 2.22502 20.2629 1.84829C19.0766 1.2902 17.8205 1.01355 16.5185 0.914104C15.1254 0.807649 13.7482 0.898486 12.4006 1.27363C8.98994 2.22311 6.44906 4.269 4.78883 7.3957C4.05353 8.78056 3.61624 10.2633 3.50723 11.8279C3.20604 16.1463 4.76492 19.6669 8.13066 22.372C9.82341 23.7326 11.7791 24.5348 13.934 24.7857C17.6787 25.2217 20.9616 24.161 23.7192 21.5837C25.6612 19.7689 26.8554 17.5245 27.3039 14.9014C27.6867 12.6623 27.4473 10.4816 26.5931 8.37355C26.5412 8.24574 26.5354 8.13323 26.5919 8.00797C26.6636 7.84861 26.713 7.67809 26.7939 7.52382C26.8296 7.45594 26.9182 7.37626 26.9839 7.3753C27.0502 7.37434 27.1483 7.4502 27.1796 7.51713C27.6315 8.48191 27.9464 9.49131 28.1412 10.539C28.2833 11.3033 28.3554 12.0749 28.3534 12.8504C28.349 14.8606 27.9276 16.7793 27.0225 18.5794C25.7103 21.1895 23.7409 23.148 21.128 24.4523C19.8499 25.0904 18.4981 25.4986 17.0776 25.6567C13.0221 26.1077 9.48588 24.9476 6.5262 22.1425C4.50548 20.2276 3.23249 17.869 2.78277 15.1159C2.09177 10.8848 3.19839 7.16016 6.12843 4.0204C8.06118 1.95092 10.4513 0.679841 13.2462 0.192829C13.7052 0.112829 14.1724 0.0819124 14.6355 0.0270916C14.6878 0.0210359 14.7391 0.00924303 14.7911 0C15.2478 0 15.7045 0 16.1613 0L16.1616 0Z" fill="black" />
        <path d="M0.834547 28.3972C0.999009 28.3789 1.10429 28.4475 1.1504 28.6028C1.41813 29.507 1.68522 30.4112 1.95327 31.3155C1.96761 31.3639 1.98674 31.4111 2.01957 31.5026C2.11901 31.1688 2.20666 30.8785 2.29176 30.5872C2.49256 29.9006 2.69399 29.2144 2.89032 28.5269C2.9171 28.4332 2.94769 28.3841 3.05765 28.3819C3.17176 28.3797 3.21383 28.4249 3.24379 28.5263C3.51981 29.4611 3.79965 30.395 4.07853 31.3288C4.09224 31.3741 4.10626 31.4194 4.1324 31.5045C4.16714 31.4018 4.19327 31.333 4.21399 31.2626C4.48076 30.3634 4.75072 29.4653 5.00921 28.5639C5.05702 28.3975 5.13702 28.351 5.30977 28.4077C5.23773 28.6538 5.16666 28.9008 5.09271 29.1472C4.83104 30.0202 4.56746 30.8928 4.30865 31.7668C4.28124 31.8589 4.25128 31.9061 4.14228 31.9061C4.03263 31.9061 3.98769 31.8726 3.95678 31.7671C3.68427 30.8367 3.40538 29.908 3.12809 28.9786C3.11471 28.9333 3.09877 28.8887 3.07168 28.8065C3.04268 28.8814 3.02228 28.9247 3.00889 28.9703C2.73861 29.8955 2.46897 30.8214 2.19965 31.747C2.17415 31.8343 2.15917 31.9092 2.0304 31.9067C1.91024 31.9045 1.87072 31.8614 1.83885 31.7534C1.52969 30.7067 1.21447 29.6616 0.899886 28.6165C0.883631 28.563 0.856221 28.5126 0.834229 28.461C0.834229 28.4396 0.834229 28.4186 0.834229 28.3972H0.834547Z" fill="black" />
        <path d="M20.527 31.9989C20.4205 31.9696 20.3128 31.9447 20.2083 31.9097C19.429 31.6496 18.9611 30.9532 18.9866 30.0952C19.014 29.1693 19.5746 28.484 20.4412 28.3176C21.5651 28.1019 22.5538 28.8964 22.6012 30.0391C22.6443 31.0692 21.9941 31.8421 21.1087 31.9753C21.0943 31.9776 21.0819 31.9906 21.0685 31.9986H20.5267L20.527 31.9989ZM20.8036 28.5226C19.902 28.5223 19.2266 29.2066 19.2231 30.1245C19.2193 31.0711 19.8883 31.7742 20.7918 31.7736C21.6938 31.7729 22.3663 31.0762 22.3641 30.1449C22.3619 29.218 21.6935 28.5232 20.804 28.5229L20.8036 28.5226Z" fill="black" />
        <path d="M24.4781 31.9988C24.3984 31.9752 24.3181 31.9525 24.239 31.9274C23.5414 31.7052 23.1174 31.2278 22.9998 30.5122C22.8784 29.7721 23.0518 29.107 23.681 28.6419C24.2626 28.2123 24.9128 28.168 25.5643 28.4638C26.2145 28.7589 26.5351 29.3059 26.5747 30.0045C26.625 30.9011 26.1938 31.5972 25.4435 31.8802C25.316 31.9283 25.1825 31.9599 25.0518 31.9991H24.4781V31.9988ZM26.3433 30.1632C26.3391 30.0944 26.3353 30.0255 26.3305 29.957C26.2677 29.0451 25.4167 28.38 24.516 28.5384C23.6889 28.684 23.1713 29.3604 23.2064 30.2496C23.2468 31.2753 24.1699 31.9707 25.1621 31.7231C25.8786 31.5443 26.3178 30.9639 26.3433 30.1629V30.1632Z" fill="black" />
        <path d="M29.3855 31.9032C29.1356 31.9484 28.9647 31.8353 28.7971 31.6562C28.362 31.1915 27.9082 30.7443 27.4613 30.2907C27.4361 30.2652 27.4068 30.2433 27.3545 30.1983V31.8911H27.1238V28.3988H27.3447V29.8512C27.5499 29.6664 27.7214 29.5131 27.8913 29.3582C28.2011 29.0758 28.5169 28.7998 28.8156 28.5059C28.9539 28.3698 29.0992 28.3778 29.2988 28.3998C28.6948 28.9454 28.1147 29.4694 27.5273 29.9998C27.5521 30.0323 27.5703 30.0632 27.5949 30.0877C28.1657 30.6649 28.7375 31.2418 29.3096 31.8178C29.3309 31.8391 29.36 31.8531 29.3851 31.8707V31.9025L29.3855 31.9032Z" fill="black" />
        <path d="M9.11941 31.9989C8.8061 31.923 8.51032 31.8143 8.28817 31.5644C8.27797 31.553 8.27001 31.5392 8.25024 31.5118C8.30538 31.4608 8.36052 31.4092 8.42427 31.3506C8.641 31.6001 8.90937 31.7232 9.21949 31.7659C9.66761 31.8274 10.095 31.5769 10.1836 31.1953C10.248 30.919 10.1776 30.6771 9.93566 30.5273C9.74889 30.4116 9.53502 30.3396 9.33104 30.2526C9.14618 30.1738 8.9508 30.1161 8.77423 30.0221C8.45837 29.8538 8.321 29.5711 8.33152 29.218C8.34172 28.8709 8.50363 28.6089 8.80706 28.4435C9.34634 28.149 10.0714 28.2838 10.402 28.7466C10.3452 28.7957 10.2869 28.846 10.2267 28.898C9.90092 28.5187 9.5022 28.4396 9.05407 28.5914C8.78985 28.6809 8.61136 28.8629 8.57789 29.1536C8.5422 29.4624 8.6665 29.6986 8.94283 29.8341C9.1465 29.9341 9.36546 30.0027 9.5771 30.0859C9.68546 30.1286 9.79606 30.1671 9.90092 30.2172C10.2531 30.3845 10.4603 30.6503 10.4408 31.0557C10.4204 31.4828 10.2031 31.77 9.8053 31.9217C9.72658 31.9517 9.64499 31.9737 9.56467 31.9995H9.11845L9.11941 31.9989Z" fill="black" />
        <path d="M13.6727 31.9013C13.6695 31.8315 13.6647 31.7796 13.6647 31.7279C13.6644 30.6771 13.6676 29.6263 13.6609 28.5758C13.6599 28.4196 13.7058 28.3766 13.8576 28.3829C14.1913 28.3969 14.5256 28.389 14.8596 28.3995C14.9639 28.4027 15.0697 28.4285 15.1704 28.4581C15.5057 28.5563 15.724 28.767 15.7648 29.1256C15.8059 29.4883 15.6893 29.7831 15.3651 29.9778C15.3428 29.9912 15.3218 30.0062 15.2867 30.0291C15.3205 30.0483 15.3438 30.0632 15.3683 30.0747C15.7664 30.2621 15.9669 30.606 15.928 31.036C15.8897 31.4593 15.6392 31.7471 15.2003 31.85C15.0572 31.8835 14.9071 31.8966 14.7595 31.8994C14.4003 31.9064 14.0411 31.9016 13.6724 31.9016L13.6727 31.9013ZM13.9117 31.7015C14.3286 31.6747 14.7382 31.6798 15.1363 31.6142C15.5366 31.5482 15.7106 31.2693 15.6851 30.8642C15.666 30.5601 15.4407 30.2742 15.0945 30.2223C14.7411 30.1694 14.3768 30.1866 14.0172 30.1751C13.9825 30.1738 13.9478 30.1853 13.9121 30.1911V31.7015H13.9117ZM13.9108 29.9562C14.2843 29.9332 14.6474 29.9176 15.0088 29.8838C15.0977 29.8755 15.1876 29.8172 15.266 29.7652C15.4776 29.6253 15.5525 29.4191 15.5251 29.1724C15.4999 28.9442 15.3725 28.7906 15.1634 28.7087C14.7538 28.5487 14.3299 28.644 13.9108 28.6159V29.9562Z" fill="black" />
        <path d="M16.8352 30.1939V31.8908H16.6089V28.4141C16.6175 28.4071 16.6258 28.3947 16.6337 28.395C17.0943 28.4043 17.558 28.3832 18.0141 28.4339C18.4588 28.4833 18.7013 28.7925 18.7227 29.2202C18.7456 29.6782 18.5228 30.0008 18.0913 30.1305C18.0055 30.1563 17.9166 30.1722 17.8028 30.1987C17.973 30.4839 18.1391 30.7632 18.3058 31.0417C18.4712 31.3184 18.6376 31.595 18.8049 31.8742C18.5738 31.9329 18.5576 31.9268 18.4457 31.7404C18.1617 31.2677 17.8761 30.7957 17.596 30.3204C17.5418 30.2283 17.4825 30.184 17.3703 30.191C17.1973 30.2019 17.0232 30.1939 16.8352 30.1939ZM16.84 29.9514C17.1934 29.9514 17.5319 29.9549 17.8704 29.9488C17.9421 29.9475 18.0157 29.9182 18.0843 29.8908C18.3504 29.7843 18.49 29.5718 18.4894 29.2843C18.4884 28.9965 18.3498 28.7848 18.0722 28.6898C17.6709 28.5531 17.2569 28.6299 16.8403 28.6111V29.9514H16.84Z" fill="black" />
        <path d="M6.05104 29.9687H7.7763C7.83017 30.181 7.82124 30.194 7.62618 30.194C7.14873 30.1947 6.67096 30.1975 6.19351 30.1918C6.07781 30.1905 6.03542 30.2195 6.03766 30.3422C6.04499 30.74 6.03989 31.1384 6.04084 31.5365C6.04084 31.5776 6.04817 31.619 6.05391 31.6777H7.98666V31.8906H5.81519V28.4009H7.89837V28.6138H6.05072V29.969L6.05104 29.9687Z" fill="black" />
        <path d="M13.1997 28.3857V28.6095H12.0599V31.8901H11.8218V28.6232H10.683C10.6298 28.3982 10.6387 28.3857 10.8401 28.3857C11.5617 28.3857 12.2833 28.3857 13.0046 28.3857C13.0664 28.3857 13.1283 28.3857 13.1997 28.3857Z" fill="black" />
    </g>
    <defs>
        <clipPath id="clip0_6134_90961">
            <rect width="28.5578" height="32" fill="white" transform="translate(0.834473)" />
        </clipPath>
    </defs>
</svg>