<svg width="60" height="18" viewBox="0 0 60 18" fill="none" xmlns="http://www.w3.org/2000/svg">
<path d="M59.7863 14.5704L55.6774 9.03417L59.4316 4.0083H58.0216L54.9681 8.10858L51.9145 4.0083H50.5131L54.2587 9.04282L50.1584 14.5791H51.5685L54.9681 9.99436L58.3763 14.5791H59.7863" fill="black"/>
<path d="M31.7936 14.5704L27.6934 9.03417L31.439 4.0083H30.0376L26.984 8.10858L23.9304 4.0083H22.5204L26.2747 9.04282L22.1658 14.5791H23.5758L26.984 9.99436L30.3836 14.5791H31.7936" fill="black"/>
<path d="M36.7158 13.4632C36.7158 13.4632 34.0688 13.4632 33.5757 13.4632V9.62239C34.0601 9.62239 36.7158 9.62239 36.7158 9.62239C37.9095 9.62239 39.3282 9.94246 39.3282 11.4563C39.3282 13.2036 37.6846 13.4632 36.7158 13.4632ZM33.5757 5.1069C34.0601 5.1069 36.7158 5.1069 36.7158 5.1069C37.5635 5.1069 38.9908 5.31451 38.9908 6.78507C38.9908 7.89232 38.1604 8.5584 36.7158 8.5584C36.7158 8.5584 34.0688 8.5584 33.5757 8.5584V5.1069ZM39.5964 9.43208C39.3714 9.24178 39.1379 9.09472 38.8957 8.99092C39.6656 8.5757 40.1759 7.78851 40.1759 6.88022C40.1759 6.2055 39.9251 4.0083 36.7071 4.0083H32.3733V8.56705C32.3733 8.56705 30.9719 8.56705 30.9287 8.56705C30.7384 8.80926 30.3145 9.38883 30.1501 9.62239C30.3059 9.62239 32.3733 9.62239 32.3733 9.62239V14.5704H36.7071C39.06 14.5704 40.5219 13.3853 40.5219 11.4822C40.5306 10.6518 40.2105 9.94246 39.5964 9.43208Z" fill="black"/>
<path d="M46.1618 13.6881C43.8695 13.6881 42.2692 11.8802 42.2692 9.28505C42.2692 6.68994 43.8695 4.88201 46.1618 4.88201C48.4455 4.88201 50.0372 6.68994 50.0372 9.28505C50.0372 11.8715 48.4455 13.6881 46.1618 13.6881ZM46.1618 3.76611C43.1515 3.76611 41.0581 6.03251 41.0581 9.28505C41.0581 12.5376 43.1515 14.804 46.1618 14.804C49.1549 14.804 51.2482 12.5376 51.2482 9.28505C51.2482 6.03251 49.1549 3.76611 46.1618 3.76611Z" fill="black"/>
<path d="M8.29269 17.9626C6.90954 17.8307 5.50841 17.333 4.30316 16.5455C3.29379 15.8859 3.06593 15.6161 3.06593 15.0744C3.06593 13.9891 4.25919 12.0863 6.29792 9.91961C7.4572 8.68837 9.0702 7.24527 9.2441 7.28324C9.58389 7.3592 12.2962 10.0096 13.3116 11.2548C14.9186 13.2296 15.6581 14.8446 15.2824 15.5641C14.9965 16.1118 13.2276 17.1811 11.9284 17.5909C10.8571 17.9306 9.44997 18.0746 8.29269 17.9626ZM1.70477 13.9471C0.867291 12.6599 0.443554 11.3907 0.237682 9.55783C0.169724 8.95221 0.193709 8.60642 0.391586 7.36319C0.637434 5.81415 1.51689 4.02326 2.57623 2.91995C3.02795 2.45024 3.06793 2.43825 3.61759 2.62413C4.28517 2.84999 4.99673 3.34169 6.10205 4.34307L6.74764 4.9267L6.39586 5.36044C4.75888 7.37119 3.03395 10.2214 2.38435 11.9843C2.03057 12.9417 1.88866 13.9051 2.04056 14.3049C2.1425 14.5747 2.04856 14.4748 1.70477 13.9471ZM16.4156 14.165C16.4976 13.7612 16.3937 13.0177 16.1478 12.2682C15.6181 10.6452 13.8412 7.62303 12.2103 5.5703L11.6966 4.92471L12.2522 4.41302C12.9778 3.74544 13.4815 3.34568 14.0251 3.00789C14.4549 2.74006 15.0665 2.50421 15.3303 2.50421C15.4922 2.50421 16.0639 3.09784 16.5256 3.74744C17.2411 4.75081 17.7668 5.97006 18.0326 7.23727C18.2045 8.05676 18.2185 9.80968 18.0606 10.6252C17.9307 11.2948 17.6549 12.1642 17.387 12.7558C17.1852 13.1976 16.6855 14.055 16.4656 14.3349C16.3537 14.4748 16.3537 14.4748 16.4156 14.165ZM8.44059 2.1964C7.68706 1.81263 6.52578 1.40289 5.88418 1.29096C5.65832 1.25298 5.27656 1.231 5.03071 1.24299C4.50104 1.26897 4.52502 1.24299 5.3745 0.841237C6.08006 0.507444 6.66969 0.311566 7.4692 0.14367C8.36864 -0.0462124 10.0576 -0.0482112 10.943 0.139672C11.8985 0.341547 13.0238 0.761287 13.6574 1.15105L13.8452 1.26697L13.4135 1.24499C12.554 1.20101 11.3028 1.5488 9.95765 2.20439C9.55191 2.40227 9.20012 2.56017 9.17414 2.55417C9.15016 2.55018 8.81836 2.38828 8.44059 2.1964Z" fill="black"/>
</svg>
